<?xml version="1.0" encoding="utf-8"?>
<!-- Generator: Adobe Illustrator 15.0.0, SVG Export Plug-In . SVG Version: 6.00 Build 0)  -->
<!DOCTYPE svg PUBLIC "-//W3C//DTD SVG 1.1//EN" "http://www.w3.org/Graphics/SVG/1.1/DTD/svg11.dtd">
<svg version="1.1" id="_x30_" xmlns="http://www.w3.org/2000/svg" xmlns:xlink="http://www.w3.org/1999/xlink" x="0px" y="0px"
	 width="9648px" height="5824px" viewBox="0 0 9648 5824" enable-background="new 0 0 9648 5824" xml:space="preserve">
<g>
	<g>
		
			<rect x="5414.357" y="4904.749" fill="none" stroke="#000000" stroke-width="0.7087" stroke-linecap="round" stroke-linejoin="round" stroke-miterlimit="10" width="85.039" height="34.016"/>
		
			<rect x="7611.207" y="4738.999" fill="none" stroke="#000000" stroke-width="0.7087" stroke-linecap="round" stroke-linejoin="round" stroke-miterlimit="10" width="34.016" height="63.777"/>
		
			<line fill="none" stroke="#000000" stroke-width="0.7087" stroke-linecap="round" stroke-linejoin="round" stroke-miterlimit="10" x1="5584.436" y1="2040.478" x2="5422.764" y2="2040.478"/>
		
			<line fill="none" stroke="#000000" stroke-width="0.7087" stroke-linecap="round" stroke-linejoin="round" stroke-miterlimit="10" x1="7435.459" y1="4992.854" x2="7460.971" y2="5050.876"/>
		
			<polyline fill="none" stroke="#000000" stroke-width="0.7087" stroke-linecap="round" stroke-linejoin="round" stroke-miterlimit="10" points="
			5419.835,2040.478 5419.835,2074.493 5340.562,2074.493 5340.562,2166.556 5306.547,2166.556 5306.547,2294.114 
			5340.562,2294.114 5340.562,2357.894 5306.547,2357.894 5306.547,2485.452 5340.562,2485.452 5340.562,2655.532 
			5306.547,2655.532 5306.547,2783.091 5340.562,2783.091 5340.562,2846.87 5306.547,2846.87 5306.547,2974.429 5340.562,2974.429 
			5340.562,3144.509 5306.547,3144.509 5306.547,3272.067 5340.562,3272.067 5340.562,3335.847 5306.547,3335.847 
			5306.547,3463.405 5340.562,3463.405 5340.562,3633.483 5306.547,3633.483 5306.547,3761.046 5340.562,3761.046 
			5340.562,3824.825 5306.547,3824.825 5306.547,3952.384 5340.562,3952.384 5340.562,4122.464 5306.547,4122.464 
			5306.547,4250.022 5340.562,4250.022 5340.562,4313.802 5306.547,4313.802 5306.547,4441.36 5340.562,4441.36 5340.562,4611.44 
			5306.547,4611.44 5235.681,4738.999 5235.681,5050.876 5306.547,5050.876 5306.547,4904.749 5340.562,4904.749 5340.562,5050.876 
			5473.79,5050.876 5525.578,4972.69 6678.515,4866.622 7432.531,4992.854 7458.043,5050.876 7608.279,5050.876 7608.279,4904.749 
			7642.295,4904.749 7642.295,5050.876 7727.896,5050.876 7727.896,4852.132 7642.295,4611.44 7608.279,4611.44 7608.279,4441.36 
			7642.295,4441.36 7642.295,4313.802 7608.279,4313.802 7608.279,4250.022 7642.295,4250.022 7642.295,4122.464 7608.279,4122.464 
			7608.279,3952.384 7642.295,3952.384 7642.295,3824.825 7608.279,3824.825 7608.279,3761.046 7642.295,3761.046 
			7642.295,3633.483 7608.279,3633.483 7608.279,3463.405 7642.295,3463.405 7642.295,3335.847 7608.279,3335.847 
			7608.279,3272.067 7642.295,3272.067 7642.295,3144.509 7608.279,3144.509 7608.279,2974.429 7642.295,2974.429 7642.295,2846.87 
			7608.279,2846.87 7608.279,2783.091 7642.295,2783.091 7642.295,2655.532 7608.279,2655.532 7608.279,2485.452 7642.295,2485.452 
			7642.295,2357.894 7608.279,2357.894 7608.279,2294.114 7642.295,2294.114 7642.295,2166.556 7608.279,2166.556 
			7608.279,2074.493 7529.008,2074.493 7529.008,2040.478 7367.334,2040.478 7367.334,2074.493 7239.775,2074.493 
			7239.775,2040.478 7175.996,2040.478 7175.996,2074.493 7040.503,2074.493 7040.503,2040.478 6878.357,2040.478 
			6878.357,2074.493 6750.799,2074.493 6750.799,2040.478 6687.019,2040.478 6687.019,2074.493 6559.46,2074.493 6559.46,2040.478 
			6389.381,2040.478 6389.381,2074.493 6261.822,2074.493 6261.822,2040.478 6198.043,2040.478 6198.043,2074.493 
			6070.483,2074.493 6070.483,2040.478 5900.404,2040.478 5900.404,2074.493 5772.846,2074.493 5772.846,2040.478 
			5709.066,2040.478 5709.066,2074.493 5581.507,2074.493 5581.507,2040.478 		"/>
		
			<rect x="5309.476" y="4738.999" fill="none" stroke="#000000" stroke-width="0.7087" stroke-linecap="round" stroke-linejoin="round" stroke-miterlimit="10" width="34.016" height="63.777"/>
		
			<rect x="7455.303" y="4904.749" fill="none" stroke="#000000" stroke-width="0.7087" stroke-linecap="round" stroke-linejoin="round" stroke-miterlimit="10" width="85.039" height="34.016"/>
	</g>
	
		<polygon fill="none" stroke="#000000" stroke-width="0.7087" stroke-linecap="round" stroke-linejoin="round" stroke-miterlimit="10" points="
		7615.648,350.214 7536.375,350.214 7536.375,384.229 7366.199,384.229 7366.199,350.214 7247.145,350.214 7247.145,384.229 
		7166.453,384.229 7166.453,350.214 7047.398,350.214 7047.398,384.229 6877.223,384.229 6877.223,350.214 6758.167,350.214 
		6758.167,384.229 6677.477,384.229 6677.477,350.214 6558.422,350.214 6558.422,384.229 6388.246,384.229 6388.246,350.214 
		6269.191,350.214 6269.191,384.229 6188.501,384.229 6188.501,350.214 6069.445,350.214 6069.445,384.229 5899.27,384.229 
		5899.27,350.214 5780.215,350.214 5780.215,384.229 5716.436,384.229 5716.436,350.214 5597.38,350.214 5597.38,384.229 
		5427.201,384.229 5427.201,350.214 5347.931,350.214 5347.931,426.749 5313.915,426.749 5313.915,497.616 5347.931,497.616 
		5347.931,525.962 7615.648,525.962 7615.648,497.616 7649.664,497.616 7649.664,426.749 7615.648,426.749 	"/>
	<g>
		
			<rect x="5597.38" y="717.954" fill="none" stroke="#000000" stroke-width="0.7087" stroke-linecap="round" stroke-linejoin="round" stroke-miterlimit="10" width="119.056" height="34.016"/>
		
			<rect x="6069.445" y="717.954" fill="none" stroke="#000000" stroke-width="0.7087" stroke-linecap="round" stroke-linejoin="round" stroke-miterlimit="10" width="119.056" height="34.016"/>
		
			<rect x="6558.422" y="717.954" fill="none" stroke="#000000" stroke-width="0.7087" stroke-linecap="round" stroke-linejoin="round" stroke-miterlimit="10" width="119.055" height="34.016"/>
		
			<rect x="7047.398" y="717.954" fill="none" stroke="#000000" stroke-width="0.7087" stroke-linecap="round" stroke-linejoin="round" stroke-miterlimit="10" width="119.055" height="34.016"/>
		
			<line fill="none" stroke="#000000" stroke-width="0.7087" stroke-linecap="round" stroke-linejoin="round" stroke-miterlimit="10" x1="7374.629" y1="1913.38" x2="7374.629" y2="1879.364"/>
		
			<line fill="none" stroke="#000000" stroke-width="0.7087" stroke-linecap="round" stroke-linejoin="round" stroke-miterlimit="10" x1="5347.931" y1="1743.302" x2="5313.915" y2="1743.302"/>
		
			<polyline fill="none" stroke="#000000" stroke-width="0.7087" stroke-linecap="round" stroke-linejoin="round" stroke-miterlimit="10" points="
			5347.931,1743.302 5347.931,1679.522 5313.915,1679.522 5313.915,1552.048 5347.931,1552.048 5347.931,1488.269 
			5313.915,1488.269 5313.915,1360.47 5347.931,1360.47 5347.931,1190.472 5313.915,1190.472 5313.915,1062.995 5347.931,1062.995 
			5347.931,999.216 5313.915,999.216 5313.915,871.419 5347.931,871.419 5347.931,751.97 5427.201,751.97 5427.201,717.954 
			5347.931,717.954 5347.931,637.79 7615.648,637.79 7615.648,717.954 7536.375,717.954 7536.375,751.97 7615.648,751.97 
			7615.648,871.419 7649.664,871.419 7649.664,999.216 7615.648,999.216 7615.648,1062.995 7649.664,1062.995 7649.664,1190.472 
			7615.648,1190.472 7615.648,1360.47 7649.664,1360.47 7649.664,1488.269 7615.648,1488.269 7615.648,1552.048 7649.664,1552.048 
			7649.664,1679.522 7615.648,1679.522 7615.648,1743.302 7649.664,1743.302 7649.664,1913.38 7536.375,1913.38 7536.375,1879.364 
			7374.629,1879.364 7374.629,1913.38 7247.068,1913.38 7247.068,1879.364 7183.289,1879.364 7183.289,1913.38 7047.869,1913.38 
			7047.869,1879.364 6885.651,1879.364 6885.651,1913.38 6758.093,1913.38 6758.093,1879.364 6694.313,1879.364 6694.313,1913.38 
			6566.754,1913.38 6566.754,1879.364 6396.676,1879.364 6396.676,1913.38 6269.116,1913.38 6269.116,1879.364 6205.337,1879.364 
			6205.337,1913.38 6077.777,1913.38 6077.777,1879.364 5907.773,1879.364 5907.773,1913.38 5780.14,1913.38 5780.14,1879.364 
			5716.436,1879.364 5716.436,1913.38 5588.876,1913.38 5588.876,1879.364 5427.201,1879.364 5427.201,1913.38 5313.915,1913.38 
			5313.915,1743.302 		"/>
		
			<rect x="7247.145" y="717.954" fill="none" stroke="#000000" stroke-width="0.7087" stroke-linecap="round" stroke-linejoin="round" stroke-miterlimit="10" width="119.055" height="34.016"/>
		
			<rect x="6758.167" y="717.954" fill="none" stroke="#000000" stroke-width="0.7087" stroke-linecap="round" stroke-linejoin="round" stroke-miterlimit="10" width="119.056" height="34.016"/>
		
			<rect x="6269.191" y="717.954" fill="none" stroke="#000000" stroke-width="0.7087" stroke-linecap="round" stroke-linejoin="round" stroke-miterlimit="10" width="119.055" height="34.016"/>
		
			<rect x="5780.215" y="717.954" fill="none" stroke="#000000" stroke-width="0.7087" stroke-linecap="round" stroke-linejoin="round" stroke-miterlimit="10" width="119.055" height="34.016"/>
	</g>
	<g>
		
			<rect x="9061.752" y="2119.144" fill="none" stroke="#000000" stroke-width="0.7087" stroke-linecap="round" stroke-linejoin="round" stroke-miterlimit="10" width="34.016" height="70.867"/>
		
			<rect x="8984.148" y="4906.876" fill="none" stroke="#000000" stroke-width="0.7087" stroke-linecap="round" stroke-linejoin="round" stroke-miterlimit="10" width="102.047" height="34.018"/>
		
			<polygon fill="none" stroke="#000000" stroke-width="0.7087" stroke-linecap="round" stroke-linejoin="round" stroke-miterlimit="10" points="
			7900.342,2168.687 7934.357,2168.687 7934.357,2296.245 7900.342,2296.245 7900.342,2360.024 7934.357,2360.024 
			7934.357,2487.585 7900.342,2487.585 7900.342,2657.663 7934.357,2657.663 7934.357,2785.222 7900.342,2785.222 
			7900.342,2849.001 7934.357,2849.001 7934.357,2976.562 7900.342,2976.562 7900.342,3146.64 7934.357,3146.64 7934.357,3274.198 
			7900.342,3274.198 7900.342,3337.978 7934.357,3337.978 7934.357,3465.536 7900.342,3465.536 7900.342,3635.616 
			7934.357,3635.616 7934.357,3763.175 7900.342,3763.175 7900.342,3826.954 7934.357,3826.954 7934.357,3954.513 
			7900.342,3954.513 7900.342,4124.593 7934.357,4124.593 7934.357,4252.151 7900.342,4252.151 7900.342,4315.931 
			7934.357,4315.931 7934.357,4443.489 7900.342,4443.489 7900.342,4613.569 7934.357,4613.569 7934.357,4741.128 
			7900.342,4741.128 7900.342,4804.907 7934.357,4804.907 7934.357,4906.876 7900.342,4906.876 7900.342,4979.94 7866.326,4979.94 
			7866.326,4906.876 7832.311,4906.876 7832.311,5052.999 8115.775,5052.999 8115.775,5024.653 8955.801,5024.653 
			8955.801,5052.999 9175.932,5052.999 9175.932,4962.175 9123.826,4822.501 8237.875,4613.569 8112.512,3550.698 
			8237.875,2507.804 9123.826,2271.647 9175.932,2119.144 9175.932,2042.608 8942.303,2042.608 8942.303,2076.624 8814.59,2076.624 
			8814.59,2042.608 8750.811,2042.608 8750.811,2076.624 8623.25,2076.624 8623.25,2042.608 8453.252,2042.608 8453.252,2076.624 
			8325.539,2076.624 8325.539,2042.608 8261.758,2042.608 8261.758,2076.624 8134.199,2076.624 8134.199,2042.608 8070.42,2042.608 
			8070.42,2076.624 7900.342,2076.624 		"/>
		
			<rect x="7985.381" y="4906.876" fill="none" stroke="#000000" stroke-width="0.7087" stroke-linecap="round" stroke-linejoin="round" stroke-miterlimit="10" width="102.047" height="34.018"/>
	</g>
	<g>
		
			<line fill="none" stroke="#000000" stroke-width="0.7087" stroke-linecap="round" stroke-linejoin="round" stroke-miterlimit="10" x1="3869.06" y1="2187.884" x2="3869.06" y2="2117.019"/>
		
			<line fill="none" stroke="#000000" stroke-width="0.7087" stroke-linecap="round" stroke-linejoin="round" stroke-miterlimit="10" x1="3903.075" y1="2187.884" x2="3869.06" y2="2187.884"/>
		
			<line fill="none" stroke="#000000" stroke-width="0.7087" stroke-linecap="round" stroke-linejoin="round" stroke-miterlimit="10" x1="3903.075" y1="2117.019" x2="3903.075" y2="2187.884"/>
		
			<line fill="none" stroke="#000000" stroke-width="0.7087" stroke-linecap="round" stroke-linejoin="round" stroke-miterlimit="10" x1="3869.06" y1="2117.019" x2="3903.075" y2="2117.019"/>
		
			<line fill="none" stroke="#000000" stroke-width="0.7087" stroke-linecap="round" stroke-linejoin="round" stroke-miterlimit="10" x1="3878.635" y1="4938.767" x2="3878.635" y2="4904.751"/>
		
			<line fill="none" stroke="#000000" stroke-width="0.7087" stroke-linecap="round" stroke-linejoin="round" stroke-miterlimit="10" x1="3980.683" y1="4938.767" x2="3878.635" y2="4938.767"/>
		
			<line fill="none" stroke="#000000" stroke-width="0.7087" stroke-linecap="round" stroke-linejoin="round" stroke-miterlimit="10" x1="3980.683" y1="4904.751" x2="3980.683" y2="4938.767"/>
		
			<line fill="none" stroke="#000000" stroke-width="0.7087" stroke-linecap="round" stroke-linejoin="round" stroke-miterlimit="10" x1="3878.635" y1="4904.751" x2="3980.683" y2="4904.751"/>
		
			<line fill="none" stroke="#000000" stroke-width="0.7087" stroke-linecap="round" stroke-linejoin="round" stroke-miterlimit="10" x1="4979.449" y1="4904.751" x2="4979.449" y2="4938.767"/>
		
			<line fill="none" stroke="#000000" stroke-width="0.7087" stroke-linecap="round" stroke-linejoin="round" stroke-miterlimit="10" x1="4877.402" y1="4904.751" x2="4979.449" y2="4904.751"/>
		
			<line fill="none" stroke="#000000" stroke-width="0.7087" stroke-linecap="round" stroke-linejoin="round" stroke-miterlimit="10" x1="4877.402" y1="4938.767" x2="4877.402" y2="4904.751"/>
		
			<line fill="none" stroke="#000000" stroke-width="0.7087" stroke-linecap="round" stroke-linejoin="round" stroke-miterlimit="10" x1="4979.449" y1="4938.767" x2="4877.402" y2="4938.767"/>
		
			<polygon fill="none" stroke="#000000" stroke-width="0.7087" stroke-linecap="round" stroke-linejoin="round" stroke-miterlimit="10" points="
			4894.41,2074.499 4894.41,2040.483 4830.631,2040.483 4830.631,2074.499 4703.068,2074.499 4703.068,2040.483 4639.289,2040.483 
			4639.289,2074.499 4511.578,2074.499 4511.578,2040.483 4341.579,2040.483 4341.579,2074.499 4214.021,2074.499 
			4214.021,2040.483 4150.24,2040.483 4150.24,2074.499 4022.526,2074.499 4022.526,2040.483 3788.896,2040.483 3788.896,2117.019 
			3841.004,2269.519 4726.955,2505.681 4852.316,3548.575 4726.955,4611.44 3841.004,4820.376 3788.896,4960.048 3788.896,5050.874 
			4009.029,5050.874 4009.029,5022.526 4849.056,5022.526 4849.056,5050.874 5132.521,5050.874 5132.521,4904.751 
			5098.505,4904.751 5098.505,4977.815 5064.488,4977.815 5064.488,4904.751 5030.473,4904.751 5030.473,4802.78 5064.488,4802.78 
			5064.488,4738.999 5030.473,4738.999 5030.473,4611.44 5064.488,4611.44 5064.488,4441.36 5030.473,4441.36 5030.473,4313.802 
			5064.488,4313.802 5064.488,4250.022 5030.473,4250.022 5030.473,4122.464 5064.488,4122.464 5064.488,3952.384 
			5030.473,3952.384 5030.473,3824.825 5064.488,3824.825 5064.488,3761.046 5030.473,3761.046 5030.473,3633.487 
			5064.488,3633.487 5064.488,3463.409 5030.473,3463.409 5030.473,3335.849 5064.488,3335.849 5064.488,3272.069 
			5030.473,3272.069 5030.473,3144.511 5064.488,3144.511 5064.488,2974.433 5030.473,2974.433 5030.473,2846.872 
			5064.488,2846.872 5064.488,2783.093 5030.473,2783.093 5030.473,2655.534 5064.488,2655.534 5064.488,2485.456 
			5030.473,2485.456 5030.473,2357.896 5064.488,2357.896 5064.488,2294.116 5030.473,2294.116 5030.473,2166.558 
			5064.488,2166.558 5064.488,2074.499 		"/>
	</g>
	<g>
		
			<rect x="9034.633" y="5322.495" fill="none" stroke="#000000" stroke-width="0.7087" stroke-linecap="round" stroke-linejoin="round" stroke-miterlimit="10" width="34.016" height="34.016"/>
		
			<polygon fill="none" stroke="#000000" stroke-width="0.7087" stroke-linecap="round" stroke-linejoin="round" stroke-miterlimit="10" points="
			9102.664,5322.495 9159.459,5322.495 9112.24,5379.188 8051.363,5421.708 8015.168,5550.739 7950.83,5585.026 7950.83,5478.401 
			7848.781,5478.401 7848.781,5379.188 7950.83,5379.188 7950.83,5322.495 8001.854,5322.495 8001.854,5288.479 8035.869,5288.479 
			8035.869,5254.464 8001.854,5254.464 8001.854,5220.448 8103.9,5220.448 8103.9,5254.464 8069.885,5254.464 8069.885,5288.479 
			8103.9,5288.479 8103.9,5322.495 9000.617,5322.495 9000.617,5288.479 9034.633,5288.479 9034.633,5254.464 9000.617,5254.464 
			9000.617,5220.448 9102.664,5220.448 9102.664,5254.464 9068.648,5254.464 9068.648,5288.479 9102.664,5288.479 		"/>
		
			<rect x="7883.795" y="5414.622" fill="none" stroke="#000000" stroke-width="0.7087" stroke-linecap="round" stroke-linejoin="round" stroke-miterlimit="10" width="33.02" height="28.346"/>
	</g>
	<g>
		
			<rect x="3896.18" y="5322.495" fill="none" stroke="#000000" stroke-width="0.7087" stroke-linecap="round" stroke-linejoin="round" stroke-miterlimit="10" width="34.017" height="34.016"/>
		
			<polygon fill="none" stroke="#000000" stroke-width="0.7087" stroke-linecap="round" stroke-linejoin="round" stroke-miterlimit="10" points="
			3862.164,5322.495 3805.369,5322.495 3852.589,5379.188 4913.464,5421.708 4949.661,5550.739 5013.999,5585.026 
			5013.999,5478.401 5116.047,5478.401 5116.047,5379.188 5013.999,5379.188 5013.999,5322.495 4962.976,5322.495 
			4962.976,5288.479 4928.96,5288.479 4928.96,5254.464 4962.976,5254.464 4962.976,5220.448 4860.929,5220.448 4860.929,5254.464 
			4894.944,5254.464 4894.944,5288.479 4860.929,5288.479 4860.929,5322.495 3964.212,5322.495 3964.212,5288.479 
			3930.196,5288.479 3930.196,5254.464 3964.212,5254.464 3964.212,5220.448 3862.164,5220.448 3862.164,5254.464 3896.18,5254.464 
			3896.18,5288.479 3862.164,5288.479 		"/>
		
			<rect x="5048.015" y="5414.622" fill="none" stroke="#000000" stroke-width="0.7087" stroke-linecap="round" stroke-linejoin="round" stroke-miterlimit="10" width="33.02" height="28.346"/>
	</g>
	<g>
		
			<polygon fill="none" stroke="#000000" stroke-width="0.7087" stroke-linecap="round" stroke-linejoin="round" stroke-miterlimit="10" points="
			7056.584,5400.587 7056.584,5327.526 7090.6,5327.526 7090.6,5400.587 7124.615,5400.587 7124.615,5220.448 7022.568,5220.448 
			7022.568,5400.587 		"/>
		
			<polygon fill="none" stroke="#000000" stroke-width="0.7087" stroke-linecap="round" stroke-linejoin="round" stroke-miterlimit="10" points="
			7228.225,5400.587 7228.225,5327.526 7262.24,5327.526 7262.24,5400.587 7296.256,5400.587 7296.256,5220.448 7194.209,5220.448 
			7194.209,5400.587 		"/>
		
			<polygon fill="none" stroke="#000000" stroke-width="0.7087" stroke-linecap="round" stroke-linejoin="round" stroke-miterlimit="10" points="
			6266.414,5220.448 6164.367,5220.448 6164.367,5254.464 6198.383,5254.464 6198.383,5400.589 6232.398,5400.589 
			6232.398,5254.464 6266.414,5254.464 		"/>
		
			<polygon fill="none" stroke="#000000" stroke-width="0.7087" stroke-linecap="round" stroke-linejoin="round" stroke-miterlimit="10" points="
			6094.774,5220.448 5992.728,5220.448 5992.728,5254.464 6026.743,5254.464 6026.743,5400.587 6060.759,5400.587 
			6060.759,5254.464 6094.774,5254.464 		"/>
		
			<polygon fill="none" stroke="#000000" stroke-width="0.7087" stroke-linecap="round" stroke-linejoin="round" stroke-miterlimit="10" points="
			6884.943,5400.589 6884.943,5254.468 6918.959,5254.468 6918.959,5400.589 6952.975,5400.589 6952.975,5220.452 
			6850.928,5220.452 6850.928,5400.589 		"/>
		
			<polygon fill="none" stroke="#000000" stroke-width="0.7087" stroke-linecap="round" stroke-linejoin="round" stroke-miterlimit="10" points="
			6713.303,5400.589 6713.303,5254.464 6747.318,5254.464 6747.318,5400.589 6781.335,5400.589 6781.335,5220.448 
			6679.287,5220.448 6679.287,5400.589 		"/>
		
			<polygon fill="none" stroke="#000000" stroke-width="0.7087" stroke-linecap="round" stroke-linejoin="round" stroke-miterlimit="10" points="
			6541.663,5400.589 6541.663,5254.468 6575.679,5254.468 6575.679,5400.589 6609.694,5400.589 6609.694,5220.452 
			6507.647,5220.452 6507.647,5400.589 		"/>
		
			<polygon fill="none" stroke="#000000" stroke-width="0.7087" stroke-linecap="round" stroke-linejoin="round" stroke-miterlimit="10" points="
			6370.023,5400.589 6370.023,5254.464 6404.039,5254.464 6404.039,5400.589 6438.055,5400.589 6438.055,5220.448 
			6336.007,5220.448 6336.007,5400.589 		"/>
		
			<polygon fill="none" stroke="#000000" stroke-width="0.7087" stroke-linecap="round" stroke-linejoin="round" stroke-miterlimit="10" points="
			5921.716,5220.452 5822.503,5220.452 5822.503,5254.468 5857.937,5254.468 5857.937,5294.151 5886.282,5294.151 
			5886.282,5254.468 5921.716,5254.468 		"/>
		
			<polygon fill="none" stroke="#000000" stroke-width="0.7087" stroke-linecap="round" stroke-linejoin="round" stroke-miterlimit="10" points="
			5750.076,5220.452 5650.863,5220.452 5650.863,5254.468 5686.296,5254.468 5686.296,5294.151 5714.643,5294.151 
			5714.643,5254.468 5750.076,5254.468 		"/>
	</g>
</g>
</svg>
