<?xml version="1.0" standalone="no"?>
<!DOCTYPE svg PUBLIC "-//W3C//DTD SVG 1.1//EN" "http://www.w3.org/Graphics/SVG/1.1/DTD/svg11.dtd">
<svg width="100%" height="100%" version="1.1" xmlns="http://www.w3.org/2000/svg">
<desc>Magic box - output file</desc>
<g transform='scale(2.83464567)'>
<path id="details" x="0" y="0" d="m 0 0 " stroke="#000000" stroke-width="1" stroke-opacity="1" fill="none" visibility="visible" transform=""/>
<path id="boxes" x="0" y="0" d="m 0 0 " stroke="#000000" stroke-width="1" stroke-opacity="1" fill="#ffffff" fill-opacity="0.7" visibility="visible" transform=""/>
<path id="right" x="0" y="0" d="m 0 0 M 494.9335182628069 -285.25 L 494.9335182628069 -285.25 L 1.2652631149290654 -0.23050000000000004 L 1.3025022072917962 -27.691 L 22.45690474553429 -99.1015 L 371.3993245399756 -372.62850000000003 L 414.99504336648425 -608.9665 L 371.3993245399756 -814.0245 L 28.39783901549554 -684.9354999999999 L -0.4330127018922195 -725.54 L -0.4330127018922195 -749.42 L 65.38491798572515 -787.281 L 65.38491798572515 -777.652 L 430.8476383827584 -988.787 L 430.8476383827584 -998.42 L 494.1454351453631 -1034.88 L 494.9335182628069 -285.25 " stroke="#000000" stroke-width="1" stroke-opacity="1" fill="#ffffff" fill-opacity="0.7" visibility="visible" transform=""/>
<path id="front" x="0" y="0" d="m 0 0 M -1385.6475742583327 -1376.283 L -1385.6475742583327 -1376.283 L -1385.6475742583327 -800 L -606.2160505982998 -349.995 L -606.2160505982998 -349.999 L 0 0 L 0 -563.092 L 24.441834971008223 -606.7205 L 24.441834971008223 -735.8905 L -26.523760041706012 -765.3154999999999 L -30.46763973054035 -741.5965 L -571.399231289954 -1053.9035 L -577.1505059964865 -1083.22 L -606.22297880153 -1100.0049999999999 L -606.22297880153 -1100.003 L -644.1557575126923 -1121.9035 L -644.2397619768593 -1076.341 L -658.9318829520623 -565.4815 L -866.6818510405077 -583.119 L -1273.0166403691476 -860.0504999999999 L -1318.818125899095 -1511.42 L -1410.0876771785333 -1564.1145000000001 L -1410.0876771785333 -1478.8605 L -1385.6475742583327 -1376.283   " stroke="#000000" stroke-width="1" stroke-opacity="1" fill="#ffffff" fill-opacity="0.7" visibility="visible" transform=""/>
<path id="top" x="0" y="0" d="m 0 0 M 0 -750 L 0 -750 L -1385.6406460551025 -1550 L -892.0061658979722 -1835 L 493.63448015713027 -1035 L 0 -750 " stroke="#000000" stroke-width="1" stroke-opacity="1" fill="#ffffff" fill-opacity="0.7" visibility="visible" transform=""/>
</g></svg>