<?xml version="1.0" standalone="no"?>
<!DOCTYPE svg PUBLIC "-//W3C//DTD SVG 1.1//EN" "http://www.w3.org/Graphics/SVG/1.1/DTD/svg11.dtd">
<svg width="100%" height="100%" version="1.1" xmlns="http://www.w3.org/2000/svg">
<desc>Magic box - output file</desc>
<g transform='scale(2.83464567)'>
<g id="import_layer" visibility="visible" transform="">
  <polygon id="import_layer" visibility="visible" fill="none" stroke="#000000" stroke-width="0.4252" stroke-linecap="null" stroke-linejoin="null" stroke-miterlimit="10" points="&#xD;&#xA;&#x9;&#x9;792.454,-518.254 792.454,-530.253 837.451,-530.253 837.451,-518.254 859.951,-518.254 859.951,-530.253 904.949,-530.253 &#xD;&#xA;&#x9;&#x9;904.949,-518.254 964.946,-518.254 964.946,-530.253 1003.694,-530.253 1003.694,-503.254 1015.694,-503.254 1015.694,-478.255 &#xD;&#xA;&#x9;&#x9;1003.694,-478.255 1003.694,-468.256 3.738,-468.256 3.738,-478.255 -8.261,-478.255 -8.261,-503.254 3.738,-503.254 &#xD;&#xA;&#x9;&#x9;3.738,-530.253 42.486,-530.253 42.486,-518.254 102.484,-518.254 102.484,-530.253 147.482,-530.253 147.482,-518.254 &#xD;&#xA;&#x9;&#x9;169.981,-518.254 169.981,-530.253 214.979,-530.253 214.979,-518.254 274.977,-518.254 274.977,-530.253 319.975,-530.253 &#xD;&#xA;&#x9;&#x9;319.975,-518.254 342.474,-518.254 342.474,-530.253 387.472,-530.253 387.472,-518.254 447.469,-518.254 447.469,-530.253 &#xD;&#xA;&#x9;&#x9;492.467,-530.253 492.467,-518.254 514.966,-518.254 514.966,-530.253 559.964,-530.253 559.964,-518.254 619.961,-518.254 &#xD;&#xA;&#x9;&#x9;619.961,-530.253 664.959,-530.253 664.959,-518.254 687.458,-518.254 687.458,-530.253 732.456,-530.253 732.456,-518.254 &#x9;" transform=""/>
  <g id="import_layer" visibility="visible" transform="">
    <rect id="import_layer" visibility="visible" x="101.613" y="-407.882" fill="none" stroke="#000000" stroke-width="0.4252" stroke-linecap="null" stroke-linejoin="null" stroke-miterlimit="10" width="44.998" height="12" transform=""/>
    <rect id="import_layer" visibility="visible" x="169.11" y="-407.882" fill="none" stroke="#000000" stroke-width="0.4252" stroke-linecap="null" stroke-linejoin="null" stroke-miterlimit="10" width="44.998" height="12" transform=""/>
    <rect id="import_layer" visibility="visible" x="274.105" y="-407.882" fill="none" stroke="#000000" stroke-width="0.4252" stroke-linecap="null" stroke-linejoin="null" stroke-miterlimit="10" width="44.998" height="12" transform=""/>
    <rect id="import_layer" visibility="visible" x="341.603" y="-407.882" fill="none" stroke="#000000" stroke-width="0.4252" stroke-linecap="null" stroke-linejoin="null" stroke-miterlimit="10" width="44.998" height="12" transform=""/>
    <rect id="import_layer" visibility="visible" x="446.598" y="-407.882" fill="none" stroke="#000000" stroke-width="0.4252" stroke-linecap="null" stroke-linejoin="null" stroke-miterlimit="10" width="44.998" height="12" transform=""/>
    <rect id="import_layer" visibility="visible" x="514.095" y="-407.882" fill="none" stroke="#000000" stroke-width="0.4252" stroke-linecap="null" stroke-linejoin="null" stroke-miterlimit="10" width="44.998" height="12" transform=""/>
    <rect id="import_layer" visibility="visible" x="619.091" y="-407.882" fill="none" stroke="#000000" stroke-width="0.4252" stroke-linecap="null" stroke-linejoin="null" stroke-miterlimit="10" width="44.998" height="12" transform=""/>
    <rect id="import_layer" visibility="visible" x="686.588" y="-407.882" fill="none" stroke="#000000" stroke-width="0.4252" stroke-linecap="null" stroke-linejoin="null" stroke-miterlimit="10" width="44.998" height="12" transform=""/>
    <rect id="import_layer" visibility="visible" x="791.583" y="-407.882" fill="none" stroke="#000000" stroke-width="0.4252" stroke-linecap="null" stroke-linejoin="null" stroke-miterlimit="10" width="44.998" height="12" transform=""/>
    <rect id="import_layer" visibility="visible" x="859.08" y="-407.882" fill="none" stroke="#000000" stroke-width="0.4252" stroke-linecap="null" stroke-linejoin="null" stroke-miterlimit="10" width="44.998" height="12" transform=""/>
    <polygon id="import_layer" visibility="visible" fill="none" stroke="#000000" stroke-width="0.4252" stroke-linecap="null" stroke-linejoin="null" stroke-miterlimit="10" points="&#xD;&#xA;&#x9;&#x9;&#x9;2.867,-407.882 41.616,-407.882 41.616,-395.882 2.867,-395.882 2.867,-385.716 -9.132,-385.716 -9.132,-340.663 2.867,-340.663 &#xD;&#xA;&#x9;&#x9;&#x9;2.867,-318.164 -9.132,-318.164 -9.132,-273.166 2.867,-273.166 2.867,-213.197 -9.132,-213.197 -9.132,-168.145 2.867,-168.145 &#xD;&#xA;&#x9;&#x9;&#x9;2.867,-145.646 -9.132,-145.646 -9.132,-100.647 2.867,-100.647 2.867,-78.148 -9.132,-78.148 -9.132,-37.903 41.616,-37.903 &#xD;&#xA;&#x9;&#x9;&#x9;41.616,-49.902 101.613,-49.902 101.613,-37.903 146.611,-37.903 146.611,-49.902 169.11,-49.902 169.11,-37.903 214.108,-37.903 &#xD;&#xA;&#x9;&#x9;&#x9;214.108,-49.902 274.105,-49.902 274.105,-37.903 319.104,-37.903 319.104,-49.902 341.603,-49.902 341.603,-37.903 &#xD;&#xA;&#x9;&#x9;&#x9;386.601,-37.903 386.601,-49.902 446.598,-49.902 446.598,-37.903 491.596,-37.903 491.596,-49.902 514.095,-49.902 &#xD;&#xA;&#x9;&#x9;&#x9;514.095,-37.903 559.093,-37.903 559.093,-49.902 619.091,-49.902 619.091,-37.903 664.088,-37.903 664.088,-49.902 &#xD;&#xA;&#x9;&#x9;&#x9;686.588,-49.902 686.588,-37.903 731.585,-37.903 731.585,-49.902 791.583,-49.902 791.583,-37.903 836.581,-37.903 &#xD;&#xA;&#x9;&#x9;&#x9;836.581,-49.902 859.08,-49.902 859.08,-37.903 904.078,-37.903 904.078,-49.902 964.075,-49.902 964.075,-37.903 &#xD;&#xA;&#x9;&#x9;&#x9;1014.823,-37.903 1014.823,-78.148 1002.824,-78.148 1002.824,-100.647 1014.823,-100.647 1014.823,-145.646 1002.824,-145.646 &#xD;&#xA;&#x9;&#x9;&#x9;1002.824,-168.145 1014.823,-168.145 1014.823,-213.197 1002.824,-213.197 1002.824,-273.166 1014.823,-273.166 &#xD;&#xA;&#x9;&#x9;&#x9;1014.823,-318.164 1002.824,-318.164 1002.824,-340.663 1014.823,-340.663 1014.823,-385.716 1002.824,-385.716 &#xD;&#xA;&#x9;&#x9;&#x9;1002.824,-395.882 964.075,-395.882 964.075,-407.882 1002.824,-407.882 1002.824,-437.88 2.867,-437.88 &#x9;&#x9;" transform=""/>
  </g>
</g>
<g id="import_layer" visibility="visible" transform="">
  <polygon id="import_layer" visibility="visible" fill="none" stroke="#000000" stroke-width="0.7087" stroke-linecap="null" stroke-linejoin="null" stroke-miterlimit="10" points="&#xD;&#xA;&#x9;&#x9;679.37,564.808 679.37,539.033 691.37,539.033 691.37,564.808 703.37,564.808 703.37,501.258 667.37,501.258 667.37,564.808 &#x9;" transform=""/>
  <polygon id="import_layer" visibility="visible" fill="none" stroke="#000000" stroke-width="0.7087" stroke-linecap="null" stroke-linejoin="null" stroke-miterlimit="10" points="&#xD;&#xA;&#x9;&#x9;739.922,564.808 739.922,539.033 751.922,539.033 751.922,564.808 763.922,564.808 763.922,501.258 727.922,501.258 &#xD;&#xA;&#x9;&#x9;727.922,564.808 &#x9;" transform=""/>
  <polygon id="import_layer" visibility="visible" fill="none" stroke="#000000" stroke-width="0.7087" stroke-linecap="null" stroke-linejoin="null" stroke-miterlimit="10" points="&#xD;&#xA;&#x9;&#x9;400.614,501.258 364.614,501.258 364.614,513.258 376.614,513.258 376.614,564.808 388.614,564.808 388.614,513.258 &#xD;&#xA;&#x9;&#x9;400.614,513.258 &#x9;" transform=""/>
  <polygon id="import_layer" visibility="visible" fill="none" stroke="#000000" stroke-width="0.7087" stroke-linecap="null" stroke-linejoin="null" stroke-miterlimit="10" points="&#xD;&#xA;&#x9;&#x9;340.063,501.258 304.063,501.258 304.063,513.258 316.063,513.258 316.063,564.808 328.063,564.808 328.063,513.258 &#xD;&#xA;&#x9;&#x9;340.063,513.258 &#x9;" transform=""/>
  <polygon id="import_layer" visibility="visible" fill="none" stroke="#000000" stroke-width="0.7087" stroke-linecap="null" stroke-linejoin="null" stroke-miterlimit="10" points="&#xD;&#xA;&#x9;&#x9;618.819,564.808 618.819,513.26 630.819,513.26 630.819,564.808 642.819,564.808 642.819,501.26 606.819,501.26 606.819,564.808 &#x9;&#xD;&#xA;&#x9;&#x9;" transform=""/>
  <polygon id="import_layer" visibility="visible" fill="none" stroke="#000000" stroke-width="0.7087" stroke-linecap="null" stroke-linejoin="null" stroke-miterlimit="10" points="&#xD;&#xA;&#x9;&#x9;558.268,564.808 558.268,513.258 570.268,513.258 570.268,564.808 582.268,564.808 582.268,501.258 546.268,501.258 &#xD;&#xA;&#x9;&#x9;546.268,564.808 &#x9;" transform=""/>
  <polygon id="import_layer" visibility="visible" fill="none" stroke="#000000" stroke-width="0.7087" stroke-linecap="null" stroke-linejoin="null" stroke-miterlimit="10" points="&#xD;&#xA;&#x9;&#x9;497.717,564.808 497.717,513.26 509.717,513.26 509.717,564.808 521.717,564.808 521.717,501.26 485.716,501.26 485.716,564.808 &#x9;&#xD;&#xA;&#x9;&#x9;" transform=""/>
  <polygon id="import_layer" visibility="visible" fill="none" stroke="#000000" stroke-width="0.7087" stroke-linecap="null" stroke-linejoin="null" stroke-miterlimit="10" points="&#xD;&#xA;&#x9;&#x9;437.166,564.808 437.166,513.258 449.166,513.258 449.166,564.808 461.166,564.808 461.166,501.258 425.165,501.258 &#xD;&#xA;&#x9;&#x9;425.165,564.808 &#x9;" transform=""/>
  <polygon id="import_layer" visibility="visible" fill="none" stroke="#000000" stroke-width="0.7087" stroke-linecap="null" stroke-linejoin="null" stroke-miterlimit="10" points="&#xD;&#xA;&#x9;&#x9;279.012,501.26 244.011,501.26 244.011,513.26 256.511,513.26 256.511,527.259 266.511,527.259 266.511,513.26 279.012,513.26 &#x9;" transform=""/>
  <polygon id="import_layer" visibility="visible" fill="none" stroke="#000000" stroke-width="0.7087" stroke-linecap="null" stroke-linejoin="null" stroke-miterlimit="10" points="&#xD;&#xA;&#x9;&#x9;218.46,501.26 183.46,501.26 183.46,513.26 195.96,513.26 195.96,527.259 205.96,527.259 205.96,513.26 218.46,513.26 &#x9;" transform=""/>
</g>
<g id="import_layer" visibility="visible" transform="">
  <g id="import_layer" visibility="visible" transform="">
    <rect id="import_layer" visibility="visible" x="1593.557" y="516.659" fill="none" stroke="#000000" stroke-width="0.4252" stroke-linecap="null" stroke-linejoin="null" stroke-miterlimit="10" width="12" height="11.999" transform=""/>
    <rect id="import_layer" visibility="visible" x="1947.537" y="551.657" fill="none" stroke="#000000" stroke-width="0.4252" stroke-linecap="null" stroke-linejoin="null" stroke-miterlimit="10" width="11.647" height="10" transform=""/>
    <polygon id="import_layer" visibility="visible" fill="none" stroke="#000000" stroke-width="0.4252" stroke-linecap="null" stroke-linejoin="null" stroke-miterlimit="10" points="&#xD;&#xA;&#x9;&#x9;&#x9;1593.557,504.659 1593.557,492.659 1581.558,492.659 1581.558,480.66 1617.556,480.66 1617.556,492.659 1605.557,492.659 &#xD;&#xA;&#x9;&#x9;&#x9;1605.557,504.659 1617.556,504.659 1617.556,516.659 1881.54,516.659 1881.54,504.659 1893.539,504.659 1893.539,492.659 &#xD;&#xA;&#x9;&#x9;&#x9;1881.54,492.659 1881.54,480.66 1917.538,480.66 1917.538,492.659 1905.539,492.659 1905.539,504.659 1917.538,504.659 &#xD;&#xA;&#x9;&#x9;&#x9;1917.538,521.659 1935.538,521.659 1935.538,541.658 1971.536,541.658 1971.536,571.657 1935.538,571.657 1935.538,585.405 &#xD;&#xA;&#x9;&#x9;&#x9;1908.589,575.157 1900.073,551.657 1579.988,538.828 1561.523,516.659 1581.558,516.659 1581.558,504.659 &#x9;&#x9;" transform=""/>
  </g>
  <g id="import_layer" visibility="visible" transform="">
    <rect id="import_layer" visibility="visible" x="1577.559" y="15.045" fill="none" stroke="#000000" stroke-width="0.4252" stroke-linecap="null" stroke-linejoin="null" stroke-miterlimit="10" width="12" height="24.999" transform=""/>
    <rect id="import_layer" visibility="visible" x="1581.559" y="388.566" fill="none" stroke="#000000" stroke-width="0.4252" stroke-linecap="null" stroke-linejoin="null" stroke-miterlimit="10" width="35.998" height="12" transform=""/>
    <polygon id="import_layer" visibility="visible" fill="none" stroke="#000000" stroke-width="0.4252" stroke-linecap="null" stroke-linejoin="null" stroke-miterlimit="10" points="&#xD;&#xA;&#x9;&#x9;&#x9;1947.537,10.408 1935.538,10.408 1935.538,55.406 1947.537,55.406 1947.537,110.404 1935.538,110.404 1935.538,155.402 &#xD;&#xA;&#x9;&#x9;&#x9;1947.537,155.402 1947.537,177.901 1935.538,177.901 1935.538,222.899 1947.537,222.899 1947.537,277.896 1935.538,277.896 &#xD;&#xA;&#x9;&#x9;&#x9;1935.538,330.006 1947.537,330.006 1947.537,352.506 1935.538,352.506 1935.538,388.566 1947.53,388.566 1947.53,413.251 &#xD;&#xA;&#x9;&#x9;&#x9;1959.529,413.251 1959.529,388.566 1971.536,388.566 1971.536,437.936 1871.54,437.936 1871.54,427.937 1627.557,427.937 &#xD;&#xA;&#x9;&#x9;&#x9;1627.557,437.936 1547.56,437.936 1547.56,421.249 1577.559,375.185 1851.604,339.731 1881.54,200.888 1851.604,99.352 &#xD;&#xA;&#x9;&#x9;&#x9;1566.5,67.114 1547.56,17.045 1547.56,-11.954 1599.725,-11.954 1599.725,0.046 1644.777,0.046 1644.777,-11.954 &#xD;&#xA;&#x9;&#x9;&#x9;1667.276,-11.954 1667.276,0.046 1712.274,0.046 1712.274,-11.954 1772.243,-11.954 1772.243,0.046 1817.296,0.046 &#xD;&#xA;&#x9;&#x9;&#x9;1817.296,-11.954 1839.795,-11.954 1839.795,0.046 1884.792,0.046 1884.792,-11.954 1907.292,-11.954 1907.292,0.046 &#xD;&#xA;&#x9;&#x9;&#x9;1947.537,0.046 &#x9;&#x9;" transform=""/>
    <rect id="import_layer" visibility="visible" x="1881.54" y="388.566" fill="none" stroke="#000000" stroke-width="0.4252" stroke-linecap="null" stroke-linejoin="null" stroke-miterlimit="10" width="35.999" height="12" transform=""/>
  </g>
</g>
<g id="import_layer" visibility="visible" transform="">
  <g id="import_layer" visibility="visible" transform="">
    <rect id="import_layer" visibility="visible" x="1460.407" y="516.659" fill="none" stroke="#000000" stroke-width="0.4252" stroke-linecap="null" stroke-linejoin="null" stroke-miterlimit="10" width="12" height="11.999" transform=""/>
    <rect id="import_layer" visibility="visible" x="1106.779" y="551.657" fill="none" stroke="#000000" stroke-width="0.4252" stroke-linecap="null" stroke-linejoin="null" stroke-miterlimit="10" width="11.647" height="10" transform=""/>
    <polygon id="import_layer" visibility="visible" fill="none" stroke="#000000" stroke-width="0.4252" stroke-linecap="null" stroke-linejoin="null" stroke-miterlimit="10" points="&#xD;&#xA;&#x9;&#x9;&#x9;1472.406,504.659 1472.406,492.659 1484.406,492.659 1484.406,480.66 1448.407,480.66 1448.407,492.659 1460.407,492.659 &#xD;&#xA;&#x9;&#x9;&#x9;1460.407,504.659 1448.407,504.659 1448.407,516.659 1184.424,516.659 1184.424,504.659 1172.424,504.659 1172.424,492.659 &#xD;&#xA;&#x9;&#x9;&#x9;1184.424,492.659 1184.424,480.66 1148.425,480.66 1148.425,492.659 1160.425,492.659 1160.425,504.659 1148.425,504.659 &#xD;&#xA;&#x9;&#x9;&#x9;1148.425,521.659 1130.426,521.659 1130.426,541.658 1094.428,541.658 1094.428,571.657 1130.426,571.657 1130.426,585.405 &#xD;&#xA;&#x9;&#x9;&#x9;1157.375,575.157 1165.891,551.657 1485.976,538.828 1504.44,516.659 1484.406,516.659 1484.406,504.659 &#x9;&#x9;" transform=""/>
  </g>
  <g id="import_layer" visibility="visible" transform="">
    <rect id="import_layer" visibility="visible" x="1476.405" y="15.045" fill="none" stroke="#000000" stroke-width="0.4252" stroke-linecap="null" stroke-linejoin="null" stroke-miterlimit="10" width="12" height="24.999" transform=""/>
    <rect id="import_layer" visibility="visible" x="1448.407" y="388.566" fill="none" stroke="#000000" stroke-width="0.4252" stroke-linecap="null" stroke-linejoin="null" stroke-miterlimit="10" width="35.999" height="12" transform=""/>
    <polygon id="import_layer" visibility="visible" fill="none" stroke="#000000" stroke-width="0.4252" stroke-linecap="null" stroke-linejoin="null" stroke-miterlimit="10" points="&#xD;&#xA;&#x9;&#x9;&#x9;1118.426,10.408 1130.426,10.408 1130.426,55.406 1118.426,55.406 1118.426,110.404 1130.426,110.404 1130.426,155.402 &#xD;&#xA;&#x9;&#x9;&#x9;1118.426,155.402 1118.426,177.901 1130.426,177.901 1130.426,222.899 1118.426,222.899 1118.426,277.896 1130.426,277.896 &#xD;&#xA;&#x9;&#x9;&#x9;1130.426,330.006 1118.426,330.006 1118.426,352.506 1130.426,352.506 1130.426,388.566 1118.434,388.566 1118.434,413.251 &#xD;&#xA;&#x9;&#x9;&#x9;1106.435,413.251 1106.435,388.566 1094.428,388.566 1094.428,437.936 1194.423,437.936 1194.423,427.937 1438.407,427.937 &#xD;&#xA;&#x9;&#x9;&#x9;1438.407,437.936 1518.403,437.936 1518.403,421.249 1488.405,375.185 1214.358,339.731 1184.423,200.888 1214.358,99.352 &#xD;&#xA;&#x9;&#x9;&#x9;1499.463,67.114 1518.403,17.045 1518.403,-11.954 1466.239,-11.954 1466.239,0.046 1421.187,0.046 1421.187,-11.954 &#xD;&#xA;&#x9;&#x9;&#x9;1398.688,-11.954 1398.688,0.046 1353.689,0.046 1353.689,-11.954 1293.721,-11.954 1293.721,0.046 1248.668,0.046 &#xD;&#xA;&#x9;&#x9;&#x9;1248.668,-11.954 1226.169,-11.954 1226.169,0.046 1181.171,0.046 1181.171,-11.954 1158.672,-11.954 1158.672,0.046 &#xD;&#xA;&#x9;&#x9;&#x9;1118.426,0.046 &#x9;&#x9;" transform=""/>
    <rect id="import_layer" visibility="visible" x="1148.425" y="388.566" fill="none" stroke="#000000" stroke-width="0.4252" stroke-linecap="null" stroke-linejoin="null" stroke-miterlimit="10" width="35.999" height="12" transform=""/>
  </g>
</g>
<g id="import_layer" visibility="visible" transform="">
  <rect id="import_layer" visibility="visible" x="25.021" y="399.472" fill="none" stroke="#000000" stroke-width="0.4252" stroke-linecap="null" stroke-linejoin="null" stroke-miterlimit="10" width="29.999" height="11.999" transform=""/>
  <rect id="import_layer" visibility="visible" x="-11.954" y="341" fill="none" stroke="#000000" stroke-width="0.4252" stroke-linecap="null" stroke-linejoin="null" stroke-miterlimit="10" width="12" height="22.499" transform=""/>
  <polygon id="import_layer" visibility="visible" fill="none" stroke="#000000" stroke-width="0.4252" stroke-linecap="null" stroke-linejoin="null" stroke-miterlimit="10" points="&#xD;&#xA;&#x9;&#x9;-12,110.358 -12,155.356 0,155.356 0,177.855 -12,177.855 -12,222.854 0,222.854 0,277.852 -12,277.852 -36.999,361.093 &#xD;&#xA;&#x9;&#x9;-36.999,437.981 -12,437.981 -12,388.517 0,388.517 0,437.981 63.807,437.981 79.911,376.423 368.76,297.987 916.737,340.452 &#xD;&#xA;&#x9;&#x9;927.434,437.981 999.956,437.981 999.956,388.517 1011.955,388.517 1011.955,437.981 1042.69,437.981 1042.69,386.435 &#xD;&#xA;&#x9;&#x9;1011.955,277.852 999.956,277.852 999.956,222.854 1011.955,222.854 1011.955,177.855 999.956,177.855 999.956,155.356 &#xD;&#xA;&#x9;&#x9;1011.955,155.356 1011.955,110.358 999.956,110.358 999.956,55.361 1011.955,55.361 1011.955,10.363 999.956,10.363 999.956,0 &#xD;&#xA;&#x9;&#x9;961.208,0 961.208,-11.999 901.21,-11.999 901.21,0 856.212,0 856.212,-11.999 833.713,-11.999 833.713,0 788.715,0 &#xD;&#xA;&#x9;&#x9;788.715,-11.999 728.718,-11.999 728.718,0 683.72,0 683.72,-11.999 661.221,-11.999 661.221,0 616.223,0 616.223,-11.999 &#xD;&#xA;&#x9;&#x9;556.225,-11.999 556.225,0 511.227,0 511.227,-11.999 488.728,-11.999 488.728,0 443.73,0 443.73,-11.999 383.733,-11.999 &#xD;&#xA;&#x9;&#x9;383.733,0 338.735,0 338.735,-11.999 316.236,-11.999 316.236,0 271.238,0 271.238,-11.999 211.24,-11.999 211.24,0 166.242,0 &#xD;&#xA;&#x9;&#x9;166.242,-11.999 143.743,-11.999 143.743,0 98.745,0 98.745,-11.999 38.748,-11.999 38.748,0 0,0 0,10.363 -12,10.363 -12,55.361 &#xD;&#xA;&#x9;&#x9;0,55.361 0,110.358 &#x9;" transform=""/>
  <polygon id="import_layer" visibility="visible" fill="none" stroke="#000000" stroke-width="0.4252" stroke-linecap="null" stroke-linejoin="null" stroke-miterlimit="10" points="&#xD;&#xA;&#x9;&#x9;1000.002,363.415 1000.002,340.916 1012.001,341 1012.001,363.5 &#x9;" transform=""/>
  <rect id="import_layer" visibility="visible" x="945.004" y="399.472" fill="none" stroke="#000000" stroke-width="0.4252" stroke-linecap="null" stroke-linejoin="null" stroke-miterlimit="10" width="29.999" height="11.999" transform=""/>
</g>
<path id="holes" x="0" y="0" d="m 0 0 M 98.535 52.629         h 20 h 2.5 v -12 h 30 v 12 h 15 v -12 h 30 v 12 h 2.5  h 2.5 v -12 h 30 v 12 h 15 v -12 h 30 v 12 h 2.5   h 20         v 10 v 2.5 h 12 v 30 h -12 v 15 h 12 v 30 h -12 v 2.5    v 10        h -20 h -2.5 v 12 h -30 v -12 h -15 v 12 h -30 v -12 h -2.5  h -2.5 v 12 h -30 v -12 h -15 v 12 h -30 v -12 h -2.5   h -20         v -10 v -2.5 h -12 v -30 h 12 v -15 h -12 v -30 h 12 v -2.5    v -10  M 398.53499999999997 52.629         h 25  h 25         v 20 v 2.5 h 12 v 30 h -12 v 15 h 12 v 30 h -12 v 2.5  v 2.5 h 12 v 30 h -12 v 15 h 12 v 30 h -12 v 2.5    v 20        h -25  h -25         v -20 v -2.5 h -12 v -30 h 12 v -15 h -12 v -30 h 12 v -2.5  v -2.5 h -12 v -30 h 12 v -15 h -12 v -30 h 12 v -2.5    v -20  M 548.535 152.629         h 0 h 2.5 v -12 h 30 v 12 h 15 v -12 h 30 v 12 h 2.5  h 2.5 v -12 h 30 v 12 h 15 v -12 h 30 v 12 h 2.5  h 2.5 v -12 h 30 v 12 h 15 v -12 h 30 v 12 h 2.5  h 2.5 v -12 h 30 v 12 h 15 v -12 h 30 v 12 h 2.5  h 2.5 v -12 h 30 v 12 h 15 v -12 h 30 v 12 h 2.5   h 0         v 10 v 2.5 h 12 v 30 h -12 v 15 h 12 v 30 h -12 v 2.5    v 10        h 0 h -2.5 v 12 h -30 v -12 h -15 v 12 h -30 v -12 h -2.5  h -2.5 v 12 h -30 v -12 h -15 v 12 h -30 v -12 h -2.5  h -2.5 v 12 h -30 v -12 h -15 v 12 h -30 v -12 h -2.5  h -2.5 v 12 h -30 v -12 h -15 v 12 h -30 v -12 h -2.5  h -2.5 v 12 h -30 v -12 h -15 v 12 h -30 v -12 h -2.5   h 0         v -10 v -2.5 h -12 v -30 h 12 v -15 h -12 v -30 h 12 v -2.5    v -10  " stroke="#000000" stroke-width="1" stroke-opacity="1" fill="none" visibility="visible" transform=""/>
<path id="boxes" x="0" y="0" d="m 0 0          h 20 h 2.5 v 12 h 30 v -12 h 15 v 12 h 30 v -12 h 2.5  h 2.5 v 12 h 30 v -12 h 15 v 12 h 30 v -12 h 2.5   h 20         v -5 v -2.5 h 12 v -30 h -12 v -15 h 12 v -30 h -12 v -2.5  v -2.5 h 12 v -30 h -12 v -15 h 12 v -30 h -12 v -2.5  v -2.5 h 12 v -30 h -12 v -15 h 12 v -30 h -12 v -2.5    v -5        h -20 h -2.5 v -12 h -30 v 12 h -15 v -12 h -30 v 12 h -2.5  h -2.5 v -12 h -30 v 12 h -15 v -12 h -30 v 12 h -2.5   h -20         v 5 v 2.5 h -12 v 30 h 12 v 15 h -12 v 30 h 12 v 2.5  v 2.5 h -12 v 30 h 12 v 15 h -12 v 30 h 12 v 2.5  v 2.5 h -12 v 30 h 12 v 15 h -12 v 30 h 12 v 2.5    v 5  m 240 0       h 20 h 2.5 v 12 h 30 v -12 h 15 v 12 h 30 v -12 h 2.5  h 2.5 v 12 h 30 v -12 h 15 v 12 h 30 v -12 h 2.5   h 20         v -5 v -2.5 h 12 v -30 h -12 v -15 h 12 v -30 h -12 v -2.5  v -2.5 h 12 v -30 h -12 v -15 h 12 v -30 h -12 v -2.5  v -2.5 h 12 v -30 h -12 v -15 h 12 v -30 h -12 v -2.5    v -5        h -20 h -2.5 v -12 h -30 v 12 h -15 v -12 h -30 v 12 h -2.5  h -2.5 v -12 h -30 v 12 h -15 v -12 h -30 v 12 h -2.5   h -20         v 5 v 2.5 h -12 v 30 h 12 v 15 h -12 v 30 h 12 v 2.5  v 2.5 h -12 v 30 h 12 v 15 h -12 v 30 h 12 v 2.5  v 2.5 h -12 v 30 h 12 v 15 h -12 v 30 h 12 v 2.5    v 5  m -240 30       h 5 h 2.5 v 12 h 30 v -12 h 15 v 12 h 30 v -12 h 2.5  h 2.5 v 12 h 30 v -12 h 15 v 12 h 30 v -12 h 2.5  h 2.5 v 12 h 30 v -12 h 15 v 12 h 30 v -12 h 2.5   h 5        v 12 v 10 v 2.5 h 12 v 30 h -12 v 15 h 12 v 30 h -12 v 2.5   v 12 v 10        h -5 h -2.5 v -12 h -30 v 12 h -15 v -12 h -30 v 12 h -2.5  h -2.5 v -12 h -30 v 12 h -15 v -12 h -30 v 12 h -2.5  h -2.5 v -12 h -30 v 12 h -15 v -12 h -30 v 12 h -2.5   h -5        v -12 v -10 v -2.5 h -12 v -30 h 12 v -15 h -12 v -30 h 12 v -2.5   v -12 v -10  m 290 0       h 5 h 2.5 v 12 h 30 v -12 h 15 v 12 h 30 v -12 h 2.5  h 2.5 v 12 h 30 v -12 h 15 v 12 h 30 v -12 h 2.5  h 2.5 v 12 h 30 v -12 h 15 v 12 h 30 v -12 h 2.5   h 5        v 12 v 10 v 2.5 h 12 v 30 h -12 v 15 h 12 v 30 h -12 v 2.5   v 12 v 10        h -5 h -2.5 v -12 h -30 v 12 h -15 v -12 h -30 v 12 h -2.5  h -2.5 v -12 h -30 v 12 h -15 v -12 h -30 v 12 h -2.5  h -2.5 v -12 h -30 v 12 h -15 v -12 h -30 v 12 h -2.5   h -5        v -12 v -10 v -2.5 h -12 v -30 h 12 v -15 h -12 v -30 h 12 v -2.5   v -12 v -10  m 290 0      h 12 h 20 h 2.5 v 12 h 30 v -12 h 15 v 12 h 30 v -12 h 2.5  h 2.5 v 12 h 30 v -12 h 15 v 12 h 30 v -12 h 2.5   h 20 h 12       v 12 v 10 v 2.5 h -12 v 30 h 12 v 15 h -12 v 30 h 12 v 2.5   v 12 v 10       h -12 h -20 h -2.5 v -12 h -30 v 12 h -15 v -12 h -30 v 12 h -2.5  h -2.5 v -12 h -30 v 12 h -15 v -12 h -30 v 12 h -2.5   h -20 h -12       v -12 v -10 v -2.5 h 12 v -30 h -12 v -15 h 12 v -30 h -12 v -2.5   v -12 v -10  m -580 580          h 25  h 25         v -20 v -2.5 h 12 v -30 h -12 v -15 h 12 v -30 h -12 v -2.5  v -2.5 h 12 v -30 h -12 v -15 h 12 v -30 h -12 v -2.5    v -20        h -25  h -25         v 20 v 2.5 h -12 v 30 h 12 v 15 h -12 v 30 h 12 v 2.5  v 2.5 h -12 v 30 h 12 v 15 h -12 v 30 h 12 v 2.5    v 20  m 90 0       h 25  h 25         v -20 v -2.5 h 12 v -30 h -12 v -15 h 12 v -30 h -12 v -2.5  v -2.5 h 12 v -30 h -12 v -15 h 12 v -30 h -12 v -2.5    v -20        h -25  h -25         v 20 v 2.5 h -12 v 30 h 12 v 15 h -12 v 30 h 12 v 2.5  v 2.5 h -12 v 30 h 12 v 15 h -12 v 30 h 12 v 2.5    v 20  m -90 30       h 20 h 2.5 v 12 h 30 v -12 h 15 v 12 h 30 v -12 h 2.5  h 2.5 v 12 h 30 v -12 h 15 v 12 h 30 v -12 h 2.5   h 20        v 12 v 20 v 2.5 h 12 v 30 h -12 v 15 h 12 v 30 h -12 v 2.5  v 2.5 h 12 v 30 h -12 v 15 h 12 v 30 h -12 v 2.5   v 12 v 20        h -20 h -2.5 v -12 h -30 v 12 h -15 v -12 h -30 v 12 h -2.5  h -2.5 v -12 h -30 v 12 h -15 v -12 h -30 v 12 h -2.5   h -20        v -12 v -20 v -2.5 h -12 v -30 h 12 v -15 h -12 v -30 h 12 v -2.5  v -2.5 h -12 v -30 h 12 v -15 h -12 v -30 h 12 v -2.5   v -12 v -20  m 240 0       h 20 h 2.5 v 12 h 30 v -12 h 15 v 12 h 30 v -12 h 2.5  h 2.5 v 12 h 30 v -12 h 15 v 12 h 30 v -12 h 2.5   h 20        v 12 v 20 v 2.5 h 12 v 30 h -12 v 15 h 12 v 30 h -12 v 2.5  v 2.5 h 12 v 30 h -12 v 15 h 12 v 30 h -12 v 2.5   v 12 v 20        h -20 h -2.5 v -12 h -30 v 12 h -15 v -12 h -30 v 12 h -2.5  h -2.5 v -12 h -30 v 12 h -15 v -12 h -30 v 12 h -2.5   h -20        v -12 v -20 v -2.5 h -12 v -30 h 12 v -15 h -12 v -30 h 12 v -2.5  v -2.5 h -12 v -30 h 12 v -15 h -12 v -30 h 12 v -2.5   v -12 v -20  m 240 0      h 12 h 25  h 25 h 12       v 12 v 20 v 2.5 h -12 v 30 h 12 v 15 h -12 v 30 h 12 v 2.5  v 2.5 h -12 v 30 h 12 v 15 h -12 v 30 h 12 v 2.5   v 12 v 20       h -12 h -25  h -25 h -12       v -12 v -20 v -2.5 h 12 v -30 h -12 v -15 h 12 v -30 h -12 v -2.5  v -2.5 h 12 v -30 h -12 v -15 h 12 v -30 h -12 v -2.5   v -12 v -20  m -480 630          h 0 h 2.5 v 12 h 30 v -12 h 15 v 12 h 30 v -12 h 2.5  h 2.5 v 12 h 30 v -12 h 15 v 12 h 30 v -12 h 2.5  h 2.5 v 12 h 30 v -12 h 15 v 12 h 30 v -12 h 2.5  h 2.5 v 12 h 30 v -12 h 15 v 12 h 30 v -12 h 2.5  h 2.5 v 12 h 30 v -12 h 15 v 12 h 30 v -12 h 2.5   h 0         v -35 v -2.5 h 12 v -30 h -12 v -15 h 12 v -30 h -12 v -2.5    v -35        h 0 h -2.5 v -12 h -30 v 12 h -15 v -12 h -30 v 12 h -2.5  h -2.5 v -12 h -30 v 12 h -15 v -12 h -30 v 12 h -2.5  h -2.5 v -12 h -30 v 12 h -15 v -12 h -30 v 12 h -2.5  h -2.5 v -12 h -30 v 12 h -15 v -12 h -30 v 12 h -2.5  h -2.5 v -12 h -30 v 12 h -15 v -12 h -30 v 12 h -2.5   h 0         v 35 v 2.5 h -12 v 30 h 12 v 15 h -12 v 30 h 12 v 2.5    v 35  m 440 0       h 0 h 2.5 v 12 h 30 v -12 h 15 v 12 h 30 v -12 h 2.5  h 2.5 v 12 h 30 v -12 h 15 v 12 h 30 v -12 h 2.5  h 2.5 v 12 h 30 v -12 h 15 v 12 h 30 v -12 h 2.5  h 2.5 v 12 h 30 v -12 h 15 v 12 h 30 v -12 h 2.5  h 2.5 v 12 h 30 v -12 h 15 v 12 h 30 v -12 h 2.5   h 0         v -35 v -2.5 h 12 v -30 h -12 v -15 h 12 v -30 h -12 v -2.5    v -35        h 0 h -2.5 v -12 h -30 v 12 h -15 v -12 h -30 v 12 h -2.5  h -2.5 v -12 h -30 v 12 h -15 v -12 h -30 v 12 h -2.5  h -2.5 v -12 h -30 v 12 h -15 v -12 h -30 v 12 h -2.5  h -2.5 v -12 h -30 v 12 h -15 v -12 h -30 v 12 h -2.5  h -2.5 v -12 h -30 v 12 h -15 v -12 h -30 v 12 h -2.5   h 0         v 35 v 2.5 h -12 v 30 h 12 v 15 h -12 v 30 h 12 v 2.5    v 35  m -440 30       h 35 h 2.5 v 12 h 30 v -12 h 15 v 12 h 30 v -12 h 2.5   h 35        v 12 v 10 v 2.5 h 12 v 30 h -12 v 15 h 12 v 30 h -12 v 2.5   v 12 v 10        h -35 h -2.5 v -12 h -30 v 12 h -15 v -12 h -30 v 12 h -2.5   h -35        v -12 v -10 v -2.5 h -12 v -30 h 12 v -15 h -12 v -30 h 12 v -2.5   v -12 v -10  m 190 0       h 35 h 2.5 v 12 h 30 v -12 h 15 v 12 h 30 v -12 h 2.5   h 35        v 12 v 10 v 2.5 h 12 v 30 h -12 v 15 h 12 v 30 h -12 v 2.5   v 12 v 10        h -35 h -2.5 v -12 h -30 v 12 h -15 v -12 h -30 v 12 h -2.5   h -35        v -12 v -10 v -2.5 h -12 v -30 h 12 v -15 h -12 v -30 h 12 v -2.5   v -12 v -10  m 190 0      h 12 h 0 h 2.5 v 12 h 30 v -12 h 15 v 12 h 30 v -12 h 2.5  h 2.5 v 12 h 30 v -12 h 15 v 12 h 30 v -12 h 2.5  h 2.5 v 12 h 30 v -12 h 15 v 12 h 30 v -12 h 2.5  h 2.5 v 12 h 30 v -12 h 15 v 12 h 30 v -12 h 2.5  h 2.5 v 12 h 30 v -12 h 15 v 12 h 30 v -12 h 2.5   h 0 h 12       v 12 v 10 v 2.5 h -12 v 30 h 12 v 15 h -12 v 30 h 12 v 2.5   v 12 v 10       h -12 h 0 h -2.5 v -12 h -30 v 12 h -15 v -12 h -30 v 12 h -2.5  h -2.5 v -12 h -30 v 12 h -15 v -12 h -30 v 12 h -2.5  h -2.5 v -12 h -30 v 12 h -15 v -12 h -30 v 12 h -2.5  h -2.5 v -12 h -30 v 12 h -15 v -12 h -30 v 12 h -2.5  h -2.5 v -12 h -30 v 12 h -15 v -12 h -30 v 12 h -2.5   h 0 h -12       v -12 v -10 v -2.5 h 12 v -30 h -12 v -15 h 12 v -30 h -12 v -2.5   v -12 v -10  m -380 480 " stroke="#000000" stroke-width="1" stroke-opacity="1" fill="none" visibility="visible" transform="translate(0,1000)"/>
</g></svg>