<?xml version="1.0" standalone="no"?>
<!DOCTYPE svg PUBLIC "-//W3C//DTD SVG 1.1//EN" "http://www.w3.org/Graphics/SVG/1.1/DTD/svg11.dtd">
<svg width="100%" height="100%" version="1.1" xmlns="http://www.w3.org/2000/svg">
<desc>Magic box - output file</desc>
<g transform='scale(2.83464567)'>
<path id="right shading" x="0" y="0" d="m 0 0 m 156.6265060240964 0 v 147.9591836734694 l 46.93877551020408 46.93877551020408 v -147.9591836734694 l -46.93877551020408 -46.93877551020408 " fill="#d6305e" fill-opacity="0.5" visibility="visible" transform=""/>
<path id="bottom shading" x="0" y="0" d="m 0 0 m 0 147.9591836734694 h 156.6265060240964 l 46.93877551020408 46.93877551020408 h -156.6265060240964 l -46.93877551020408 -46.93877551020408 " fill="#d42a90" fill-opacity="0.7419354838709677" visibility="visible" transform=""/>
<path id="front shading" x="0" y="0" d="m 0 0 m 46.93877551020408 46.93877551020408 h 156.6265060240964 v 147.9591836734694 h -156.6265060240964 v -147.9591836734694 " fill="#993399" fill-opacity="0.5" visibility="visible" transform=""/>
<path id="back shading" x="0" y="0" d="m 0 0 h 156.6265060240964 v 147.9591836734694 h -156.6265060240964 v -147.9591836734694 " fill="#ff6633" fill-opacity="0.5" visibility="visible" transform=""/>
<path id="top shading" x="0" y="0" d="m 0 0 h 156.6265060240964 l 46.93877551020408 -46.93877551020408 h -156.6265060240964 l -46.93877551020408 46.93877551020408 " fill="#ff9900" fill-opacity="0.8064516129032258" visibility="visible" transform=""/>
<path id="inner lines" x="0" y="0" d="m 0 0 h 156.6265060240964 m 0,6.418367346938775 v 6.418367346938775 m 0,6.418367346938775 v 6.418367346938775 m 0,6.418367346938775 v 6.418367346938775 m 0,6.418367346938775 v 6.418367346938775 m 0,6.418367346938775 v 6.418367346938775 m 0,6.418367346938775 v 6.418367346938775 m 0,6.418367346938775 v 6.418367346938775 m 0,6.418367346938775 v 6.418367346938775 m 0,6.418367346938775 v 6.418367346938775 m 0,6.418367346938775 v 6.418367346938775 m 0,6.418367346938775 v 6.418367346938775  m 0,6.755102040816338  m 4.538471075166718,4.5384710751667185 l 4.538471075166718,4.5384710751667185 m 4.538471075166718,4.5384710751667185 l 4.538471075166718,4.5384710751667185 m 4.538471075166718,4.5384710751667185 l 4.538471075166718,4.5384710751667185 m 4.538471075166718,4.5384710751667185 l 4.538471075166718,4.5384710751667185 m 4.538471075166718,4.5384710751667185 l 4.538471075166718,4.5384710751667185  m 1.5540647585369005,1.5540647585369007  m -46.93877551020408 -46.93877551020408 m -6.418367346938775,0 h -6.418367346938775 m -6.418367346938775,0 h -6.418367346938775 m -6.418367346938775,0 h -6.418367346938775 m -6.418367346938775,0 h -6.418367346938775 m -6.418367346938775,0 h -6.418367346938775 m -6.418367346938775,0 h -6.418367346938775 m -6.418367346938775,0 h -6.418367346938775 m -6.418367346938775,0 h -6.418367346938775 m -6.418367346938775,0 h -6.418367346938775 m -6.418367346938775,0 h -6.418367346938775 m -6.418367346938775,0 h -6.418367346938775 m -6.418367346938775,0 h -6.418367346938775  m -2.585689697565776,0  m 46.93877551020408 46.93877551020408 v -147.9591836734694 l -46.93877551020408 -46.93877551020408 m 46.93877551020408 46.93877551020408 h 156.6265060240964 " stroke="#000000" stroke-width="3" stroke-opacity="1" fill="none" visibility="visible" transform=""/>
<path id="outline" x="0" y="0" d="m 0 0 l 46.93877551020408 -46.93877551020408 h 156.6265060240964 l -46.93877551020408 46.93877551020408 l 46.93877551020408 46.93877551020408 v 147.9591836734694 h -156.6265060240964 l -46.93877551020408 -46.93877551020408 v -147.9591836734694 " stroke="#000000" stroke-width="10" stroke-opacity="1" fill="none" visibility="visible" transform=""/>
</g></svg>