<?xml version="1.0" encoding="utf-8"?>
<!-- Generator: Adobe Illustrator 15.0.0, SVG Export Plug-In . SVG Version: 6.00 Build 0)  -->
<!DOCTYPE svg PUBLIC "-//W3C//DTD SVG 1.1//EN" "http://www.w3.org/Graphics/SVG/1.1/DTD/svg11.dtd">
<svg version="1.1" id="Layer_1" xmlns="http://www.w3.org/2000/svg" xmlns:xlink="http://www.w3.org/1999/xlink" x="0px" y="0px"
	 width="462.5px" height="545.5px" viewBox="0 0 462.5 545.5" enable-background="new 0 0 462.5 545.5" xml:space="preserve">
<desc>Magic box - output file</desc>
<g transform="scale(2.83464567)">
	<path id="right_shading" fill="#D6305E" fill-opacity="0.5" d="M116.152,48.469v96.939l38.775,38.776V87.245L116.152,48.469"/>
	<path id="bottom_shading" fill="#D42A90" fill-opacity="0.7419" d="M14.111,145.408h102.041l38.775,38.776H52.887L14.111,145.408"
		/>
	<path id="front_shading" fill="#993399" fill-opacity="0.5" d="M52.887,87.245h102.041v96.939H52.887V87.245"/>
	<path id="back_shading" fill="#FF6633" fill-opacity="0.5" d="M14.111,48.469h102.041v96.939H14.111V48.469"/>
	<path id="top_shading" fill="#FF9900" fill-opacity="0.8065" d="M14.111,48.469h102.041l38.775-38.776H52.887L14.111,48.469"/>
	<path id="inner_lines" fill="none" stroke="#000000" stroke-width="3" d="M14.111,48.469h102.041 M116.152,54.888v6.418
		 M116.152,67.725v6.418 M116.152,80.561v6.418 M116.152,93.398v6.418 M116.152,106.235v6.418 M116.152,119.071v6.418
		 M116.152,131.908v6.418 M120.69,149.947l4.539,4.539 M129.767,159.024l4.538,4.539 M138.844,168.1l4.539,4.538 M147.921,177.177
		l4.538,4.538 M109.734,145.408h-6.418 M96.897,145.408h-6.418 M84.06,145.408h-6.418 M71.223,145.408h-6.418 M58.387,145.408
		h-6.418 M45.55,145.408h-6.418 M32.713,145.408h-6.418 M52.887,184.184V87.245L14.111,48.469 M52.887,87.245h102.041"/>
	<path id="outline" fill="none" stroke="#000000" stroke-width="10" d="M14.111,48.469L52.887,9.694h102.041l-38.775,38.776
		l38.775,38.776v96.939H52.887l-38.776-38.776V48.469z"/>
</g>
</svg>
