<?xml version="1.0" standalone="no"?>
<!DOCTYPE svg PUBLIC "-//W3C//DTD SVG 1.1//EN" "http://www.w3.org/Graphics/SVG/1.1/DTD/svg11.dtd">
<svg width="100%" height="100%" version="1.1" xmlns="http://www.w3.org/2000/svg">
<desc>Magic box - output file</desc>
<g transform='scale(2.83464567)'>
<path x="0" y="0" d="m 0 0 M 190.98524440106598 100.83929451516613L 185.45696327044078 101.57673180133293 181.54470372093527 102.2571425768385 178.44647087576647 102.89575387916949 175.85576067467716 103.50104558599386 173.61732246746217 104.07855308391089 171.64002085914058 104.63221804325663 169.86515545850955 105.16500856440457 168.25240675669738 105.67924902575098 166.77273749420908 106.17681354182832 165.4044601317164 106.65924769540607 164.1309013954359 107.12784932941258 162.93893772878832 107.58372446157323 161.81803573464938 108.02782731470872 160.75960036765758 108.4609897880342 159.75651855975542 108.88394367088102 158.80283133490383 109.2973377252754 157.89349294240353 109.70175105208496 157.0241904541544 110.09770370848463 156.19120632691295 110.48566525493908 155.39131210431685 110.86606171716254 154.6216850878665 111.23928131713392 153.87984221821776 111.60567923577158 153.1635870355068 111.96558160497275 152.47096670709269 112.3192888798899 151.80023689523372 112.66707870799836 151.1498327952683 113.00920838601108 150.51834507790508 113.34591697650687 149.90449976424028 113.67742714152914 149.3071412807506 114.00394673917035 148.72521810539246 114.32567022041923 148.15777054008436 114.64277985669558 147.60392023982106 114.95544682307641 147.06286120198587 115.26383215789566 146.5338519765129 115.56808761592816 146.01620890235307 115.86835642956132 145.50930021112197 116.16477399007239 145.0125408670155 116.45746845925785 144.5253880346877 116.74656132011944 144.04733708502067 117.03216787403491 143.57791806350994 117.31439769077846 143.11669255805757 117.59335501686739 142.6632509128628 117.86913914696396 142.21720974325893 118.14184476243169 141.77820971310013 118.41156224061058 141.34591354192295 118.678377937922 140.92000421380274 118.94237444952498 140.5001833637644 119.20363084791428 140.08616982092448 119.46222290256327 139.6776982903468 119.71822328246927 139.27451815797258 119.97170174324434 138.87639240501233 120.22272530021021 138.48309661991644 120.47135838879382 138.09441809752434 120.71766301337976 137.71015501626556 120.96169888565238 137.3301156853846 121.20352355335258 136.9541178551105 121.4431925202784 136.58198808351403 121.68075935827589 136.2135611545115 121.91627581189167 135.8486795420945 122.1497918962934 135.48719291641143 122.38135598900661 135.12895768779964 122.6110149159637 134.77383658528626 122.83881403231582 134.4216982664417 123.06479729841652 134.07241695579356 123.2890073513499 133.72587210929345 123.51148557234228 133.38194810258187 123.73227215036802 133.0405339410199 123.95140614223244 132.7015229896543 124.16892552939171 132.36481272146045 124.38486727174788 132.030304482363 124.59926735863755 131.69790327167593 124.81216085721567 131.36751753672837 125.02358195841963 131.0390589805548 125.2335640206847 130.71244238162907 125.4421396115688 130.38758542471194 125.64934054743283 130.06440854196296 125.85519793131178 129.74283476354083 126.05974218910262 129.422789576982 126.26300310418546 129.10420079470754 126.46500985058687 128.7869984290603 126.66579102478657 128.4711145743257 126.86537467626219 128.1564832952311 127.06378833686051 127.8430405214601 127.26105904907811 127.53072394775361 127.45721339332917 127.2194729392036 127.65227751427352 126.9092284413738 127.84627714627408 126.59993289491052 128.03923763804815 126.29153015433056 128.23118397657464 125.98396541069647 128.4221408103152 125.6771851179096 128.61213247180447 125.37113692237092 128.80118299966256 125.06576959577623 128.9893161600798 124.76103297082847 129.17655546782183 124.45687787966428 129.3629242068017 124.15325609480526 129.5484454502628 123.85012027245577 129.73314208061615 123.54742389798126 129.91703680897345 123.24512123341037 130.10015219441595 122.94316726681345 130.282510663039 122.6415176634188 130.4641345268105 122.34012871833554 130.64504600228096 122.03895731075896 130.82526722918266 121.73796085954066 131.00482028895428 121.43709728001176 131.183727223228 121.13632494195235 131.36201005231484 120.83560262860586 131.53969079372493 120.53488949664025 131.71679148075896 120.23414503696321 131.8933341812077 119.93332903630055 132.06934101619626 119.63240153945105 132.244834179211 119.33132281213359 132.41983595534737 119.03005330434394 132.5943687408172 118.7285536141419 132.76845506275626 118.42678445178989 132.94211759937252 118.12470660416622 133.11537920047778 117.82228089937702 133.28826290844626 117.5194681714916 133.46079197964616 117.21622922532643 133.63298990639046 116.91252480120309 133.804880439457 116.60831553960541 133.97648761122875 116.30356194566049 134.1478357595083 115.99822435336756 134.31894955206286 115.69226288949771 134.4898540119593 115.38563743708579 134.66057454375158 115.07830759843459 134.83113696058683 114.77023265754889 135.0015675122995 114.46137154191486 135.17189291456774 114.15168278353734 135.34214037921043 113.84112447914468 135.5123376457078 113.529654249467 135.68251301403433 113.21722919748967 135.85269537889863 112.9038058655797 136.02291426549039 112.58934019137767 136.19319986684218 112.273787462342 136.3635830829208 111.95710226882676 136.53409556157175 111.63923845556747 136.70476974144776 111.32014907144176 136.87563889706416 110.99978631736391 137.04673718613174 110.67810149216348 137.21809969933162 110.35504493628827 137.3897625127079 110.03056597316157 137.5617627428676 109.70461284801154 137.7341386051924 109.37713266397817 137.9069294752843 109.04807131528904 138.08017595388262 108.71737341727943 138.25391993551244 108.38498223301596 138.42820468114414 108.05083959626398 138.60307489516796 107.71488583051837 138.77857680701428 107.3770596637955 138.95475825777777 107.03729813885899 139.13166879223638 106.69553651852459 139.30935975669067 106.35170818566003 139.4878844030868 106.00574453746212 139.6672979999309 105.65757487355698 139.84765795054767 105.30712627742884 140.02902391929007 104.9543234906381 140.2114579663641 104.59908877923986 140.39502469199815 104.24134179175847 140.57979139075715 103.88099940801324 140.76582821688288 103.51797557802163 140.95320836163106 103.15218115013056 141.14200824367572 102.78352368744152 141.33230771376327 102.41190727150052 141.52419027492527 102.03723229211757 141.71774331969868 101.6593952220609 141.91305838596247 101.27828837523812 142.11023143317848 100.89379964682462 142.30936314102627 100.5058122336305 142.51055923265133 100.11420433280428 142.71393082500563 99.71884881675501 142.91959480905467 99.3196128819264 143.12767426296074 98.91635766877698 143.33829890173666 98.50893784999948 143.55160556730175 98.09720118364763 143.76773876337455 97.68098802742006 143.98685124021546 97.26013080987057 144.20910463489656 96.83445345376144 144.4346701735451 96.4037707461386 144.6637294428967 95.96788764896974 144.89647523952783 95.52659854332983 145.13311250634092 95.07968639912231 145.3738593672808 94.6269218611602 145.6189482729089 94.16806224106867 145.86862727139945 93.70285040286838 146.1231614218055 93.23101352820936 146.38283436914983 92.75226174498805 146.64795010411012 92.26628660042066 146.9188349339033 91.77275935647309 147.1958396955708 91.27132908174394 147.47934224839327 90.76162050931849 147.76975028884573 90.24323162457226 148.06750453961726 89.71573094017053 148.37308237411898 89.17865440728158 148.6870019500515 88.63150190191156 149.0098269405847 88.07373321277282 149.34217197029506 87.50476344155682 149.6847088862179 86.92395770702875 150.03817402354653 86.33062501983723 150.40337666243244 85.72401116378859 150.78120891942086 85.10329037946944 151.17265737756318 84.4675555946366 151.57881683767764 83.81580687875291 152.000906675814 83.14693771085912 152.4402904274782 82.45971853274415 152.89849940003722 81.75277690176928 153.37726135889955 81.02457334318966 153.87853566679885 80.27337170592504 154.40455671778795 79.49720241159625 154.9578881573176 78.6938163976654 155.5414913078177 77.86062670300788 156.15881256827524 76.99463338599628 156.81389655609166 76.09232556736013 157.5115347889917 75.14955145716372 158.25746440723753 74.16134256658952 159.05863893908025 73.12167067074307 159.9236054627892 72.02310312066851 160.8630435923863 70.85629913770327 161.89055920496435 69.60924700901444 163.02389588292772 68.2660578500128 164.28686587836944 66.80495305255229 165.7125980279793 65.19466856634607 167.34938881060214 63.38742048569603 169.27224643397454 61.303280024061955 171.6087585344199 58.78805287012701 174.60946819140577 55.4525600133458 178.91912164766242 48.65691163726436 189.0295921342575 53.627447749550136 178.72363471731643 55.817829476336925 173.4474329391275 57.21144976232273 169.66767950890957 58.22255135127788 166.63523358139452 59.003443533356794 164.06887899270964 59.62936512182541 161.82700277809673 60.143597199714485 159.82662583322394 60.57352332685328 158.01429868475307 60.93764513234316 156.35326981158317 61.24908133508694 154.8170278971268 61.517484934048014 153.38573199099017 61.75017051979149 152.04409399333468 61.95281471344728 150.78005152497516 62.129911111544 149.5838985057135 62.28507676293364 148.44769444863508 62.42126504187334 147.36485067716652 62.54091740373763 146.329832846957 62.646074023379775 145.3379422422986 62.73845604682912 144.3851518231927 62.81952779775382 143.46798119378803 62.89054454446535 142.58339979486095 62.9525896800702 141.72875092761188 63.00660401679381 140.90169139705804 63.0534091222604 140.10014303472406 63.0937260959592 139.32225337281173 63.128190814941746 138.56636345123144 63.15736641621319 137.83098124374385 63.18175359518607 137.11475955419922 63.201799162473 136.41647750094904 63.21790320012874 135.73502490552477 63.23042508293501 135.06938905018202 63.23968857335255 134.41864338146408 63.24598615536171 133.78193782308924 63.24958273904222 133.15849042801307 63.25071884186404 132.54758015136233 63.24961333243396 131.94854056665056 63.246465806510514 131.36075437989916 63.24145865246563 130.78364862195457 63.23475885328312 130.21669041988062 63.22651956408068 129.65938326491863 63.21688149759197 129.11126370799965 63.20597414472416 128.5718984248049 63.19391685295765 128.04088160140853 63.180819781785246 127.51783259899335 63.16678475144289 127.00239386230731 63.15190599874356 126.4942290416732 63.1362708517948 125.99302130266423 63.11996033368244 125.49847180116993 63.10304970377934 125.01029830461876 63.08560894413785 124.52823394270013 63.067703197411895 124.05202607311341 63.04939316189358 123.58143524973512 63.03073544851876 123.11623428218681 63.01178290407106 122.65620737715162 62.992584904279006 122.20114935296208 62.97318762004226 121.75086491999406 62.953634259627506 121.30516802027803 62.933965289332896 120.86388122049911 62.91421863482511 120.42683515321784 62.89442986509602 119.99386800171956 62.874632360763385 119.56482502440456 62.85485746824519 119.13955811507077 62.83513464116747 118.71792539582943 62.81549157021652 118.29979083973316 62.7959543025155 117.88502392049769 62.77654735149108 117.4734992869621 62.75729379809384 117.06509646016887 62.73821538414732 116.65969955115175 62.71933259852106 116.25719699770522 62.70066475675332 115.85748131857397 62.68223007468655 115.46044888364713 62.66404573662378 115.06599969887316 62.64612795846444 114.67403720472889 62.62849204623455 114.2844680871807 62.61115245038643 113.89720210017012 62.594122816208746 113.51215189874121 62.57741603065529 113.12923288200233 62.56104426587331 112.74836304518445 62.545019019686485 112.36946284011928 62.529351153264614 111.992455043517 62.51405092619236 111.61726463247291 62.49912802912917 111.24381866667964 62.484591614237296 110.87204617686116 62.47045032353889 110.50187805898398 62.45671231534893 110.13324697383416 62.44338528891939 109.76608725158012 62.430476507417204 109.4003348009695 62.41799281934978 109.03592702283396 62.4059406785411 108.67280272759902 62.39432616275351 108.31090205651795 62.383154991042346 107.95016640636756 62.372432539923274 107.59053835736195 62.36216385842562 107.23196160405627 62.352353682099015 106.87438088902752 62.34300644603494 106.5177419391328 62.33412629696011 106.16199140415796 62.325717104452885 105.80707679768055 62.31778247133119 105.45294643998182 62.31032574325441 105.0995494028512 62.30335001757983 104.74683545613588 62.296858151509305 104.39475501589556 62.29085276955956 104.04325909402938 62.285336270385685 103.69229924924915 62.2803108329855 103.34182753927759 62.275778422308726 102.99179647415683 62.27174079429322 102.64215897055617 62.26819950034782 102.29286830697271 62.265155891298896 101.94387807972187 62.26261112081611 101.59514215961869 62.26056614833004 101.24661464925259 62.259021741453154 100.89824984076186 62.25797847791293 100.55000217401518 62.257436747004775 100.2018261951098 62.257396750569946 99.85367651509691 62.25785850350227 99.50550776884566 62.25882183378547 99.15727457395818 62.26028638206144 98.80893148964755 62.262251600727545 98.46043297549124 62.264716752559885 98.11173334997144 62.26768090885705 97.76278674871313 62.27114294709756 97.41354708232949 62.275101548102015 97.06396799378275 62.2795551926893 96.71400281516638 62.2845021578139 96.3636045238124 62.28994051216971 96.01272569762469 62.29586811124329 95.66131846953617 62.30228259179735 95.30933448098381 62.30918136576298 94.95672483429165 62.3165616135165 94.60344004384704 62.32442027651422 94.24942998595067 62.332754049255726 93.89464384721467 62.341559370543045 93.53903007137728 62.35083241399994 93.18253630439523 62.360569077812336 92.82510933766764 62.37076497364694 92.46669504923653 62.381415414701024 92.1072383427999 62.39251540283255 91.74668308436338 62.404059614714576 91.38497203634489 62.41604238695308 91.02204678893507 62.428457700102065 90.65784768850256 62.44129916150329 90.29231376281871 62.45455998687221 89.9253826428604 62.46823298054382 89.55699048093197 62.48231051428511 89.18707186482814 62.49678450457169 88.81555972773889 62.51164638821737 88.44238525357389 62.52688709623506 88.0674777773591 62.54249702579597 87.69076468033002 62.55846601014221 87.3121712793157 62.57478328629391 86.93162070997404 62.59143746037716 86.5490338034016 62.60841647038254 86.16432895560058 62.62570754614566 85.7774219892407 62.64329716632082 85.38822600710347 62.661171012096425 84.99665123654208 62.679313917375936 84.60260486422867 62.69770981512004 84.20599086039357 62.71634167951516 83.80670979168626 62.73519146359861 83.40465862170447 62.75424003193205 82.9997304981452 62.77346708787224 82.59181452542862 62.79285109493905 82.18079552153014 62.8123691917268 81.76655375762776 62.831997099744044 81.34896467902719 62.85170902349757 80.92789860566594 62.871477542059765 80.50322041031622 62.89127349126989 80.07478917240158 62.9110658356212 79.64245780511273 62.93082152877275 79.20607265324716 62.950505361497434 78.76547305890354 62.970079795731074 78.3204908918274 62.98950478322179 77.8709500408261 63.00873756708811 77.4166658622386 63.02773246437625 76.95744458095336 63.046440627456114 76.49308263890313 63.06480978180681 76.02336598531993 63.08278393740914 75.54806930228946 63.10030307057614 75.0669551582888 63.11730277260469 74.57977308140079 63.13371386110971 74.08625854275272 63.14946194929276 73.5861318393934 63.164466967684646 73.07909686427084 63.17864263206304 72.56483974915491 63.191895850259066 72.04302736422036 63.204126059399854 71.51330565549662 63.2152244837478 70.97529779842861 63.22507330164806 70.42860214228024 63.233544708120995 69.87278991593006 63.240499857268084 69.30740266061147 63.24578766580192 68.73194934915118 63.24924345555015 68.14590314402592 63.2506874085709 67.5486977377957 63.24992280336634 66.93972320880424 63.24673399434664 66.31832131198138 63.24088408886628 65.68378010851609 63.23211226641711 65.03532781828086 63.22013067237794 64.37212575411871 63.20462080337503 63.693260166050884 63.18522928184442 62.997732784259945 63.161562892518035 62.2844497998438 63.13318272152904 61.55220895842192 63.09959719723435 60.79968435904697 63.06025377733512 60.02540844308535 63.014528954727496 59.22775051574335 62.96171615802892 58.40489095391466 62.90101099222201 57.55478999958369 62.83149308616901 56.67514969126051 62.75210356580265 55.76336700701268 62.66161682271048 54.81647562156178 62.55860474844528 53.831072724393984 62.441390877860776 52.803225961298494 62.307990805563776 51.72835351626125 62.15603360260587 50.60106726272569 61.98265641673246 49.414964137543436 61.78436037711251 48.162343300750834 61.55680923237254 46.83381420083278 61.294540726611594 45.4177395253445 60.990540391699895 43.89941958661555 60.635589463743415 42.259855113596366 60.21722344866273 40.473788332820234 59.71797803790182 38.5064322551967 59.112227731639216 36.30762777781354 58.35995439434783 33.800429691712864 57.392830502943795 30.85584911401486 56.07666077059505 27.225336678643046 54.069588491119745 22.28850199290477 49.31898922932203 12.416319094170817 54.77816408576028 20.160630146368618 58.328164179685615 24.81938452122695 60.9369587724027 27.966822616818007 63.07647934119784 30.38742269590088 64.92132151918241 32.365715875045126 66.55922642725506 34.042146594221606 68.04170053853656 35.49777842839288 69.40203719327634 36.784171967578196 70.66322796965005 37.93638593806773 71.84193727886283 38.979453428284536 72.95069887428383 39.931931311462655 73.99921954227065 40.80798988833338 74.99519715769817 41.618713711304736 75.94485746654796 42.37294848143507 76.85331948137109 43.07787311162274 77.72485197642287 43.73939825268669 78.56305830485543 44.362451304225814 79.3710125973757 44.951184899774056 80.1513621155162 45.509132441311614 80.90640550341377 46.03932615290998 81.63815353061302 46.54438806697695 82.3483768876803 47.026601112641586 83.0386442550014 47.48796534237096 83.71035295927435 47.93024289841969 84.36475390822899 48.35499433684729 85.00297205653833 48.7636082398417 85.62602334401835 49.15732555951752 86.2348288216247 49.53725978515951 86.83022651534903 49.904413769453 87.41298145532188 50.25969385966339 87.98379420521424 50.60392183794515 88.54330815703958 50.93784506779595 89.09211580281291 51.26214516186224 89.63076415302424 51.57744542327747 90.1597594395075 51.88431726373893 90.67957121482291 52.1832857631686 91.190635940095 52.47483450552657 91.69336013714805 52.75940980128279 92.18812316784845 53.03742438779941 92.6752796931103 53.309260683375314 93.1551618555207 53.575273658149555 93.62808122259243 53.835793374835674 94.09433052193943 54.09112724388664 94.5541851949523 54.341562030801384 95.00790479163446 54.58736564758766 95.45573422599448 54.82878875566403 95.89790490865519 55.06606620353715 96.33463577104207 55.29941831928522 96.76613419357143 55.529052075096445 97.19259684861572 55.75516213876609 97.61421046762426 55.9779318250663 98.03115254058503 56.19753395821335 98.44359195499156 56.414131655214575 98.85168958060227 56.62787903864495 99.25559880552353 56.8389218863433 99.65546602849582 57.04739822460789 100.0514311116963 57.253438870684555 100.44362779788045 57.457167929659306 100.83218409525766 57.65870325027726 101.21722263312223 57.858156843695376 101.59886099093455 58.055635268728864 101.97721200326053 58.25123998675898 102.3523840427256 58.44506768912706 102.72448128291745 58.637210599538136 103.0936039429756 58.82775675373292 103.45984851543294 59.016790258452595 103.82330797872015 59.20439153151478 104.1840719956081 59.390637524636475 104.54222709874132 59.575601930477454 104.89785686430807 59.75935537523397 105.25104207479527 59.94196559798464 105.60186087169112 60.12349761787565 105.95038889891994 60.30401389013169 106.29669943772528 60.4835744517867 106.64086353365435 60.66223705794794 106.98295011624147 60.84005730933282 107.32302611193704 61.01708877175329 107.66115655078384 61.193383088162285 107.99740466730066 61.368990083824606 108.33183199599637 61.543957865125584 108.66449846190439 61.71833291248862 108.99546246649592 61.89216016783245 109.3247809693041 62.06548311696408 109.65250956556477 62.23834386727136 109.97870256015796 62.410783221049265 110.30341303811242 62.58284074476841 110.6266929319177 62.754554834569284 110.94859308587 62.92596277824444 111.26916331766338 63.09710081395078 111.58845247742309 63.26800418587553 111.90650850436477 63.43870719706323 112.22337848125179 63.60924325959573 112.53910868681177 63.77964494230336 112.85374464626369 63.94994401617263 113.16733118009813 64.12017149760428 113.47991245124459 64.29035768966477 113.79153201075277 64.46053222146482 114.10223284210797 64.63072408578881 114.41205740429402 64.80096167509208 114.72104767371253 64.97127281597375 115.02924518506131 65.14168480222773 115.33669107127089 65.3122244265665 115.64342610259375 65.48291801110727 115.94949072493729 65.653791436705 116.25492509752844 65.82487017121079 116.55976912999483 65.99617929673066 116.86406251894516 66.167743535955 117.16784478412924 66.3395872776251 117.47115530425633 66.51173460120017 117.77403335254931 66.68420930078437 118.07651813211044 66.85703490837086 118.37864881117459 67.0302347164573 118.68046455832427 67.2038318000841 118.98200457774163 67.3778490383454 119.28330814457178 67.55230913542007 119.58441464047272 67.72723464116851 119.88536358942793 67.90264797133898 120.18619469389796 68.07857142742677 120.48694787138973 68.25502721622671 120.78766329152262 68.43203746911965 121.08838141367377 68.609624261132 121.3891430252859 68.78780962980669 121.68998928092468 68.96661559392315 121.99096174217505 69.14606417210354 122.29210241846961 69.32617740134194 122.5934538089458 69.50697735549291 122.895058945433 69.68848616375574 123.19696143667525 69.87072602919075 123.49920551390059 70.05371924730403 123.80183607785375 70.2374882247374 124.10489874741516 70.42205549810078 124.40843990993628 70.60744375298422 124.71250677342873 70.79367584318878 125.0171474207532 70.98077481021451 125.32241086596298 71.16876390304655 125.62834711296709 71.35766659828019 125.93500721668885 71.54750662062793 126.24244334690762 71.73830796385244 126.55070885498434 71.93009491217184 126.85985834368589 72.12289206218455 127.16994774033876 72.31672434536404 127.48103437355957 72.5116170511758 127.79317705382854 72.70759585087126 128.10643615819248 72.90468682201654 128.42087371940616 73.10291647381703 128.73655351984561 73.30231177330214 129.05354119055335 73.50290017243854 129.3719043158058 73.70470963624429 129.69171254362476 73.90776867198066 130.01303770269135 74.11210635950422 130.33595392615982 74.31775238286599 130.66053778291143 74.52473706325203 130.98686841683812 74.73309139336504 131.31502769479673 74.94284707335481 131.6451003639341 75.15403654841299 131.97717421914848 75.36669304815595 132.31134028152348 75.58085062793032 132.647692988652 75.79654421218464 132.98633039785537 76.013809640064 133.32735440340207 76.23268371339597 133.6708709689412 76.45320424725111 134.01699037648854 76.67541012327615 134.36582749344058 76.89934134601653 134.71750205924707 77.12503910246213 135.07213899354562 77.35254582507318 135.4298687277557 77.58190525856511 135.79082756235056 77.81316253075858 136.15515805227105 78.04636422782866 136.52300942322697 78.28155847432073 136.89453802194623 78.51879501833538 137.26990780379379 78.75812532232658 137.64929086158946 78.99960266000099 138.0328679999203 79.2432822198583 138.42082935977533 79.48922121596895 138.8133750989393 79.73747900664992 139.21071613428168 79.9881172217723 139.61307495288042 80.24119989951589 140.020686499849 80.49679363347988 140.43379915180583 80.75496773116419 140.85267578617155 81.01579438495672 141.27759495792432 81.27934885689973 141.70885219713213 81.54570967866634 142.1467614425561 81.81495886835928 142.59165662893642 82.08718216595288 143.0438934483054 82.36246928944016 143.50385130890083 82.64091421402621 143.97193551908362 82.9226154770339 144.44857972823064 83.20767651156581 144.9342486620319 83.4962060124102 145.42944119618045 83.78831833819852 145.93469382035835 84.08413395443625 146.45058455401397 84.38377992275534 146.97773738711854 84.687390442601 147.51682733340283 84.99510745259803 148.0685862012064 85.30708130008198 148.6338092089107 85.62347148877475 149.2133625991445 85.94444751639986 149.80819244009552 86.27018981624384 150.41933484539797 86.60089081938696 151.0479278989568 86.9367561576806 151.69522564148448 87.2780060317196 152.3626145666024 87.62487677328389 153.05163319323952 87.97762263832189 153.76399543774127 88.33651787494773 154.50161871775538 88.70185912171763 155.26665800099056 89.07396820545289 156.06154739508722 89.45319542623497 156.88905140417535 89.83992344154859 157.75232871967245 90.23457189424849 158.6550124695172 90.63760297355043 159.60131238129077 91.04952815978979 160.59614657697762 91.47091649018901 161.6453141320032 91.90240480672225 162.75572481131306 92.34471062820373 163.93571078373432 92.79864855962244 165.19545885958058 93.26515156799672 166.54762512472388 93.74529911336847 168.00823509964323 94.24035520540951 169.5980491162764 94.75182130612109 171.34472312695547 95.28151232237852 173.2864125989366 95.83167026976209 175.47819799222322 96.40514320894587 178.00459502996475 97.00568648496953 181.00708177658134 97.63851892777375 184.75693252107686 98.31150043628 189.92138815089424 99.03827355437093 200 99.85294662084821 192.15915410472485 100.71459041608652  z " stroke="#DDDDDD" stroke-width="1" stroke-opacity="1" fill="#888888" fill-opacity="0.5" visibility="visible" transform="rotate(50,0,0)"/>
</g></svg>