<?xml version="1.0" standalone="no"?>
<!DOCTYPE svg PUBLIC "-//W3C//DTD SVG 1.1//EN" "http://www.w3.org/Graphics/SVG/1.1/DTD/svg11.dtd">
<svg width="100%" height="100%" version="1.1" xmlns="http://www.w3.org/2000/svg">
<desc>Magic box - output file</desc>
<g transform='scale(2.83464567)'>
<path id="pressfit_defs" x="0" y="0" d="m 0 0     " stroke="#000000" stroke-width="1" stroke-opacity="1" fill="none" visibility="visible" transform=""/>
<path id="legsupport" x="0" y="0" d="m 0 0   h 462.0845070422535 v 37.5 h -12.042253521126762 v 54.113666666666695 h 12.042253521126762 v 37.5 h -12.042253521126762 v 25.833333333333336 h -24.583333333333332 v -117.44700000000003 h -388.8333333333333 v 117.44700000000003 h -24.583333333333332 v -25.833333333333336 h -12.042253521126762 v -37.5 h 12.042253521126762 v -54.113666666666695 h -12.042253521126762 v -37.5 m 528 0   h 462.0845070422535 v 37.5 h -12.042253521126762 v 51.44966666666665 h 12.042253521126762 v 37.5 h -12.042253521126762 v 25.833333333333336 h -24.583333333333332 v -114.78299999999999 h -388.8333333333333 v 114.78299999999999 h -24.583333333333332 v -25.833333333333336 h -12.042253521126762 v -37.5 h 12.042253521126762 v -51.44966666666665 h -12.042253521126762 v -37.5 m 528 0   h 462.0845070422535 v 37.5 h -12.042253521126762 v 51.44966666666665 h 12.042253521126762 v 37.5 h -12.042253521126762 v 25.833333333333336 h -24.583333333333332 v -114.78299999999999 h -388.8333333333333 v 114.78299999999999 h -24.583333333333332 v -25.833333333333336 h -12.042253521126762 v -37.5 h 12.042253521126762 v -51.44966666666665 h -12.042253521126762 v -37.5 m 528 0 " stroke="#000000" stroke-width="1" stroke-opacity="1" fill="#999999" fill-opacity="1" visibility="visible" transform="translate(1543.661971830986,0)"/>
<path id="front" x="0" y="0" d="m 0 0 m 1369.5000000000002 1063 L 1369.5000000000002,1063 1294.5000000000002,1063 1294.5000000000002,862.5 1144.5000000000002,862.5 1144.5000000000002,1063 1069.5000000000002,1063 1069.5000000000002,862.5 1069.5000000000002,677.7499999999999 599.9999999999999,677.7499999999999 599.9999999999999,858.5 75,858.5 75,1063 0,1063 0,858.5 0,528.5 153.00000000000006,528.5 153.00000000000006,450 153.00000000000006,0 603,0 603,227.75000000000003 1144.6666666666667,227.75000000000003 1144.6666666666667,412.5 1369.5000000000002,412.5 1369.5000000000002,862.5 1369.5000000000002,1063  M 1144.5000000000002 487.5     m -6.021126760563381 -6.021126760563381  v 6.021126760563381 h 6.021126760563381   v 9  h -6.021126760563381 v 15  h 6.021126760563381 v 21.6  h -6.021126760563381 v 15  h 6.021126760563381 v 6  h -6.021126760563381 v 15  h 6.021126760563381 v 21.6  h -6.021126760563381 v 15  h 6.021126760563381 v 6  h -6.021126760563381 v 15  h 6.021126760563381 v 21.6  h -6.021126760563381 v 15  h 6.021126760563381 v 6  h -6.021126760563381 v 15  h 6.021126760563381 v 21.6  h -6.021126760563381 v 15  h 6.021126760563381 v 6  h -6.021126760563381 v 15  h 6.021126760563381 v 21.6  h -6.021126760563381 v 15  h 6.021126760563381 v 6  h -6.021126760563381 v 15  h 6.021126760563381 v 9    h -6.021126760563381 v 6.021126760563381 h 6.021126760563381   h 9  v -6.021126760563381 h 20  v 6.021126760563381 h 15  v -6.021126760563381 h 6  v 6.021126760563381 h 15  v -6.021126760563381 h 20  v 6.021126760563381 h 15  v -6.021126760563381 h 6  v 6.021126760563381 h 15  v -6.021126760563381 h 20  v 6.021126760563381 h 9    h 6.021126760563381 v -6.021126760563381 h -6.021126760563381   v -9  h 6.021126760563381 v -15  h -6.021126760563381 v -21.6  h 6.021126760563381 v -15  h -6.021126760563381 v -6  h 6.021126760563381 v -15  h -6.021126760563381 v -21.6  h 6.021126760563381 v -15  h -6.021126760563381 v -6  h 6.021126760563381 v -15  h -6.021126760563381 v -21.6  h 6.021126760563381 v -15  h -6.021126760563381 v -6  h 6.021126760563381 v -15  h -6.021126760563381 v -21.6  h 6.021126760563381 v -15  h -6.021126760563381 v -6  h 6.021126760563381 v -15  h -6.021126760563381 v -21.6  h 6.021126760563381 v -15  h -6.021126760563381 v -6  h 6.021126760563381 v -15  h -6.021126760563381 v -9    h 6.021126760563381 v -6.021126760563381 h -6.021126760563381   h -9  v 6.021126760563381 h -20  v -6.021126760563381 h -15  v 6.021126760563381 h -6  v -6.021126760563381 h -15  v 6.021126760563381 h -20  v -6.021126760563381 h -15  v 6.021126760563381 h -6  v -6.021126760563381 h -15  v 6.021126760563381 h -20  v -6.021126760563381 h -9    h -6.021126760563381  M 228.00000000000006 75     m -12.042253521126762 -12.042253521126762  v 12.042253521126762   v 18  h 12.042253521126762 v 40  h -12.042253521126762 v 30  h 12.042253521126762 v 12  h -12.042253521126762 v 30  h 12.042253521126762 v 40  h -12.042253521126762 v 30  h 12.042253521126762 v 12  h -12.042253521126762 v 30  h 12.042253521126762 v 40  h -12.042253521126762 v 18    v 12.042253521126762 h 12.042253521126762 v -12.042253521126762   h 12  v 12.042253521126762 h 30  v -12.042253521126762 h 12  v 12.042253521126762 h 30  v -12.042253521126762 h 30  v 12.042253521126762 h 30  v -12.042253521126762 h 12  v 12.042253521126762 h 30  v -12.042253521126762 h 30  v 12.042253521126762 h 30  v -12.042253521126762 h 12  v 12.042253521126762 h 30  v -12.042253521126762 h 12    v 12.042253521126762 h 12.042253521126762 v -12.042253521126762   v -18  h -12.042253521126762 v -40  h 12.042253521126762 v -30  h -12.042253521126762 v -12  h 12.042253521126762 v -30  h -12.042253521126762 v -40  h 12.042253521126762 v -30  h -12.042253521126762 v -12  h 12.042253521126762 v -30  h -12.042253521126762 v -40  h 12.042253521126762 v -18    v -12.042253521126762 h -12.042253521126762 v 12.042253521126762   h -12  v -12.042253521126762 h -30  v 12.042253521126762 h -12  v -12.042253521126762 h -30  v 12.042253521126762 h -30  v -12.042253521126762 h -30  v 12.042253521126762 h -12  v -12.042253521126762 h -30  v 12.042253521126762 h -30  v -12.042253521126762 h -30  v 12.042253521126762 h -12  v -12.042253521126762 h -30  v 12.042253521126762 h -12    v -12.042253521126762 h -12.042253521126762  M 603 302.75     m -12.042253521126762 -12.042253521126762  v 12.042253521126762   v 18  h 12.042253521126762 v 40  h -12.042253521126762 v 30  h 12.042253521126762 v 12  h -12.042253521126762 v 30  h 12.042253521126762 v 40  h -12.042253521126762 v 30  h 12.042253521126762 v 12  h -12.042253521126762 v 30  h 12.042253521126762 v 40  h -12.042253521126762 v 18    v 12.042253521126762 h 12.042253521126762 v -12.042253521126762   h 12  v 12.042253521126762 h 30  v -12.042253521126762 h 40  v 12.042253521126762 h 30  v -12.042253521126762 h 12  v 12.042253521126762 h 30  v -12.042253521126762 h 40  v 12.042253521126762 h 30  v -12.042253521126762 h 12  v 12.042253521126762 h 30  v -12.042253521126762 h 40  v 12.042253521126762 h 30  v -12.042253521126762 h 12  v 12.042253521126762 h 30  v -12.042253521126762 h 40  v 12.042253521126762 h 30  v -12.042253521126762 h 12    v 12.042253521126762 h 12.042253521126762 v -12.042253521126762   v -18  h -12.042253521126762 v -40  h 12.042253521126762 v -30  h -12.042253521126762 v -12  h 12.042253521126762 v -30  h -12.042253521126762 v -40  h 12.042253521126762 v -30  h -12.042253521126762 v -12  h 12.042253521126762 v -30  h -12.042253521126762 v -40  h 12.042253521126762 v -18    v -12.042253521126762 h -12.042253521126762 v 12.042253521126762   h -12  v -12.042253521126762 h -30  v 12.042253521126762 h -40  v -12.042253521126762 h -30  v 12.042253521126762 h -12  v -12.042253521126762 h -30  v 12.042253521126762 h -40  v -12.042253521126762 h -30  v 12.042253521126762 h -12  v -12.042253521126762 h -30  v 12.042253521126762 h -40  v -12.042253521126762 h -30  v 12.042253521126762 h -12  v -12.042253521126762 h -30  v 12.042253521126762 h -40  v -12.042253521126762 h -30  v 12.042253521126762 h -12    v -12.042253521126762 h -12.042253521126762  M 75 603.5     m -18.063380281690144 -18.063380281690144  v 18.063380281690144 h 18.063380281690144   v 18  h -18.063380281690144 v 45  h 18.063380281690144 v 54  h -18.063380281690144 v 45  h 18.063380281690144 v 18    h -18.063380281690144 v 18.063380281690144 h 18.063380281690144   h 27  v -18.063380281690144 h 60  v 18.063380281690144 h 45  v -18.063380281690144 h 18  v 18.063380281690144 h 45  v -18.063380281690144 h 60  v 18.063380281690144 h 45  v -18.063380281690144 h 18  v 18.063380281690144 h 45  v -18.063380281690144 h 60  v 18.063380281690144 h 27    h 18.063380281690144 v -18.063380281690144 h -18.063380281690144   v -18  h 18.063380281690144 v -45  h -18.063380281690144 v -54  h 18.063380281690144 v -45  h -18.063380281690144 v -18    h 18.063380281690144 v -18.063380281690144 h -18.063380281690144   h -27  v 18.063380281690144 h -60  v -18.063380281690144 h -45  v 18.063380281690144 h -18  v -18.063380281690144 h -45  v 18.063380281690144 h -60  v -18.063380281690144 h -45  v 18.063380281690144 h -18  v -18.063380281690144 h -45  v 18.063380281690144 h -60  v -18.063380281690144 h -27    h -18.063380281690144   M 0 0 m 528 450 L 528,450 228.00000000000006,450 228.00000000000006,528.5 528,528.5 528,450   M 37.5 926.803  m -6.021126760563381 -18.75 v 37.5 h 12.042253521126762 v -37.5 h -12.042253521126762  m 6.021126760563381 18.75  M 37.5 1018.4166666666667  m -6.021126760563381 -18.75 v 37.5 h 12.042253521126762 v -37.5 h -12.042253521126762  m 6.021126760563381 18.75   M 1332.0000000000002 929.467  m -6.021126760563381 -18.75 v 37.5 h 12.042253521126762 v -37.5 h -12.042253521126762  m 6.021126760563381 18.75  M 1332.0000000000002 1018.4166666666667  m -6.021126760563381 -18.75 v 37.5 h 12.042253521126762 v -37.5 h -12.042253521126762  m 6.021126760563381 18.75   M 1107.0000000000002 929.467  m -6.021126760563381 -18.75 v 37.5 h 12.042253521126762 v -37.5 h -12.042253521126762  m 6.021126760563381 18.75  M 1107.0000000000002 1018.4166666666667  m -6.021126760563381 -18.75 v 37.5 h 12.042253521126762 v -37.5 h -12.042253521126762  m 6.021126760563381 18.75   " stroke="#000000" stroke-width="0.001mm" stroke-opacity="1" fill="#999999" fill-opacity="1" visibility="visible" transform=""/>
<path id="boxes" x="0" y="0" d="m 0 0  M 0 50        v 33  h -6.021126760563381 v 18  h 6.021126760563381 v 45  h -6.021126760563381 v 50  h 6.021126760563381 v 45  h -6.021126760563381 v 18  h 6.021126760563381 v 45  h -6.021126760563381 v 50  h 6.021126760563381 v 45  h -6.021126760563381 v 18  h 6.021126760563381 v 33      h 9  v 12.042253521126762 h 15  v -12.042253521126762 h 21.6  v 12.042253521126762 h 15  v -12.042253521126762 h 6  v 12.042253521126762 h 15  v -12.042253521126762 h 21.6  v 12.042253521126762 h 15  v -12.042253521126762 h 6  v 12.042253521126762 h 15  v -12.042253521126762 h 21.6  v 12.042253521126762 h 15  v -12.042253521126762 h 6  v 12.042253521126762 h 15  v -12.042253521126762 h 21.6  v 12.042253521126762 h 15  v -12.042253521126762 h 6  v 12.042253521126762 h 15  v -12.042253521126762 h 21.6  v 12.042253521126762 h 15  v -12.042253521126762 h 6  v 12.042253521126762 h 15  v -12.042253521126762 h 9      v -33  h 6.021126760563381 v -18  h -6.021126760563381 v -45  h 6.021126760563381 v -50  h -6.021126760563381 v -45  h 6.021126760563381 v -18  h -6.021126760563381 v -45  h 6.021126760563381 v -50  h -6.021126760563381 v -45  h 6.021126760563381 v -18  h -6.021126760563381 v -33      h -9  v -12.042253521126762 h -15  v 12.042253521126762 h -21.6  v -12.042253521126762 h -15  v 12.042253521126762 h -6  v -12.042253521126762 h -15  v 12.042253521126762 h -21.6  v -12.042253521126762 h -15  v 12.042253521126762 h -6  v -12.042253521126762 h -15  v 12.042253521126762 h -21.6  v -12.042253521126762 h -15  v 12.042253521126762 h -6  v -12.042253521126762 h -15  v 12.042253521126762 h -21.6  v -12.042253521126762 h -15  v 12.042253521126762 h -6  v -12.042253521126762 h -15  v 12.042253521126762 h -21.6  v -12.042253521126762 h -15  v 12.042253521126762 h -6  v -12.042253521126762 h -15  v 12.042253521126762 h -9      m 436 -12.042253521126762 v 12.042253521126762   v 33  h 6.021126760563381 v 18  h -6.021126760563381 v 45  h 6.021126760563381 v 50  h -6.021126760563381 v 45  h 6.021126760563381 v 18  h -6.021126760563381 v 45  h 6.021126760563381 v 50  h -6.021126760563381 v 45  h 6.021126760563381 v 18  h -6.021126760563381 v 33    v 12.042253521126762 h 6.021126760563381   h 9  v -12.042253521126762 h 20  v 12.042253521126762 h 15  v -12.042253521126762 h 6  v 12.042253521126762 h 15  v -12.042253521126762 h 20  v 12.042253521126762 h 15  v -12.042253521126762 h 6  v 12.042253521126762 h 15  v -12.042253521126762 h 20  v 12.042253521126762 h 9    h 6.021126760563381 v -12.042253521126762   v -33  h -6.021126760563381 v -18  h 6.021126760563381 v -45  h -6.021126760563381 v -50  h 6.021126760563381 v -45  h -6.021126760563381 v -18  h 6.021126760563381 v -45  h -6.021126760563381 v -50  h 6.021126760563381 v -45  h -6.021126760563381 v -18  h 6.021126760563381 v -33    v -12.042253521126762 h -6.021126760563381   h -9  v 12.042253521126762 h -20  v -12.042253521126762 h -15  v 12.042253521126762 h -6  v -12.042253521126762 h -15  v 12.042253521126762 h -20  v -12.042253521126762 h -15  v 12.042253521126762 h -6  v -12.042253521126762 h -15  v 12.042253521126762 h -20  v -12.042253521126762 h -9    h -6.021126760563381 m 262 12.042253521126762   v 33  h -6.021126760563381 v 18  h 6.021126760563381 v 45  h -6.021126760563381 v 50  h 6.021126760563381 v 45  h -6.021126760563381 v 18  h 6.021126760563381 v 45  h -6.021126760563381 v 50  h 6.021126760563381 v 45  h -6.021126760563381 v 18  h 6.021126760563381 v 33      h 9  v 12.042253521126762 h 15  v -12.042253521126762 h 21.6  v 12.042253521126762 h 15  v -12.042253521126762 h 6  v 12.042253521126762 h 15  v -12.042253521126762 h 21.6  v 12.042253521126762 h 15  v -12.042253521126762 h 6  v 12.042253521126762 h 15  v -12.042253521126762 h 21.6  v 12.042253521126762 h 15  v -12.042253521126762 h 6  v 12.042253521126762 h 15  v -12.042253521126762 h 21.6  v 12.042253521126762 h 15  v -12.042253521126762 h 6  v 12.042253521126762 h 15  v -12.042253521126762 h 21.6  v 12.042253521126762 h 15  v -12.042253521126762 h 6  v 12.042253521126762 h 15  v -12.042253521126762 h 9      v -33  h 6.021126760563381 v -18  h -6.021126760563381 v -45  h 6.021126760563381 v -50  h -6.021126760563381 v -45  h 6.021126760563381 v -18  h -6.021126760563381 v -45  h 6.021126760563381 v -50  h -6.021126760563381 v -45  h 6.021126760563381 v -18  h -6.021126760563381 v -33      h -9  v -12.042253521126762 h -15  v 12.042253521126762 h -21.6  v -12.042253521126762 h -15  v 12.042253521126762 h -6  v -12.042253521126762 h -15  v 12.042253521126762 h -21.6  v -12.042253521126762 h -15  v 12.042253521126762 h -6  v -12.042253521126762 h -15  v 12.042253521126762 h -21.6  v -12.042253521126762 h -15  v 12.042253521126762 h -6  v -12.042253521126762 h -15  v 12.042253521126762 h -21.6  v -12.042253521126762 h -15  v 12.042253521126762 h -6  v -12.042253521126762 h -15  v 12.042253521126762 h -21.6  v -12.042253521126762 h -15  v 12.042253521126762 h -6  v -12.042253521126762 h -15  v 12.042253521126762 h -9    m 436 -12.042253521126762 v 12.042253521126762   v 33  h 6.021126760563381 v 18  h -6.021126760563381 v 45  h 6.021126760563381 v 50  h -6.021126760563381 v 45  h 6.021126760563381 v 18  h -6.021126760563381 v 45  h 6.021126760563381 v 50  h -6.021126760563381 v 45  h 6.021126760563381 v 18  h -6.021126760563381 v 33    v 12.042253521126762 h 6.021126760563381   h 9  v -12.042253521126762 h 20  v 12.042253521126762 h 15  v -12.042253521126762 h 6  v 12.042253521126762 h 15  v -12.042253521126762 h 20  v 12.042253521126762 h 15  v -12.042253521126762 h 6  v 12.042253521126762 h 15  v -12.042253521126762 h 20  v 12.042253521126762 h 9    h 6.021126760563381 v -12.042253521126762   v -33  h -6.021126760563381 v -18  h 6.021126760563381 v -45  h -6.021126760563381 v -50  h 6.021126760563381 v -45  h -6.021126760563381 v -18  h 6.021126760563381 v -45  h -6.021126760563381 v -50  h 6.021126760563381 v -45  h -6.021126760563381 v -18  h 6.021126760563381 v -33    v -12.042253521126762 h -6.021126760563381   h -9  v 12.042253521126762 h -20  v -12.042253521126762 h -15  v 12.042253521126762 h -6  v -12.042253521126762 h -15  v 12.042253521126762 h -20  v -12.042253521126762 h -15  v 12.042253521126762 h -6  v -12.042253521126762 h -15  v 12.042253521126762 h -20  v -12.042253521126762 h -9    h -6.021126760563381  M 0 488        v 33  h -12.042253521126762 v 18  h 12.042253521126762 v 45  h -12.042253521126762 v 50  h 12.042253521126762 v 45  h -12.042253521126762 v 18  h 12.042253521126762 v 45  h -12.042253521126762 v 50  h 12.042253521126762 v 45  h -12.042253521126762 v 18  h 12.042253521126762 v 33      h 12  v 12.042253521126762 h 30  v -12.042253521126762 h 12  v 12.042253521126762 h 30  v -12.042253521126762 h 30  v 12.042253521126762 h 30  v -12.042253521126762 h 12  v 12.042253521126762 h 30  v -12.042253521126762 h 30  v 12.042253521126762 h 30  v -12.042253521126762 h 12  v 12.042253521126762 h 30  v -12.042253521126762 h 12      v -33  h 12.042253521126762 v -18  h -12.042253521126762 v -45  h 12.042253521126762 v -50  h -12.042253521126762 v -45  h 12.042253521126762 v -18  h -12.042253521126762 v -45  h 12.042253521126762 v -50  h -12.042253521126762 v -45  h 12.042253521126762 v -18  h -12.042253521126762 v -33      h -12  v -12.042253521126762 h -30  v 12.042253521126762 h -12  v -12.042253521126762 h -30  v 12.042253521126762 h -30  v -12.042253521126762 h -30  v 12.042253521126762 h -12  v -12.042253521126762 h -30  v 12.042253521126762 h -30  v -12.042253521126762 h -30  v 12.042253521126762 h -12  v -12.042253521126762 h -30  v 12.042253521126762 h -12      m 388 -12.042253521126762 v 12.042253521126762   v 33  h 12.042253521126762 v 18  h -12.042253521126762 v 45  h 12.042253521126762 v 50  h -12.042253521126762 v 45  h 12.042253521126762 v 18  h -12.042253521126762 v 45  h 12.042253521126762 v 50  h -12.042253521126762 v 45  h 12.042253521126762 v 18  h -12.042253521126762 v 33    v 12.042253521126762 h 12.042253521126762   h 18  v -12.042253521126762 h 40  v 12.042253521126762 h 30  v -12.042253521126762 h 12  v 12.042253521126762 h 30  v -12.042253521126762 h 40  v 12.042253521126762 h 30  v -12.042253521126762 h 12  v 12.042253521126762 h 30  v -12.042253521126762 h 40  v 12.042253521126762 h 18    h 12.042253521126762 v -12.042253521126762   v -33  h -12.042253521126762 v -18  h 12.042253521126762 v -45  h -12.042253521126762 v -50  h 12.042253521126762 v -45  h -12.042253521126762 v -18  h 12.042253521126762 v -45  h -12.042253521126762 v -50  h 12.042253521126762 v -45  h -12.042253521126762 v -18  h 12.042253521126762 v -33    v -12.042253521126762 h -12.042253521126762   h -18  v 12.042253521126762 h -40  v -12.042253521126762 h -30  v 12.042253521126762 h -12  v -12.042253521126762 h -30  v 12.042253521126762 h -40  v -12.042253521126762 h -30  v 12.042253521126762 h -12  v -12.042253521126762 h -30  v 12.042253521126762 h -40  v -12.042253521126762 h -18    h -12.042253521126762 m 424 12.042253521126762   v 33  h -12.042253521126762 v 18  h 12.042253521126762 v 45  h -12.042253521126762 v 50  h 12.042253521126762 v 45  h -12.042253521126762 v 18  h 12.042253521126762 v 45  h -12.042253521126762 v 50  h 12.042253521126762 v 45  h -12.042253521126762 v 18  h 12.042253521126762 v 33      h 12  v 12.042253521126762 h 30  v -12.042253521126762 h 12  v 12.042253521126762 h 30  v -12.042253521126762 h 30  v 12.042253521126762 h 30  v -12.042253521126762 h 12  v 12.042253521126762 h 30  v -12.042253521126762 h 30  v 12.042253521126762 h 30  v -12.042253521126762 h 12  v 12.042253521126762 h 30  v -12.042253521126762 h 12      v -33  h 12.042253521126762 v -18  h -12.042253521126762 v -45  h 12.042253521126762 v -50  h -12.042253521126762 v -45  h 12.042253521126762 v -18  h -12.042253521126762 v -45  h 12.042253521126762 v -50  h -12.042253521126762 v -45  h 12.042253521126762 v -18  h -12.042253521126762 v -33      h -12  v -12.042253521126762 h -30  v 12.042253521126762 h -12  v -12.042253521126762 h -30  v 12.042253521126762 h -30  v -12.042253521126762 h -30  v 12.042253521126762 h -12  v -12.042253521126762 h -30  v 12.042253521126762 h -30  v -12.042253521126762 h -30  v 12.042253521126762 h -12  v -12.042253521126762 h -30  v 12.042253521126762 h -12    m 388 -12.042253521126762 v 12.042253521126762   v 33  h 12.042253521126762 v 18  h -12.042253521126762 v 45  h 12.042253521126762 v 50  h -12.042253521126762 v 45  h 12.042253521126762 v 18  h -12.042253521126762 v 45  h 12.042253521126762 v 50  h -12.042253521126762 v 45  h 12.042253521126762 v 18  h -12.042253521126762 v 33    v 12.042253521126762 h 12.042253521126762   h 18  v -12.042253521126762 h 40  v 12.042253521126762 h 30  v -12.042253521126762 h 12  v 12.042253521126762 h 30  v -12.042253521126762 h 40  v 12.042253521126762 h 30  v -12.042253521126762 h 12  v 12.042253521126762 h 30  v -12.042253521126762 h 40  v 12.042253521126762 h 18    h 12.042253521126762 v -12.042253521126762   v -33  h -12.042253521126762 v -18  h 12.042253521126762 v -45  h -12.042253521126762 v -50  h 12.042253521126762 v -45  h -12.042253521126762 v -18  h 12.042253521126762 v -45  h -12.042253521126762 v -50  h 12.042253521126762 v -45  h -12.042253521126762 v -18  h 12.042253521126762 v -33    v -12.042253521126762 h -12.042253521126762   h -18  v 12.042253521126762 h -40  v -12.042253521126762 h -30  v 12.042253521126762 h -12  v -12.042253521126762 h -30  v 12.042253521126762 h -40  v -12.042253521126762 h -30  v 12.042253521126762 h -12  v -12.042253521126762 h -30  v 12.042253521126762 h -40  v -12.042253521126762 h -18    h -12.042253521126762  M 0 926        v 33  h -12.042253521126762 v 18  h 12.042253521126762 v 45  h -12.042253521126762 v 50  h 12.042253521126762 v 45  h -12.042253521126762 v 18  h 12.042253521126762 v 45  h -12.042253521126762 v 50  h 12.042253521126762 v 45  h -12.042253521126762 v 18  h 12.042253521126762 v 33      h 12  v 12.042253521126762 h 30  v -12.042253521126762 h 40  v 12.042253521126762 h 30  v -12.042253521126762 h 12  v 12.042253521126762 h 30  v -12.042253521126762 h 40  v 12.042253521126762 h 30  v -12.042253521126762 h 12  v 12.042253521126762 h 30  v -12.042253521126762 h 40  v 12.042253521126762 h 30  v -12.042253521126762 h 12  v 12.042253521126762 h 30  v -12.042253521126762 h 40  v 12.042253521126762 h 30  v -12.042253521126762 h 12      v -33  h 12.042253521126762 v -18  h -12.042253521126762 v -45  h 12.042253521126762 v -50  h -12.042253521126762 v -45  h 12.042253521126762 v -18  h -12.042253521126762 v -45  h 12.042253521126762 v -50  h -12.042253521126762 v -45  h 12.042253521126762 v -18  h -12.042253521126762 v -33      h -12  v -12.042253521126762 h -30  v 12.042253521126762 h -40  v -12.042253521126762 h -30  v 12.042253521126762 h -12  v -12.042253521126762 h -30  v 12.042253521126762 h -40  v -12.042253521126762 h -30  v 12.042253521126762 h -12  v -12.042253521126762 h -30  v 12.042253521126762 h -40  v -12.042253521126762 h -30  v 12.042253521126762 h -12  v -12.042253521126762 h -30  v 12.042253521126762 h -40  v -12.042253521126762 h -30  v 12.042253521126762 h -12      m 548 -12.042253521126762 v 12.042253521126762   v 33  h 12.042253521126762 v 18  h -12.042253521126762 v 45  h 12.042253521126762 v 50  h -12.042253521126762 v 45  h 12.042253521126762 v 18  h -12.042253521126762 v 45  h 12.042253521126762 v 50  h -12.042253521126762 v 45  h 12.042253521126762 v 18  h -12.042253521126762 v 33    v 12.042253521126762 h 12.042253521126762   h 18  v -12.042253521126762 h 40  v 12.042253521126762 h 30  v -12.042253521126762 h 12  v 12.042253521126762 h 30  v -12.042253521126762 h 40  v 12.042253521126762 h 30  v -12.042253521126762 h 12  v 12.042253521126762 h 30  v -12.042253521126762 h 40  v 12.042253521126762 h 18    h 12.042253521126762 v -12.042253521126762   v -33  h -12.042253521126762 v -18  h 12.042253521126762 v -45  h -12.042253521126762 v -50  h 12.042253521126762 v -45  h -12.042253521126762 v -18  h 12.042253521126762 v -45  h -12.042253521126762 v -50  h 12.042253521126762 v -45  h -12.042253521126762 v -18  h 12.042253521126762 v -33    v -12.042253521126762 h -12.042253521126762   h -18  v 12.042253521126762 h -40  v -12.042253521126762 h -30  v 12.042253521126762 h -12  v -12.042253521126762 h -30  v 12.042253521126762 h -40  v -12.042253521126762 h -30  v 12.042253521126762 h -12  v -12.042253521126762 h -30  v 12.042253521126762 h -40  v -12.042253521126762 h -18    h -12.042253521126762 m 424 12.042253521126762   v 33  h -12.042253521126762 v 18  h 12.042253521126762 v 45  h -12.042253521126762 v 50  h 12.042253521126762 v 45  h -12.042253521126762 v 18  h 12.042253521126762 v 45  h -12.042253521126762 v 50  h 12.042253521126762 v 45  h -12.042253521126762 v 18  h 12.042253521126762 v 33      h 12  v 12.042253521126762 h 30  v -12.042253521126762 h 40  v 12.042253521126762 h 30  v -12.042253521126762 h 12  v 12.042253521126762 h 30  v -12.042253521126762 h 40  v 12.042253521126762 h 30  v -12.042253521126762 h 12  v 12.042253521126762 h 30  v -12.042253521126762 h 40  v 12.042253521126762 h 30  v -12.042253521126762 h 12  v 12.042253521126762 h 30  v -12.042253521126762 h 40  v 12.042253521126762 h 30  v -12.042253521126762 h 12      v -33  h 12.042253521126762 v -18  h -12.042253521126762 v -45  h 12.042253521126762 v -50  h -12.042253521126762 v -45  h 12.042253521126762 v -18  h -12.042253521126762 v -45  h 12.042253521126762 v -50  h -12.042253521126762 v -45  h 12.042253521126762 v -18  h -12.042253521126762 v -33      h -12  v -12.042253521126762 h -30  v 12.042253521126762 h -40  v -12.042253521126762 h -30  v 12.042253521126762 h -12  v -12.042253521126762 h -30  v 12.042253521126762 h -40  v -12.042253521126762 h -30  v 12.042253521126762 h -12  v -12.042253521126762 h -30  v 12.042253521126762 h -40  v -12.042253521126762 h -30  v 12.042253521126762 h -12  v -12.042253521126762 h -30  v 12.042253521126762 h -40  v -12.042253521126762 h -30  v 12.042253521126762 h -12    m 548 -12.042253521126762 v 12.042253521126762   v 33  h 12.042253521126762 v 18  h -12.042253521126762 v 45  h 12.042253521126762 v 50  h -12.042253521126762 v 45  h 12.042253521126762 v 18  h -12.042253521126762 v 45  h 12.042253521126762 v 50  h -12.042253521126762 v 45  h 12.042253521126762 v 18  h -12.042253521126762 v 33    v 12.042253521126762 h 12.042253521126762   h 18  v -12.042253521126762 h 40  v 12.042253521126762 h 30  v -12.042253521126762 h 12  v 12.042253521126762 h 30  v -12.042253521126762 h 40  v 12.042253521126762 h 30  v -12.042253521126762 h 12  v 12.042253521126762 h 30  v -12.042253521126762 h 40  v 12.042253521126762 h 18    h 12.042253521126762 v -12.042253521126762   v -33  h -12.042253521126762 v -18  h 12.042253521126762 v -45  h -12.042253521126762 v -50  h 12.042253521126762 v -45  h -12.042253521126762 v -18  h 12.042253521126762 v -45  h -12.042253521126762 v -50  h 12.042253521126762 v -45  h -12.042253521126762 v -18  h 12.042253521126762 v -33    v -12.042253521126762 h -12.042253521126762   h -18  v 12.042253521126762 h -40  v -12.042253521126762 h -30  v 12.042253521126762 h -12  v -12.042253521126762 h -30  v 12.042253521126762 h -40  v -12.042253521126762 h -30  v 12.042253521126762 h -12  v -12.042253521126762 h -30  v 12.042253521126762 h -40  v -12.042253521126762 h -18    h -12.042253521126762  M 0 1364        v 33  h -18.063380281690144 v 18  h 18.063380281690144 v 45  h -18.063380281690144 v 50  h 18.063380281690144 v 45  h -18.063380281690144 v 18  h 18.063380281690144 v 45  h -18.063380281690144 v 50  h 18.063380281690144 v 45  h -18.063380281690144 v 18  h 18.063380281690144 v 33      h 18  v 12.042253521126762 h 45  v -12.042253521126762 h 54  v 12.042253521126762 h 45  v -12.042253521126762 h 18      v -33  h 18.063380281690144 v -18  h -18.063380281690144 v -45  h 18.063380281690144 v -50  h -18.063380281690144 v -45  h 18.063380281690144 v -18  h -18.063380281690144 v -45  h 18.063380281690144 v -50  h -18.063380281690144 v -45  h 18.063380281690144 v -18  h -18.063380281690144 v -33      h -18  v -12.042253521126762 h -45  v 12.042253521126762 h -54  v -12.042253521126762 h -45  v 12.042253521126762 h -18      m 532 -12.042253521126762 v 12.042253521126762   v 33  h 18.063380281690144 v 18  h -18.063380281690144 v 45  h 18.063380281690144 v 50  h -18.063380281690144 v 45  h 18.063380281690144 v 18  h -18.063380281690144 v 45  h 18.063380281690144 v 50  h -18.063380281690144 v 45  h 18.063380281690144 v 18  h -18.063380281690144 v 33    v 12.042253521126762 h 18.063380281690144   h 27  v -12.042253521126762 h 60  v 12.042253521126762 h 45  v -12.042253521126762 h 18  v 12.042253521126762 h 45  v -12.042253521126762 h 60  v 12.042253521126762 h 45  v -12.042253521126762 h 18  v 12.042253521126762 h 45  v -12.042253521126762 h 60  v 12.042253521126762 h 27    h 18.063380281690144 v -12.042253521126762   v -33  h -18.063380281690144 v -18  h 18.063380281690144 v -45  h -18.063380281690144 v -50  h 18.063380281690144 v -45  h -18.063380281690144 v -18  h 18.063380281690144 v -45  h -18.063380281690144 v -50  h 18.063380281690144 v -45  h -18.063380281690144 v -18  h 18.063380281690144 v -33    v -12.042253521126762 h -18.063380281690144   h -27  v 12.042253521126762 h -60  v -12.042253521126762 h -45  v 12.042253521126762 h -18  v -12.042253521126762 h -45  v 12.042253521126762 h -60  v -12.042253521126762 h -45  v 12.042253521126762 h -18  v -12.042253521126762 h -45  v 12.042253521126762 h -60  v -12.042253521126762 h -27    h -18.063380281690144 m 586 12.042253521126762   v 33  h -18.063380281690144 v 18  h 18.063380281690144 v 45  h -18.063380281690144 v 50  h 18.063380281690144 v 45  h -18.063380281690144 v 18  h 18.063380281690144 v 45  h -18.063380281690144 v 50  h 18.063380281690144 v 45  h -18.063380281690144 v 18  h 18.063380281690144 v 33      h 18  v 12.042253521126762 h 45  v -12.042253521126762 h 54  v 12.042253521126762 h 45  v -12.042253521126762 h 18      v -33  h 18.063380281690144 v -18  h -18.063380281690144 v -45  h 18.063380281690144 v -50  h -18.063380281690144 v -45  h 18.063380281690144 v -18  h -18.063380281690144 v -45  h 18.063380281690144 v -50  h -18.063380281690144 v -45  h 18.063380281690144 v -18  h -18.063380281690144 v -33      h -18  v -12.042253521126762 h -45  v 12.042253521126762 h -54  v -12.042253521126762 h -45  v 12.042253521126762 h -18    m 532 -12.042253521126762 v 12.042253521126762   v 33  h 18.063380281690144 v 18  h -18.063380281690144 v 45  h 18.063380281690144 v 50  h -18.063380281690144 v 45  h 18.063380281690144 v 18  h -18.063380281690144 v 45  h 18.063380281690144 v 50  h -18.063380281690144 v 45  h 18.063380281690144 v 18  h -18.063380281690144 v 33    v 12.042253521126762 h 18.063380281690144   h 27  v -12.042253521126762 h 60  v 12.042253521126762 h 45  v -12.042253521126762 h 18  v 12.042253521126762 h 45  v -12.042253521126762 h 60  v 12.042253521126762 h 45  v -12.042253521126762 h 18  v 12.042253521126762 h 45  v -12.042253521126762 h 60  v 12.042253521126762 h 27    h 18.063380281690144 v -12.042253521126762   v -33  h -18.063380281690144 v -18  h 18.063380281690144 v -45  h -18.063380281690144 v -50  h 18.063380281690144 v -45  h -18.063380281690144 v -18  h 18.063380281690144 v -45  h -18.063380281690144 v -50  h 18.063380281690144 v -45  h -18.063380281690144 v -18  h 18.063380281690144 v -33    v -12.042253521126762 h -18.063380281690144   h -27  v 12.042253521126762 h -60  v -12.042253521126762 h -45  v 12.042253521126762 h -18  v -12.042253521126762 h -45  v 12.042253521126762 h -60  v -12.042253521126762 h -45  v 12.042253521126762 h -18  v -12.042253521126762 h -45  v 12.042253521126762 h -60  v -12.042253521126762 h -27    h -18.063380281690144   " stroke="#000000" stroke-width="1" stroke-opacity="1" fill="#999999" fill-opacity="1" visibility="visible" transform="translate(0,1363)"/>
</g></svg>