<?xml version="1.0" standalone="no"?>
<!DOCTYPE svg PUBLIC "-//W3C//DTD SVG 1.1//EN" "http://www.w3.org/Graphics/SVG/1.1/DTD/svg11.dtd">
<svg width="100%" height="100%" version="1.1" xmlns="http://www.w3.org/2000/svg">
<desc>Magic box - output file</desc>
<g transform='scale(2.83464567)'>
<g x="0" y="0" stroke="#DDDDDD" stroke-width="1" stroke-opacity="1" fill="none" visibility="visible" transform="translate(-3.6893203883495143,54.689320388349515)">
  <path d="m 0 0     h 3.6893203883495143 h 0.8072289156626506 v 3.6893203883495143 h 1.3855421686746987 v -3.6893203883495143 h 0.8072289156626506  h 0.8072289156626506 v 3.6893203883495143 h 1.3855421686746987 v -3.6893203883495143 h 0.8072289156626506  h 0.8072289156626506 v 3.6893203883495143 h 1.3855421686746987 v -3.6893203883495143 h 0.8072289156626506  h 0.8072289156626506 v 3.6893203883495143 h 1.3855421686746987 v -3.6893203883495143 h 0.8072289156626506  h 0.8072289156626506 v 3.6893203883495143 h 1.3855421686746987 v -3.6893203883495143 h 0.8072289156626506  h 0.8072289156626506 v 3.6893203883495143 h 1.3855421686746987 v -3.6893203883495143 h 0.8072289156626506  h 0.8072289156626506 v 3.6893203883495143 h 1.3855421686746987 v -3.6893203883495143 h 0.8072289156626506  h 0.8072289156626506 v 3.6893203883495143 h 1.3855421686746987 v -3.6893203883495143 h 0.8072289156626506  h 0.8072289156626506 v 3.6893203883495143 h 1.3855421686746987 v -3.6893203883495143 h 0.8072289156626506  h 0.8072289156626506 v 3.6893203883495143 h 1.3855421686746987 v -3.6893203883495143 h 0.8072289156626506  h 0.8072289156626506 v 3.6893203883495143 h 1.3855421686746987 v -3.6893203883495143 h 0.8072289156626506  h 0.8072289156626506 v 3.6893203883495143 h 1.3855421686746987 v -3.6893203883495143 h 0.8072289156626506  h 0.8072289156626506 v 3.6893203883495143 h 1.3855421686746987 v -3.6893203883495143 h 0.8072289156626506  h 0.8072289156626506 v 3.6893203883495143 h 1.3855421686746987 v -3.6893203883495143 h 0.8072289156626506  h 0.8072289156626506 v 3.6893203883495143 h 1.3855421686746987 v -3.6893203883495143 h 0.8072289156626506  h 0.8072289156626506 v 3.6893203883495143 h 1.3855421686746987 v -3.6893203883495143 h 0.8072289156626506  h 0.8072289156626506 v 3.6893203883495143 h 1.3855421686746987 v -3.6893203883495143 h 0.8072289156626506  h 0.8072289156626506 v 3.6893203883495143 h 1.3855421686746987 v -3.6893203883495143 h 0.8072289156626506  h 0.8072289156626506 v 3.6893203883495143 h 1.3855421686746987 v -3.6893203883495143 h 0.8072289156626506  h 0.8072289156626506 v 3.6893203883495143 h 1.3855421686746987 v -3.6893203883495143 h 0.8072289156626506   h 3.6893203883495143 v 3.6893203883495143 v 4.223895582329318 h -3.6893203883495143 v 8.218875502008032 h 3.6893203883495143 v 4.223895582329318  v 4.223895582329318 h -3.6893203883495143 v 8.218875502008032 h 3.6893203883495143 v 4.223895582329318  v 4.223895582329318 h -3.6893203883495143 v 8.218875502008032 h 3.6893203883495143 v 4.223895582329318   v 3.6893203883495143 h -3.6893203883495143 h -0.8072289156626506 v -3.6893203883495143 h -1.3855421686746987 v 3.6893203883495143 h -0.8072289156626506  h -0.8072289156626506 v -3.6893203883495143 h -1.3855421686746987 v 3.6893203883495143 h -0.8072289156626506  h -0.8072289156626506 v -3.6893203883495143 h -1.3855421686746987 v 3.6893203883495143 h -0.8072289156626506  h -0.8072289156626506 v -3.6893203883495143 h -1.3855421686746987 v 3.6893203883495143 h -0.8072289156626506  h -0.8072289156626506 v -3.6893203883495143 h -1.3855421686746987 v 3.6893203883495143 h -0.8072289156626506  h -0.8072289156626506 v -3.6893203883495143 h -1.3855421686746987 v 3.6893203883495143 h -0.8072289156626506  h -0.8072289156626506 v -3.6893203883495143 h -1.3855421686746987 v 3.6893203883495143 h -0.8072289156626506  h -0.8072289156626506 v -3.6893203883495143 h -1.3855421686746987 v 3.6893203883495143 h -0.8072289156626506  h -0.8072289156626506 v -3.6893203883495143 h -1.3855421686746987 v 3.6893203883495143 h -0.8072289156626506  h -0.8072289156626506 v -3.6893203883495143 h -1.3855421686746987 v 3.6893203883495143 h -0.8072289156626506  h -0.8072289156626506 v -3.6893203883495143 h -1.3855421686746987 v 3.6893203883495143 h -0.8072289156626506  h -0.8072289156626506 v -3.6893203883495143 h -1.3855421686746987 v 3.6893203883495143 h -0.8072289156626506  h -0.8072289156626506 v -3.6893203883495143 h -1.3855421686746987 v 3.6893203883495143 h -0.8072289156626506  h -0.8072289156626506 v -3.6893203883495143 h -1.3855421686746987 v 3.6893203883495143 h -0.8072289156626506  h -0.8072289156626506 v -3.6893203883495143 h -1.3855421686746987 v 3.6893203883495143 h -0.8072289156626506  h -0.8072289156626506 v -3.6893203883495143 h -1.3855421686746987 v 3.6893203883495143 h -0.8072289156626506  h -0.8072289156626506 v -3.6893203883495143 h -1.3855421686746987 v 3.6893203883495143 h -0.8072289156626506  h -0.8072289156626506 v -3.6893203883495143 h -1.3855421686746987 v 3.6893203883495143 h -0.8072289156626506  h -0.8072289156626506 v -3.6893203883495143 h -1.3855421686746987 v 3.6893203883495143 h -0.8072289156626506  h -0.8072289156626506 v -3.6893203883495143 h -1.3855421686746987 v 3.6893203883495143 h -0.8072289156626506   h -3.6893203883495143 v -3.6893203883495143 v -4.223895582329318 h 3.6893203883495143 v -8.218875502008032 h -3.6893203883495143 v -4.223895582329318  v -4.223895582329318 h 3.6893203883495143 v -8.218875502008032 h -3.6893203883495143 v -4.223895582329318  v -4.223895582329318 h 3.6893203883495143 v -8.218875502008032 h -3.6893203883495143 v -4.223895582329318   v -3.6893203883495143 " visibility="visible" stroke="#ff0000" fill="none" stroke-opacity="1" stroke-width="0.001mm" transform=""/>
  <path d="m 0 0     h 3.6893203883495143 h 0.8072289156626506 v 3.6893203883495143 h 1.3855421686746987 v -3.6893203883495143 h 0.8072289156626506  h 0.8072289156626506 v 3.6893203883495143 h 1.3855421686746987 v -3.6893203883495143 h 0.8072289156626506  h 0.8072289156626506 v 3.6893203883495143 h 1.3855421686746987 v -3.6893203883495143 h 0.8072289156626506  h 0.8072289156626506 v 3.6893203883495143 h 1.3855421686746987 v -3.6893203883495143 h 0.8072289156626506  h 0.8072289156626506 v 3.6893203883495143 h 1.3855421686746987 v -3.6893203883495143 h 0.8072289156626506  h 0.8072289156626506 v 3.6893203883495143 h 1.3855421686746987 v -3.6893203883495143 h 0.8072289156626506  h 0.8072289156626506 v 3.6893203883495143 h 1.3855421686746987 v -3.6893203883495143 h 0.8072289156626506  h 0.8072289156626506 v 3.6893203883495143 h 1.3855421686746987 v -3.6893203883495143 h 0.8072289156626506  h 0.8072289156626506 v 3.6893203883495143 h 1.3855421686746987 v -3.6893203883495143 h 0.8072289156626506  h 0.8072289156626506 v 3.6893203883495143 h 1.3855421686746987 v -3.6893203883495143 h 0.8072289156626506  h 0.8072289156626506 v 3.6893203883495143 h 1.3855421686746987 v -3.6893203883495143 h 0.8072289156626506  h 0.8072289156626506 v 3.6893203883495143 h 1.3855421686746987 v -3.6893203883495143 h 0.8072289156626506  h 0.8072289156626506 v 3.6893203883495143 h 1.3855421686746987 v -3.6893203883495143 h 0.8072289156626506  h 0.8072289156626506 v 3.6893203883495143 h 1.3855421686746987 v -3.6893203883495143 h 0.8072289156626506  h 0.8072289156626506 v 3.6893203883495143 h 1.3855421686746987 v -3.6893203883495143 h 0.8072289156626506  h 0.8072289156626506 v 3.6893203883495143 h 1.3855421686746987 v -3.6893203883495143 h 0.8072289156626506  h 0.8072289156626506 v 3.6893203883495143 h 1.3855421686746987 v -3.6893203883495143 h 0.8072289156626506  h 0.8072289156626506 v 3.6893203883495143 h 1.3855421686746987 v -3.6893203883495143 h 0.8072289156626506  h 0.8072289156626506 v 3.6893203883495143 h 1.3855421686746987 v -3.6893203883495143 h 0.8072289156626506  h 0.8072289156626506 v 3.6893203883495143 h 1.3855421686746987 v -3.6893203883495143 h 0.8072289156626506   h 3.6893203883495143 v 3.6893203883495143 v 4.223895582329318 h -3.6893203883495143 v 8.218875502008032 h 3.6893203883495143 v 4.223895582329318  v 4.223895582329318 h -3.6893203883495143 v 8.218875502008032 h 3.6893203883495143 v 4.223895582329318  v 4.223895582329318 h -3.6893203883495143 v 8.218875502008032 h 3.6893203883495143 v 4.223895582329318   v 3.6893203883495143 h -3.6893203883495143 h -0.8072289156626506 v -3.6893203883495143 h -1.3855421686746987 v 3.6893203883495143 h -0.8072289156626506  h -0.8072289156626506 v -3.6893203883495143 h -1.3855421686746987 v 3.6893203883495143 h -0.8072289156626506  h -0.8072289156626506 v -3.6893203883495143 h -1.3855421686746987 v 3.6893203883495143 h -0.8072289156626506  h -0.8072289156626506 v -3.6893203883495143 h -1.3855421686746987 v 3.6893203883495143 h -0.8072289156626506  h -0.8072289156626506 v -3.6893203883495143 h -1.3855421686746987 v 3.6893203883495143 h -0.8072289156626506  h -0.8072289156626506 v -3.6893203883495143 h -1.3855421686746987 v 3.6893203883495143 h -0.8072289156626506  h -0.8072289156626506 v -3.6893203883495143 h -1.3855421686746987 v 3.6893203883495143 h -0.8072289156626506  h -0.8072289156626506 v -3.6893203883495143 h -1.3855421686746987 v 3.6893203883495143 h -0.8072289156626506  h -0.8072289156626506 v -3.6893203883495143 h -1.3855421686746987 v 3.6893203883495143 h -0.8072289156626506  h -0.8072289156626506 v -3.6893203883495143 h -1.3855421686746987 v 3.6893203883495143 h -0.8072289156626506  h -0.8072289156626506 v -3.6893203883495143 h -1.3855421686746987 v 3.6893203883495143 h -0.8072289156626506  h -0.8072289156626506 v -3.6893203883495143 h -1.3855421686746987 v 3.6893203883495143 h -0.8072289156626506  h -0.8072289156626506 v -3.6893203883495143 h -1.3855421686746987 v 3.6893203883495143 h -0.8072289156626506  h -0.8072289156626506 v -3.6893203883495143 h -1.3855421686746987 v 3.6893203883495143 h -0.8072289156626506  h -0.8072289156626506 v -3.6893203883495143 h -1.3855421686746987 v 3.6893203883495143 h -0.8072289156626506  h -0.8072289156626506 v -3.6893203883495143 h -1.3855421686746987 v 3.6893203883495143 h -0.8072289156626506  h -0.8072289156626506 v -3.6893203883495143 h -1.3855421686746987 v 3.6893203883495143 h -0.8072289156626506  h -0.8072289156626506 v -3.6893203883495143 h -1.3855421686746987 v 3.6893203883495143 h -0.8072289156626506  h -0.8072289156626506 v -3.6893203883495143 h -1.3855421686746987 v 3.6893203883495143 h -0.8072289156626506  h -0.8072289156626506 v -3.6893203883495143 h -1.3855421686746987 v 3.6893203883495143 h -0.8072289156626506   h -3.6893203883495143 v -3.6893203883495143 v -4.223895582329318 h 3.6893203883495143 v -8.218875502008032 h -3.6893203883495143 v -4.223895582329318  v -4.223895582329318 h 3.6893203883495143 v -8.218875502008032 h -3.6893203883495143 v -4.223895582329318  v -4.223895582329318 h 3.6893203883495143 v -8.218875502008032 h -3.6893203883495143 v -4.223895582329318   v -3.6893203883495143 " visibility="visible" stroke="#ff0000" fill="none" stroke-opacity="1" stroke-width="0.001mm" transform="translate(71.06796116504854,0)"/>
</g>
<g x="0" y="0" stroke="#DDDDDD" stroke-width="1" stroke-opacity="1" fill="none" visibility="visible" transform="translate(65.68932038834951,0)">
  <path d="m 0 0     h 3.6893203883495143 h 4.109437751004016 v -3.6893203883495143 h 8.447791164658636 v 3.6893203883495143 h 4.109437751004016  h 4.109437751004016 v -3.6893203883495143 h 8.447791164658636 v 3.6893203883495143 h 4.109437751004016  h 4.109437751004016 v -3.6893203883495143 h 8.447791164658636 v 3.6893203883495143 h 4.109437751004016   h 3.6893203883495143 v 4.223895582329318 h -3.6893203883495143 v 8.218875502008032 h 3.6893203883495143 v 4.223895582329318  v 4.223895582329318 h -3.6893203883495143 v 8.218875502008032 h 3.6893203883495143 v 4.223895582329318  v 4.223895582329318 h -3.6893203883495143 v 8.218875502008032 h 3.6893203883495143 v 4.223895582329318   h -3.6893203883495143 h -4.109437751004016 v 3.6893203883495143 h -8.447791164658636 v -3.6893203883495143 h -4.109437751004016  h -4.109437751004016 v 3.6893203883495143 h -8.447791164658636 v -3.6893203883495143 h -4.109437751004016  h -4.109437751004016 v 3.6893203883495143 h -8.447791164658636 v -3.6893203883495143 h -4.109437751004016   h -3.6893203883495143 v -4.223895582329318 h 3.6893203883495143 v -8.218875502008032 h -3.6893203883495143 v -4.223895582329318  v -4.223895582329318 h 3.6893203883495143 v -8.218875502008032 h -3.6893203883495143 v -4.223895582329318  v -4.223895582329318 h 3.6893203883495143 v -8.218875502008032 h -3.6893203883495143 v -4.223895582329318   " visibility="visible" fill="none" stroke="#ff0000" stroke-opacity="1" stroke-width="0.001mm" transform=""/>
  <path d="m 0 0     h 3.6893203883495143 h 4.109437751004016 v -3.6893203883495143 h 8.447791164658636 v 3.6893203883495143 h 4.109437751004016  h 4.109437751004016 v -3.6893203883495143 h 8.447791164658636 v 3.6893203883495143 h 4.109437751004016  h 4.109437751004016 v -3.6893203883495143 h 8.447791164658636 v 3.6893203883495143 h 4.109437751004016   h 3.6893203883495143 v 4.223895582329318 h -3.6893203883495143 v 8.218875502008032 h 3.6893203883495143 v 4.223895582329318  v 4.223895582329318 h -3.6893203883495143 v 8.218875502008032 h 3.6893203883495143 v 4.223895582329318  v 4.223895582329318 h -3.6893203883495143 v 8.218875502008032 h 3.6893203883495143 v 4.223895582329318   h -3.6893203883495143 h -4.109437751004016 v 3.6893203883495143 h -8.447791164658636 v -3.6893203883495143 h -4.109437751004016  h -4.109437751004016 v 3.6893203883495143 h -8.447791164658636 v -3.6893203883495143 h -4.109437751004016  h -4.109437751004016 v 3.6893203883495143 h -8.447791164658636 v -3.6893203883495143 h -4.109437751004016   h -3.6893203883495143 v -4.223895582329318 h 3.6893203883495143 v -8.218875502008032 h -3.6893203883495143 v -4.223895582329318  v -4.223895582329318 h 3.6893203883495143 v -8.218875502008032 h -3.6893203883495143 v -4.223895582329318  v -4.223895582329318 h 3.6893203883495143 v -8.218875502008032 h -3.6893203883495143 v -4.223895582329318   " visibility="visible" fill="none" stroke="#ff0000" stroke-opacity="1" stroke-width="0.001mm" transform="translate(0,-61.067961165048544)"/>
</g>
<g x="0" y="0" stroke="#DDDDDD" stroke-width="1" stroke-opacity="1" fill="none" visibility="visible" transform="translate(0,null)">
  <path d="m 0 0     h 0.6927710843373494 v -3.6893203883495143 h 1.6144578313253013 v 3.6893203883495143 h 0.6927710843373494  h 0.6927710843373494 v -3.6893203883495143 h 1.6144578313253013 v 3.6893203883495143 h 0.6927710843373494  h 0.6927710843373494 v -3.6893203883495143 h 1.6144578313253013 v 3.6893203883495143 h 0.6927710843373494  h 0.6927710843373494 v -3.6893203883495143 h 1.6144578313253013 v 3.6893203883495143 h 0.6927710843373494  h 0.6927710843373494 v -3.6893203883495143 h 1.6144578313253013 v 3.6893203883495143 h 0.6927710843373494  h 0.6927710843373494 v -3.6893203883495143 h 1.6144578313253013 v 3.6893203883495143 h 0.6927710843373494  h 0.6927710843373494 v -3.6893203883495143 h 1.6144578313253013 v 3.6893203883495143 h 0.6927710843373494  h 0.6927710843373494 v -3.6893203883495143 h 1.6144578313253013 v 3.6893203883495143 h 0.6927710843373494  h 0.6927710843373494 v -3.6893203883495143 h 1.6144578313253013 v 3.6893203883495143 h 0.6927710843373494  h 0.6927710843373494 v -3.6893203883495143 h 1.6144578313253013 v 3.6893203883495143 h 0.6927710843373494  h 0.6927710843373494 v -3.6893203883495143 h 1.6144578313253013 v 3.6893203883495143 h 0.6927710843373494  h 0.6927710843373494 v -3.6893203883495143 h 1.6144578313253013 v 3.6893203883495143 h 0.6927710843373494  h 0.6927710843373494 v -3.6893203883495143 h 1.6144578313253013 v 3.6893203883495143 h 0.6927710843373494  h 0.6927710843373494 v -3.6893203883495143 h 1.6144578313253013 v 3.6893203883495143 h 0.6927710843373494  h 0.6927710843373494 v -3.6893203883495143 h 1.6144578313253013 v 3.6893203883495143 h 0.6927710843373494  h 0.6927710843373494 v -3.6893203883495143 h 1.6144578313253013 v 3.6893203883495143 h 0.6927710843373494  h 0.6927710843373494 v -3.6893203883495143 h 1.6144578313253013 v 3.6893203883495143 h 0.6927710843373494  h 0.6927710843373494 v -3.6893203883495143 h 1.6144578313253013 v 3.6893203883495143 h 0.6927710843373494  h 0.6927710843373494 v -3.6893203883495143 h 1.6144578313253013 v 3.6893203883495143 h 0.6927710843373494  h 0.6927710843373494 v -3.6893203883495143 h 1.6144578313253013 v 3.6893203883495143 h 0.6927710843373494   v 4.109437751004016 h 3.6893203883495143 v 8.447791164658636 h -3.6893203883495143 v 4.109437751004016  v 4.109437751004016 h 3.6893203883495143 v 8.447791164658636 h -3.6893203883495143 v 4.109437751004016  v 4.109437751004016 h 3.6893203883495143 v 8.447791164658636 h -3.6893203883495143 v 4.109437751004016   h -0.6927710843373494 v 3.6893203883495143 h -1.6144578313253013 v -3.6893203883495143 h -0.6927710843373494  h -0.6927710843373494 v 3.6893203883495143 h -1.6144578313253013 v -3.6893203883495143 h -0.6927710843373494  h -0.6927710843373494 v 3.6893203883495143 h -1.6144578313253013 v -3.6893203883495143 h -0.6927710843373494  h -0.6927710843373494 v 3.6893203883495143 h -1.6144578313253013 v -3.6893203883495143 h -0.6927710843373494  h -0.6927710843373494 v 3.6893203883495143 h -1.6144578313253013 v -3.6893203883495143 h -0.6927710843373494  h -0.6927710843373494 v 3.6893203883495143 h -1.6144578313253013 v -3.6893203883495143 h -0.6927710843373494  h -0.6927710843373494 v 3.6893203883495143 h -1.6144578313253013 v -3.6893203883495143 h -0.6927710843373494  h -0.6927710843373494 v 3.6893203883495143 h -1.6144578313253013 v -3.6893203883495143 h -0.6927710843373494  h -0.6927710843373494 v 3.6893203883495143 h -1.6144578313253013 v -3.6893203883495143 h -0.6927710843373494  h -0.6927710843373494 v 3.6893203883495143 h -1.6144578313253013 v -3.6893203883495143 h -0.6927710843373494  h -0.6927710843373494 v 3.6893203883495143 h -1.6144578313253013 v -3.6893203883495143 h -0.6927710843373494  h -0.6927710843373494 v 3.6893203883495143 h -1.6144578313253013 v -3.6893203883495143 h -0.6927710843373494  h -0.6927710843373494 v 3.6893203883495143 h -1.6144578313253013 v -3.6893203883495143 h -0.6927710843373494  h -0.6927710843373494 v 3.6893203883495143 h -1.6144578313253013 v -3.6893203883495143 h -0.6927710843373494  h -0.6927710843373494 v 3.6893203883495143 h -1.6144578313253013 v -3.6893203883495143 h -0.6927710843373494  h -0.6927710843373494 v 3.6893203883495143 h -1.6144578313253013 v -3.6893203883495143 h -0.6927710843373494  h -0.6927710843373494 v 3.6893203883495143 h -1.6144578313253013 v -3.6893203883495143 h -0.6927710843373494  h -0.6927710843373494 v 3.6893203883495143 h -1.6144578313253013 v -3.6893203883495143 h -0.6927710843373494  h -0.6927710843373494 v 3.6893203883495143 h -1.6144578313253013 v -3.6893203883495143 h -0.6927710843373494  h -0.6927710843373494 v 3.6893203883495143 h -1.6144578313253013 v -3.6893203883495143 h -0.6927710843373494   v -4.109437751004016 h -3.6893203883495143 v -8.447791164658636 h 3.6893203883495143 v -4.109437751004016  v -4.109437751004016 h -3.6893203883495143 v -8.447791164658636 h 3.6893203883495143 v -4.109437751004016  v -4.109437751004016 h -3.6893203883495143 v -8.447791164658636 h 3.6893203883495143 v -4.109437751004016   " stroke-opacity="1" visibility="visible" stroke="#ff0000" fill="none" stroke-width="0.001mm" transform=""/>
  <path d="m 0 0     h 0.6927710843373494 v -3.6893203883495143 h 1.6144578313253013 v 3.6893203883495143 h 0.6927710843373494  h 0.6927710843373494 v -3.6893203883495143 h 1.6144578313253013 v 3.6893203883495143 h 0.6927710843373494  h 0.6927710843373494 v -3.6893203883495143 h 1.6144578313253013 v 3.6893203883495143 h 0.6927710843373494  h 0.6927710843373494 v -3.6893203883495143 h 1.6144578313253013 v 3.6893203883495143 h 0.6927710843373494  h 0.6927710843373494 v -3.6893203883495143 h 1.6144578313253013 v 3.6893203883495143 h 0.6927710843373494  h 0.6927710843373494 v -3.6893203883495143 h 1.6144578313253013 v 3.6893203883495143 h 0.6927710843373494  h 0.6927710843373494 v -3.6893203883495143 h 1.6144578313253013 v 3.6893203883495143 h 0.6927710843373494  h 0.6927710843373494 v -3.6893203883495143 h 1.6144578313253013 v 3.6893203883495143 h 0.6927710843373494  h 0.6927710843373494 v -3.6893203883495143 h 1.6144578313253013 v 3.6893203883495143 h 0.6927710843373494  h 0.6927710843373494 v -3.6893203883495143 h 1.6144578313253013 v 3.6893203883495143 h 0.6927710843373494  h 0.6927710843373494 v -3.6893203883495143 h 1.6144578313253013 v 3.6893203883495143 h 0.6927710843373494  h 0.6927710843373494 v -3.6893203883495143 h 1.6144578313253013 v 3.6893203883495143 h 0.6927710843373494  h 0.6927710843373494 v -3.6893203883495143 h 1.6144578313253013 v 3.6893203883495143 h 0.6927710843373494  h 0.6927710843373494 v -3.6893203883495143 h 1.6144578313253013 v 3.6893203883495143 h 0.6927710843373494  h 0.6927710843373494 v -3.6893203883495143 h 1.6144578313253013 v 3.6893203883495143 h 0.6927710843373494  h 0.6927710843373494 v -3.6893203883495143 h 1.6144578313253013 v 3.6893203883495143 h 0.6927710843373494  h 0.6927710843373494 v -3.6893203883495143 h 1.6144578313253013 v 3.6893203883495143 h 0.6927710843373494  h 0.6927710843373494 v -3.6893203883495143 h 1.6144578313253013 v 3.6893203883495143 h 0.6927710843373494  h 0.6927710843373494 v -3.6893203883495143 h 1.6144578313253013 v 3.6893203883495143 h 0.6927710843373494  h 0.6927710843373494 v -3.6893203883495143 h 1.6144578313253013 v 3.6893203883495143 h 0.6927710843373494   v 4.109437751004016 h 3.6893203883495143 v 8.447791164658636 h -3.6893203883495143 v 4.109437751004016  v 4.109437751004016 h 3.6893203883495143 v 8.447791164658636 h -3.6893203883495143 v 4.109437751004016  v 4.109437751004016 h 3.6893203883495143 v 8.447791164658636 h -3.6893203883495143 v 4.109437751004016   h -0.6927710843373494 v 3.6893203883495143 h -1.6144578313253013 v -3.6893203883495143 h -0.6927710843373494  h -0.6927710843373494 v 3.6893203883495143 h -1.6144578313253013 v -3.6893203883495143 h -0.6927710843373494  h -0.6927710843373494 v 3.6893203883495143 h -1.6144578313253013 v -3.6893203883495143 h -0.6927710843373494  h -0.6927710843373494 v 3.6893203883495143 h -1.6144578313253013 v -3.6893203883495143 h -0.6927710843373494  h -0.6927710843373494 v 3.6893203883495143 h -1.6144578313253013 v -3.6893203883495143 h -0.6927710843373494  h -0.6927710843373494 v 3.6893203883495143 h -1.6144578313253013 v -3.6893203883495143 h -0.6927710843373494  h -0.6927710843373494 v 3.6893203883495143 h -1.6144578313253013 v -3.6893203883495143 h -0.6927710843373494  h -0.6927710843373494 v 3.6893203883495143 h -1.6144578313253013 v -3.6893203883495143 h -0.6927710843373494  h -0.6927710843373494 v 3.6893203883495143 h -1.6144578313253013 v -3.6893203883495143 h -0.6927710843373494  h -0.6927710843373494 v 3.6893203883495143 h -1.6144578313253013 v -3.6893203883495143 h -0.6927710843373494  h -0.6927710843373494 v 3.6893203883495143 h -1.6144578313253013 v -3.6893203883495143 h -0.6927710843373494  h -0.6927710843373494 v 3.6893203883495143 h -1.6144578313253013 v -3.6893203883495143 h -0.6927710843373494  h -0.6927710843373494 v 3.6893203883495143 h -1.6144578313253013 v -3.6893203883495143 h -0.6927710843373494  h -0.6927710843373494 v 3.6893203883495143 h -1.6144578313253013 v -3.6893203883495143 h -0.6927710843373494  h -0.6927710843373494 v 3.6893203883495143 h -1.6144578313253013 v -3.6893203883495143 h -0.6927710843373494  h -0.6927710843373494 v 3.6893203883495143 h -1.6144578313253013 v -3.6893203883495143 h -0.6927710843373494  h -0.6927710843373494 v 3.6893203883495143 h -1.6144578313253013 v -3.6893203883495143 h -0.6927710843373494  h -0.6927710843373494 v 3.6893203883495143 h -1.6144578313253013 v -3.6893203883495143 h -0.6927710843373494  h -0.6927710843373494 v 3.6893203883495143 h -1.6144578313253013 v -3.6893203883495143 h -0.6927710843373494  h -0.6927710843373494 v 3.6893203883495143 h -1.6144578313253013 v -3.6893203883495143 h -0.6927710843373494   v -4.109437751004016 h -3.6893203883495143 v -8.447791164658636 h 3.6893203883495143 v -4.109437751004016  v -4.109437751004016 h -3.6893203883495143 v -8.447791164658636 h 3.6893203883495143 v -4.109437751004016  v -4.109437751004016 h -3.6893203883495143 v -8.447791164658636 h 3.6893203883495143 v -4.109437751004016   " stroke-opacity="1" visibility="visible" stroke="#ff0000" fill="none" stroke-width="0.001mm" transform="translate(0,-61.067961165048544)"/>
</g>
</g></svg>