<?xml version="1.0" encoding="utf-8"?>
<!-- Generator: Adobe Illustrator 15.0.0, SVG Export Plug-In . SVG Version: 6.00 Build 0)  -->
<!DOCTYPE svg PUBLIC "-//W3C//DTD SVG 1.1//EN" "http://www.w3.org/Graphics/SVG/1.1/DTD/svg11.dtd">
<svg version="1.1" id="Layer_1" xmlns="http://www.w3.org/2000/svg" xmlns:xlink="http://www.w3.org/1999/xlink" x="0px" y="0px"
	 width="595.28px" height="841.89px" viewBox="0 0 595.28 841.89" enable-background="new 0 0 595.28 841.89" xml:space="preserve">
<g>
	
		<rect id="bottom_middle_2" x="148.723" y="159.539" fill="none" stroke="#12100B" stroke-width="0.4252" stroke-linecap="round" stroke-linejoin="round" width="6.45" height="2.581"/>
	
		<rect id="bottom_left_2" x="6.978" y="145.026" fill="none" stroke="#12100B" stroke-width="0.4252" stroke-linecap="round" stroke-linejoin="round" width="2.58" height="4.838"/>
	
		<rect id="bottom_left_1" x="14.933" y="159.539" fill="none" stroke="#12100B" stroke-width="0.4252" stroke-linecap="round" stroke-linejoin="round" width="6.45" height="2.581"/>
	
		<polygon id="outline" fill="none" stroke="#12100B" stroke-width="0.4252" stroke-linecap="round" stroke-linejoin="round" points="
		6.978,159.539 6.978,170.291 0,170.291 0,153.032 6.978,135.35 9.558,135.35 9.558,121.375 6.978,121.375 6.978,111.699 
		9.558,111.699 9.558,106.861 6.978,106.861 6.978,97.185 9.558,97.185 9.558,83.21 6.978,83.21 6.978,73.534 9.558,73.534 
		9.558,68.696 6.978,68.696 6.978,59.021 9.558,59.021 9.558,45.045 6.978,45.045 6.978,35.369 9.558,35.369 9.558,30.531 
		6.978,30.531 6.978,20.856 9.558,20.856 9.558,2.58 26.758,2.58 26.758,0 39.659,0 39.659,2.58 49.335,2.58 49.335,0 54.173,0 
		54.173,2.58 63.848,2.58 63.848,0 76.749,0 76.749,2.58 86.425,2.58 86.425,0 91.262,0 91.262,2.58 100.938,2.58 100.938,0 
		113.839,0 113.839,2.58 123.514,2.58 123.514,0 128.352,0 128.352,2.58 138.027,2.58 138.027,0 150.929,0 150.929,2.58 
		160.604,2.58 160.604,0 165.441,0 165.441,2.58 175.117,2.58 175.117,0 188.018,0 188.018,2.58 197.693,2.58 197.693,0 202.531,0 
		202.531,2.58 212.207,2.58 212.207,0 225.107,0 225.107,2.58 234.783,2.58 234.783,0 239.621,0 239.621,2.58 249.297,2.58 
		249.297,0 262.197,0 262.197,2.58 271.873,2.58 271.873,0 276.711,0 276.711,2.58 286.387,2.58 286.387,0 299.287,0 299.287,2.58 
		308.963,2.58 308.963,0 313.801,0 313.801,2.58 323.477,2.58 323.477,0 336.377,0 336.377,2.58 353.578,2.58 353.578,20.856 
		356.158,20.856 356.158,30.531 353.578,30.531 353.578,35.369 356.158,35.369 356.158,45.045 353.578,45.045 353.578,59.021 
		356.158,59.021 356.158,68.696 353.578,68.696 353.578,73.534 356.158,73.534 356.158,83.21 353.578,83.21 353.578,97.185 
		356.158,97.185 356.158,106.861 353.578,106.861 353.578,111.699 356.158,111.699 356.158,121.375 353.578,121.375 353.578,135.35 
		356.158,135.35 362.129,155.213 362.129,170.291 356.158,170.291 356.158,159.539 353.578,159.539 353.578,170.291 
		338.326,170.291 327.854,26.231 225.107,17.751 170.977,37.412 168.504,151.919 168.504,170.291 157.041,170.291 154.316,164.915 
		16.137,164.915 13.93,170.291 9.558,170.291 9.558,159.539 	"/>
	
		<rect id="bottom_right_1" x="353.578" y="145.026" fill="none" stroke="#12100B" stroke-width="0.4252" stroke-linecap="round" stroke-linejoin="round" width="2.58" height="4.838"/>
	
		<rect id="bottom_right_2" x="341.752" y="159.539" fill="none" stroke="#12100B" stroke-width="0.4252" stroke-linecap="round" stroke-linejoin="round" width="6.451" height="2.581"/>
	
		<rect id="bottom_middle_1" x="160.549" y="159.539" fill="none" stroke="#12100B" stroke-width="0.4252" stroke-linecap="round" stroke-linejoin="round" width="2.58" height="9.062"/>
</g>
</svg>
