<?xml version="1.0" encoding="utf-8"?>
<!-- Generator: Adobe Illustrator 15.0.0, SVG Export Plug-In . SVG Version: 6.00 Build 0)  -->
<!DOCTYPE svg PUBLIC "-//W3C//DTD SVG 1.1//EN" "http://www.w3.org/Graphics/SVG/1.1/DTD/svg11.dtd">
<svg version="1.1" id="Layer_1" xmlns="http://www.w3.org/2000/svg" xmlns:xlink="http://www.w3.org/1999/xlink" x="0px" y="0px"
	 width="595.275px" height="841.89px" viewBox="0 0 595.275 841.89" enable-background="new 0 0 595.275 841.89"
	 xml:space="preserve">
<g>
	<rect x="75.221" y="160.235" fill="#FFFFFF" stroke="#000000" width="320.481" height="465.061"/>
	<line fill="#FFFFFF" stroke="#000000" x1="75.518" y1="583.263" x2="395.667" y2="583.263"/>
	<line fill="#FFFFFF" stroke="#000000" x1="110.366" y1="583" x2="110.366" y2="160.333"/>
	<line fill="#FFFFFF" stroke="#000000" x1="365.04" y1="583.333" x2="365.04" y2="160"/>
	<line fill="#FFFFFF" stroke="#000000" x1="110.667" y1="215.825" x2="364.712" y2="215.825"/>
	<line fill="#FFFFFF" stroke="#000000" stroke-width="0.5" x1="235.667" y1="583.263" x2="235.667" y2="215.666"/>
	<line fill="#FFFFFF" stroke="#000000" stroke-width="3" x1="121.004" y1="581.513" x2="225.824" y2="581.513"/>
	<line fill="#FFFFFF" stroke="#000000" stroke-width="3" x1="253.233" y1="581.163" x2="358.054" y2="581.163"/>
	<line fill="#FFFFFF" stroke="#000000" stroke-width="3" x1="117.088" y1="216.693" x2="221.908" y2="216.693"/>
	<line fill="#FFFFFF" stroke="#000000" stroke-width="3" x1="254.438" y1="216.693" x2="359.257" y2="216.693"/>
	<path fill="#FFFFFF" stroke="#000000" stroke-width="0.5" d="M396.728,159.284"/>
	<polyline fill="#FFFFFF" stroke="#000000" stroke-width="0.5" points="75.221,160.235 131.848,107.223 453.354,106.271 	"/>
	<polyline fill="#FFFFFF" stroke="#000000" points="453.354,106.271 452.153,572.433 395.702,625.296 	"/>
	<line fill="#FFFFFF" stroke="#000000" stroke-width="0.25" x1="395" y1="161" x2="453.354" y2="106.271"/>
	<rect x="402.571" y="115.09" fill="#FFFFFF" width="36.506" height="37.892"/>
	<text transform="matrix(1 0 0 1 169.498 37.0234)"><tspan x="0" y="0" font-family="'Myriad-Roman'" font-size="12">DOOR MEASUREMENT IS BASED ON THE WIDTH OF THE ZIPPER.</tspan><tspan x="0" y="14.4" fill="#EA5B0C" font-family="'Myriad-Roman'" font-size="12">PATTERN BASED ON CLOSET 86X50X180. </tspan><tspan x="206.408" y="14.4" font-family="'Myriad-Roman'" font-size="12"> </tspan><tspan x="208.952" y="14.4" fill="#EA5B0C" font-family="'Myriad-Roman'" font-size="12">HEIGHT OF FEET = 25 CM.</tspan><tspan x="0" y="28.8" font-family="'Myriad-Roman'" font-size="12">PATTERNS WITHOUT THE 1 CM STITCH EDGE.</tspan><tspan x="0" y="43.2" font-family="'Myriad-Roman'" font-size="12">THE SIDE PATTERN IS HALF; IT’S ON THE FABRIC FOLD.</tspan></text>
	<line fill="none" stroke="#A8A8A7" stroke-dasharray="4,3" x1="111" y1="194.664" x2="364.334" y2="194.664"/>
	<line fill="#FFFFFF" stroke="#A8A8A7" stroke-dasharray="4,3" x1="236.334" y1="213.998" x2="236.334" y2="194.664"/>
	<line fill="none" stroke="#A8A8A7" stroke-dasharray="4,3" x1="111" y1="606.664" x2="364.334" y2="606.664"/>
	<line fill="#FFFFFF" stroke="#A8A8A7" stroke-dasharray="4,3" x1="236.334" y1="604.331" x2="236.334" y2="584.998"/>
	<line fill="#FFFFFF" stroke="#A8A8A7" stroke-dasharray="4,3" x1="365.001" y1="605.665" x2="365.001" y2="586.331"/>
	<line fill="#FFFFFF" stroke="#A8A8A7" stroke-dasharray="4,3" x1="109.667" y1="605.665" x2="109.667" y2="586.331"/>
	<line fill="#FFFFFF" stroke="#000000" stroke-width="0.5" x1="237.667" y1="583.333" x2="237.667" y2="216"/>
	<text transform="matrix(1 0 0 1 355.667 138.332)" fill="#E30613" font-family="'Myriad-Roman'" font-size="12">2.</text>
	<text transform="matrix(1 0 0 1 172.667 310.332)" fill="#E30613" font-family="'Myriad-Roman'" font-size="12">3.</text>
	<text transform="matrix(1 0 0 1 289.667 308.332)" fill="#E30613" font-family="'Myriad-Roman'" font-size="12">3.</text>
	<text transform="matrix(1 0 0 1 89.667 281.332)" fill="#E30613" font-family="'Myriad-Roman'" font-size="12">4.</text>
	<text transform="matrix(1 0 0 1 230.667 180.332)" fill="#E30613" font-family="'Myriad-Roman'" font-size="12">5.</text>
	<text transform="matrix(1 0 0 1 219.667 610.332)" fill="#E30613" font-family="'Myriad-Roman'" font-size="12">6. </text>
	
		<line fill="#FFFFFF" stroke="#F39200" stroke-width="2" stroke-dasharray="4,3" x1="238.317" y1="159.692" x2="294.944" y2="106.68"/>
	<text transform="matrix(0.7357 -0.6773 0.6773 0.7357 229.9805 158.1763)" font-family="'Myriad-Roman'" font-size="12">FABRIC FOLD</text>
	<text transform="matrix(1 0 0 1 27 656)"><tspan x="0" y="0" font-family="'Myriad-Roman'" font-size="12">ORDER OF STITCHING:</tspan><tspan x="0" y="14.4" font-family="'Myriad-Roman'" font-size="12">BACK (1.) AND SIDE (2.) TOGETHER.</tspan><tspan x="0" y="28.8" font-family="'Myriad-Roman'" font-size="12">PREPARATION OF DOORS (3.);  FINISHING BOTTOM AND TOP.</tspan><tspan x="0" y="43.2" font-family="'Myriad-Roman'" font-size="12">ATTACH ZIPPER TO DOORS (3.).</tspan><tspan x="0" y="57.6" font-family="'Myriad-Roman'" font-size="12">TOP FRAME (5.) TO INSIDE TOP (5a.).</tspan><tspan x="0" y="72" font-family="'Myriad-Roman'" font-size="12">BOTTOM FRAME (4.) TO INSIDE BOTTOM (4a.).</tspan><tspan x="0" y="86.4" font-family="'Myriad-Roman'" font-size="12">SIDE FRAME (4.) TO TOP FRAME (5.), WITH DOOR (3.) IN BETWEEN. BOTH SIDES.</tspan><tspan x="0" y="100.8" font-family="'Myriad-Roman'" font-size="12">ATTACH BOTTOM FRAME TO THE SIDE FRAMES (4.).</tspan><tspan x="0" y="115.2" font-family="'Myriad-Roman'" font-size="12">WHOLE FRONT FRAME TO SIDE PATTERN. </tspan><tspan x="0" y="144" font-family="'Myriad-Roman'" font-size="12">CAUTION FOR VELCRO :ONE PART ON TOP OF FABRIC, OTHER SIDE ON BOTTOM OF FABRIC.</tspan></text>
	<text transform="matrix(1 0 0 1 379.667 279.332)" fill="#E30613" font-family="'Myriad-Roman'" font-size="12">4.</text>
	<text transform="matrix(1 0 0 1 27 122)"><tspan x="0" y="0" fill="#EA5B0C" font-family="'Myriad-Roman'" font-size="12">depth</tspan><tspan x="0" y="14.4" fill="#EA5B0C" font-family="'Myriad-Roman'" font-size="12">from front end</tspan><tspan x="0" y="28.8" fill="#EA5B0C" font-family="'Myriad-Roman'" font-size="12">ex. 50</tspan></text>
	<g>
		<text transform="matrix(1 0 0 1 469 330)"><tspan x="0" y="0" fill="#EA5B0C" font-family="'Myriad-Roman'" font-size="12">height from front end </tspan><tspan x="0" y="14.4" fill="#EA5B0C" font-family="'Myriad-Roman'" font-size="12">(minus legs)</tspan><tspan x="0" y="28.8" fill="#EA5B0C" font-family="'Myriad-Roman'" font-size="12">ex.155</tspan></text>
	</g>
	<text transform="matrix(1 0 0 1 214 648)"><tspan x="0" y="0" fill="#EA5B0C" font-family="'Myriad-Roman'" font-size="12">width from front end</tspan><tspan x="0" y="14.4" fill="#EA5B0C" font-family="'Myriad-Roman'" font-size="12">ex. 86</tspan></text>
	<text transform="matrix(1 0 0 1 13 30)"><tspan x="0" y="0" fill="#EA5B0C" font-family="'Myriad-Roman'" font-size="12">orange</tspan><tspan x="0" y="14.4" font-family="'Myriad-Roman'" font-size="12">=variable from front end</tspan><tspan x="0" y="28.8" font-family="'Myriad-Roman'" font-size="12">example value given</tspan></text>
</g>
</svg>
