<?xml version="1.0" encoding="utf-8"?>
<!-- Generator: Adobe Illustrator 15.0.0, SVG Export Plug-In . SVG Version: 6.00 Build 0)  -->
<!DOCTYPE svg PUBLIC "-//W3C//DTD SVG 1.1//EN" "http://www.w3.org/Graphics/SVG/1.1/DTD/svg11.dtd">
<svg version="1.1" id="Layer_1" xmlns="http://www.w3.org/2000/svg" xmlns:xlink="http://www.w3.org/1999/xlink" x="0px" y="0px"
	 width="6019.185px" height="9304.555px" viewBox="-159.473 -232.959 6019.185 9304.555"
	 enable-background="new -159.473 -232.959 6019.185 9304.555" xml:space="preserve">
<desc>Magic box - output file</desc>
<g transform="scale(2.83464567)">
	<g transform="">
		<text transform="matrix(0.3528 0 0 0.3528 70.0002 129.9999)" fill="#888888" font-family="'ArialMT'" font-size="113.3858">Velcro width 2cm</text>
		
			<text transform="matrix(0.3528 0 0 0.3528 70.0002 129.9999)" fill="none" stroke="#DDDDDD" font-family="'ArialMT'" font-size="113.3858">Velcro width 2cm</text>
		<rect y="0" fill="#663300" fill-opacity="0.4783" stroke="#DDDDDD" width="50" height="50"/>
		<text transform="matrix(0.3528 0 0 0.3528 70.0002 40.0003)" fill="#888888" font-family="'ArialMT'" font-size="113.3858">Velcro inside width 2cm</text>
		
			<text transform="matrix(0.3528 0 0 0.3528 70.0002 40.0003)" fill="none" stroke="#DDDDDD" font-family="'ArialMT'" font-size="113.3858">Velcro inside width 2cm</text>
		<rect y="90" fill="#FFFF00" fill-opacity="0.4891" stroke="#DDDDDD" width="50" height="50"/>
	</g>
	<g transform="translate(771.1445783132531,400)">
		<rect x="0" y="0" fill="none" stroke="#000000" width="590.289" height="254"/>
		
			<text transform="matrix(0.3528 0 0 0.3528 -6.103516e-05 -3.662109e-04)" fill="#888888" font-family="'ArialMT'" font-size="113.3858">5. front frame top</text>
		
			<text transform="matrix(0.3528 0 0 0.3528 -6.103516e-05 -3.662109e-04)" fill="none" stroke="#DDDDDD" font-family="'ArialMT'" font-size="113.3858">5. front frame top</text>
	</g>
	<g transform="translate(711.1445783132531,0)">
		<rect x="50" y="310" fill="#FFFF00" fill-opacity="0.5" stroke="#CCCCCC" stroke-opacity="0" width="602.289" height="20"/>
		<path fill="none" stroke="#000000" d="M0,0h702.289v254h-50v75H50v-75H0V0"/>
		<text transform="matrix(0.3528 0 0 0.3528 1.831055e-04 0)" fill="#888888" font-family="'ArialMT'" font-size="113.3858">6. Front Frame Bottom</text>
		
			<text transform="matrix(0.3528 0 0 0.3528 1.831055e-04 0)" fill="none" stroke="#DDDDDD" font-family="'ArialMT'" font-size="113.3858">6. Front Frame Bottom</text>
	</g>
	<g transform="translate(0,750)">
		<rect y="0" fill="none" stroke="#000000" width="295.145" height="925.88"/>
		<text transform="matrix(0.3528 0 0 0.3528 0 -9.536743e-05)" fill="#888888" font-family="'ArialMT'" font-size="113.3858">3. Door</text>
		
			<text transform="matrix(0.3528 0 0 0.3528 0 -9.536743e-05)" fill="none" stroke="#DDDDDD" font-family="'ArialMT'" font-size="113.3858">3. Door</text>
	</g>
	<g transform="translate(451.144578313253,750)">
		<rect x="0" y="0" fill="none" stroke="#000000" width="56" height="932.879"/>
		
			<text transform="matrix(0.3528 0 0 0.3528 2.441406e-04 -9.536743e-05)" fill="#888888" font-family="'ArialMT'" font-size="113.3858">4. Front Frame sides</text>
		
			<text transform="matrix(0.3528 0 0 0.3528 2.441406e-04 -9.536743e-05)" fill="none" stroke="#DDDDDD" font-family="'ArialMT'" font-size="113.3858">4. Front Frame sides</text>
	</g>
	<g transform="translate(701.1445783132531,750)">
		<path fill="none" stroke="#000000" d="M0,0h702.289v1112.891h-50v75H50v-75H0V0"/>
		<text transform="matrix(0.3528 0 0 0.3528 300 -9.536743e-05)" fill="#888888" font-family="'ArialMT'" font-size="113.3858">1. Back</text>
		
			<text transform="matrix(0.3528 0 0 0.3528 300 -9.536743e-05)" fill="none" stroke="#DDDDDD" font-family="'ArialMT'" font-size="113.3858">1. Back</text>
		
			<rect x="55" y="1117.891" fill="#663300" fill-opacity="0.5" stroke="#DDDDDD" stroke-width="3" stroke-opacity="0" width="592.289" height="20"/>
		
			<rect x="10" y="10" fill="#663300" fill-opacity="0.5" stroke="#DDDDDD" stroke-width="3" stroke-opacity="0" width="682.289" height="20"/>
		
			<rect x="55" y="1167.891" fill="#FFFF00" fill-opacity="0.5" stroke="#DDDDDD" stroke-width="3" stroke-opacity="0" width="592.289" height="20"/>
	</g>
	<g transform="translate(761.1445783132531,2062.89156626506)">
		
			<rect x="10" y="468.975" fill="#663300" fill-opacity="0.5" stroke="#DDDDDD" stroke-width="3" stroke-opacity="0" width="582.289" height="20"/>
		<rect x="0" y="0" fill="none" stroke="#000000" width="592.289" height="493.976"/>
		
			<text transform="matrix(0.3528 0 0 0.3528 1.831055e-04 -4.882812e-04)" fill="#888888" font-family="'ArialMT'" font-size="113.3858">5a. Inside Top</text>
		
			<text transform="matrix(0.3528 0 0 0.3528 1.831055e-04 -4.882812e-04)" fill="none" stroke="#DDDDDD" font-family="'ArialMT'" font-size="113.3858">5a. Inside Top</text>
	</g>
	<g transform="translate(711.1445783132531,2656.867469879518)">
		
			<rect x="10" y="468.975" fill="#663300" fill-opacity="0.5" stroke="#DDDDDD" stroke-width="3" stroke-opacity="0" width="682.289" height="20"/>
		<rect x="0" y="-0.001" fill="none" stroke="#000000" width="702.289" height="493.976"/>
		
			<rect x="10" y="468.975" fill="#663300" fill-opacity="0.5" stroke="#DDDDDD" stroke-width="3" stroke-opacity="0" width="682.289" height="20"/>
		
			<text transform="matrix(0.3528 0 0 0.3528 1.831055e-04 -6.103516e-04)" fill="#888888" font-family="'ArialMT'" font-size="113.3858">4a. Inside Bottom</text>
		
			<text transform="matrix(0.3528 0 0 0.3528 1.831055e-04 -6.103516e-04)" fill="none" stroke="#DDDDDD" font-family="'ArialMT'" font-size="113.3858">4a. Inside Bottom</text>
	</g>
	<g transform="translate(1503.433734939759,0)">
		<text transform="matrix(0.3528 0 0 0.3528 -4.882812e-04 0)" fill="#888888" font-family="'ArialMT'" font-size="113.3858">2. side (half)</text>
		
			<text transform="matrix(0.3528 0 0 0.3528 -4.882812e-04 0)" fill="none" stroke="#DDDDDD" font-family="'ArialMT'" font-size="113.3858">2. side (half)</text>
		<path fill="none" stroke="#000000" d="M123.494,10v50h246.988V10"/>
		<rect x="50" y="1762.168" fill="#FFFF00" fill-opacity="0.5" stroke="#DDDDDD" stroke-opacity="0" width="393.976" height="20"/>
		<rect x="50" y="1411.024" fill="#FFFF00" fill-opacity="0.5" stroke="#DDDDDD" stroke-opacity="0" width="20" height="351.144"/>
		
			<rect x="423.976" y="1411.024" fill="#FFFF00" fill-opacity="0.5" stroke="#DDDDDD" stroke-opacity="0" width="20" height="351.144"/>
		<path fill="none" stroke="#000000" d="M0,0h493.976v1411.024h-50v371.144H50v-371.144H0V0"/>
	</g>
</g>
</svg>
