<?xml version="1.0" standalone="no"?>
<!DOCTYPE svg PUBLIC "-//W3C//DTD SVG 1.1//EN" "http://www.w3.org/Graphics/SVG/1.1/DTD/svg11.dtd">
<svg width="100%" height="100%" version="1.1" xmlns="http://www.w3.org/2000/svg">
<desc>Magic box - output file</desc>
<g transform='scale(2.83464567)'>
<g id="support_group" x="0" y="0" stroke="#DDDDDD" stroke-width="1" stroke-opacity="1" fill="none" visibility="visible" transform="translate(0,221.44578313253012)">
  <text id="support description" x="0" y="-5" fill="#888888" opacity="1" visibility="visible" font-size="8" font-family="Arial" text-anchor="start" transform="">
    <tspan x="0" dy="0">the length of the supports should be: 236.14 mm</tspan>
  </text>
  <text id="support text" x="0" y="-15" fill="#888888" opacity="1" visibility="visible" font-size="12" font-family="Arial" text-anchor="start" transform="">
    <tspan x="0" dy="0">Support</tspan>
  </text>
  <rect id="support" x="0" y="0" width="276.6265060240964" height="20.24096385542169" stroke="#DDDDDD" stroke-width="1" stroke-opacity="1" fill="none" visibility="visible" transform=""/>
  <path id="support holes" x="0" y="0" d="m 0 0 M 10.120481927710845 10.120481927710845  m 0 -1.3253012048192772 a 1.3253012048192772 1.3253012048192772 0  0  1 1.3253012048192772 1.3253012048192772 a 1.3253012048192772 1.3253012048192772 0  0  1 -1.3253012048192772 1.3253012048192772 a 1.3253012048192772 1.3253012048192772 0  0  1 -1.3253012048192772 -1.3253012048192772 a 1.3253012048192772 1.3253012048192772 0  0  1 1.3253012048192772 -1.3253012048192772  m 0 1.3253012048192772  M 266.50602409638554 10.120481927710845  m 0 -1.3253012048192772 a 1.3253012048192772 1.3253012048192772 0  0  1 1.3253012048192772 1.3253012048192772 a 1.3253012048192772 1.3253012048192772 0  0  1 -1.3253012048192772 1.3253012048192772 a 1.3253012048192772 1.3253012048192772 0  0  1 -1.3253012048192772 -1.3253012048192772 a 1.3253012048192772 1.3253012048192772 0  0  1 1.3253012048192772 -1.3253012048192772  m 0 1.3253012048192772  " stroke="#DDDDDD" stroke-width="1" stroke-opacity="1" fill="none" visibility="visible" transform=""/>
</g>
<g id="beams_group" x="0" y="0" stroke="#DDDDDD" stroke-width="1" stroke-opacity="1" fill="none" visibility="visible" transform="translate(0,-15)">
  <text id="side beam description" x="0" y="30.24096385542169" fill="#888888" opacity="1" visibility="visible" font-size="8" font-family="Arial" text-anchor="start" transform="">
    <tspan x="0" dy="0">holes need to be milled at the indicated locations:</tspan>
    <tspan x="0" dy="8">40 130 240 450  mm</tspan>
  </text>
  <path id="side beam" x="0" y="0" d="m 0 0 h 751.8072289156627 v 20.24096385542169 h -751.8072289156627 v -20.24096385542169  m 10.120481927710845 10.120481927710845  m 0 -1.3253012048192772 a 1.3253012048192772 1.3253012048192772 0  0  1 1.3253012048192772 1.3253012048192772 a 1.3253012048192772 1.3253012048192772 0  0  1 -1.3253012048192772 1.3253012048192772 a 1.3253012048192772 1.3253012048192772 0  0  1 -1.3253012048192772 -1.3253012048192772 a 1.3253012048192772 1.3253012048192772 0  0  1 1.3253012048192772 -1.3253012048192772  m 0 1.3253012048192772  m -10.120481927710845 -10.120481927710845 m 40 10.120481927710845  m 0 -1.3253012048192772 a 1.3253012048192772 1.3253012048192772 0  0  1 1.3253012048192772 1.3253012048192772 a 1.3253012048192772 1.3253012048192772 0  0  1 -1.3253012048192772 1.3253012048192772 a 1.3253012048192772 1.3253012048192772 0  0  1 -1.3253012048192772 -1.3253012048192772 a 1.3253012048192772 1.3253012048192772 0  0  1 1.3253012048192772 -1.3253012048192772  m 0 1.3253012048192772  m -40 -10.120481927710845 m 130 10.120481927710845  m 0 -1.3253012048192772 a 1.3253012048192772 1.3253012048192772 0  0  1 1.3253012048192772 1.3253012048192772 a 1.3253012048192772 1.3253012048192772 0  0  1 -1.3253012048192772 1.3253012048192772 a 1.3253012048192772 1.3253012048192772 0  0  1 -1.3253012048192772 -1.3253012048192772 a 1.3253012048192772 1.3253012048192772 0  0  1 1.3253012048192772 -1.3253012048192772  m 0 1.3253012048192772  m -130 -10.120481927710845 m 240 10.120481927710845  m 0 -1.3253012048192772 a 1.3253012048192772 1.3253012048192772 0  0  1 1.3253012048192772 1.3253012048192772 a 1.3253012048192772 1.3253012048192772 0  0  1 -1.3253012048192772 1.3253012048192772 a 1.3253012048192772 1.3253012048192772 0  0  1 -1.3253012048192772 -1.3253012048192772 a 1.3253012048192772 1.3253012048192772 0  0  1 1.3253012048192772 -1.3253012048192772  m 0 1.3253012048192772  m -240 -10.120481927710845 m 450 10.120481927710845  m 0 -1.3253012048192772 a 1.3253012048192772 1.3253012048192772 0  0  1 1.3253012048192772 1.3253012048192772 a 1.3253012048192772 1.3253012048192772 0  0  1 -1.3253012048192772 1.3253012048192772 a 1.3253012048192772 1.3253012048192772 0  0  1 -1.3253012048192772 -1.3253012048192772 a 1.3253012048192772 1.3253012048192772 0  0  1 1.3253012048192772 -1.3253012048192772  m 0 1.3253012048192772  m -450 -10.120481927710845  m 700 10.120481927710845  m 0 -1.3253012048192772 a 1.3253012048192772 1.3253012048192772 0  0  1 1.3253012048192772 1.3253012048192772 a 1.3253012048192772 1.3253012048192772 0  0  1 -1.3253012048192772 1.3253012048192772 a 1.3253012048192772 1.3253012048192772 0  0  1 -1.3253012048192772 -1.3253012048192772 a 1.3253012048192772 1.3253012048192772 0  0  1 1.3253012048192772 -1.3253012048192772  m 0 1.3253012048192772  m -700 -10.120481927710845  m 741.6867469879518 10.120481927710845  m 0 -1.3253012048192772 a 1.3253012048192772 1.3253012048192772 0  0  1 1.3253012048192772 1.3253012048192772 a 1.3253012048192772 1.3253012048192772 0  0  1 -1.3253012048192772 1.3253012048192772 a 1.3253012048192772 1.3253012048192772 0  0  1 -1.3253012048192772 -1.3253012048192772 a 1.3253012048192772 1.3253012048192772 0  0  1 1.3253012048192772 -1.3253012048192772  m 0 1.3253012048192772  " stroke="#DDDDDD" stroke-width="1" stroke-opacity="1" fill="none" visibility="visible" transform=""/>
  <text id="side beam text" x="0" y="-5" fill="#888888" opacity="1" visibility="visible" font-size="12" font-family="Arial" text-anchor="start" transform="">
    <tspan x="0" dy="0">Side Beam (x4)</tspan>
  </text>
</g>
<g id="planks_group" x="0" y="0" stroke="#DDDDDD" stroke-width="1" stroke-opacity="1" fill="none" visibility="visible" transform="translate(0,80.24096385542168)">
  <text id="planks text" x="0" y="-25" fill="#888888" opacity="1" visibility="visible" font-size="12" font-family="Arial" text-anchor="start" transform="">
    <tspan x="0" dy="0">Planks (x4)</tspan>
    <tspan x="0" dy="12"/>
  </text>
  <text id="planks description" x="0" y="-15" fill="#888888" opacity="1" visibility="visible" font-size="8" font-family="Arial" text-anchor="start" transform="">
    <tspan x="0" dy="0">the size of the planks should be: 101.2 x 751.81 mm</tspan>
    <tspan x="0" dy="8">thickness: @plankthickness mm</tspan>
  </text>
  <rect id="planks" x="0" y="0" width="236.144578313253" height="101.20481927710844" stroke="#DDDDDD" stroke-width="1" stroke-opacity="1" fill="none" visibility="visible" transform=""/>
</g>
</g></svg>