<?xml version="1.0" standalone="no"?>
<!DOCTYPE svg PUBLIC "-//W3C//DTD SVG 1.1//EN" "http://www.w3.org/Graphics/SVG/1.1/DTD/svg11.dtd">
<svg width="100%" height="100%" version="1.1" xmlns="http://www.w3.org/2000/svg">
<desc>Magic box - output file</desc>
<g transform='scale(2.83464567)'>
<path x="0" y="0" d="m 0 0 l -86.6025403784439 -50 l 0 -45.204081632653065 l 86.6025403784439 50 l 0 45.204081632653065 l 0 -45.204081632653065 l 121.9505160431149 -70.40816326530613 l 0 45.204081632653065 l -121.9505160431149 70.40816326530613 m 0 -45.204081632653065 l -86.6025403784439 -50 l 121.9505160431149 -70.40816326530613 l 86.6025403784439 50 l -121.9505160431149 70.40816326530613 m 0 45.204081632653065 l -86.6025403784439 -50 l 121.9505160431149 -70.40816326530613 l 86.6025403784439 50 l -121.9505160431149 70.40816326530613 m 121.9505160431149 -70.40816326530613 l -86.6025403784439 -50 l 0 -45.204081632653065 l 86.6025403784439 50 l 0 45.204081632653065 m -208.5530564215588 20.40816326530613 l 0 -45.204081632653065 l 121.9505160431149 -70.40816326530613 l 0 45.204081632653065 l -121.9505160431149 70.40816326530613 m 86.6025403784439 50 " stroke="#DDDDDD" stroke-width="1" stroke-opacity="1" fill="#888888" fill-opacity="0.5" visibility="visible" transform=""/>
<path x="0" y="0" d="m 0 0 l 86.6025403784439 -50  l 0 -20  l -86.6025403784439 50  l 0 20  " stroke="#DDDDDD" stroke-width="1" stroke-opacity="1" fill="none" visibility="hidden" transform=""/>
<path x="0" y="0" d="m 0 0 a 1 1 0  0  1 1 1 a 1 1 0  0  1 -1 1 a 1 1 0  0  1 -1 -1 a 1 1 0  0  1 1 -1  l -86.6025403784439 -50  l 0 -20  l 86.6025403784439 50  l 0 20  " stroke="#DDDDDD" stroke-width="1" stroke-opacity="1" fill="none" visibility="hidden" transform=""/>
</g></svg>